<svg width="22" height="22" viewBox="0 0 22 22" fill="none" xmlns="http://www.w3.org/2000/svg">
<path d="M5.21738 14.8277C5.33219 14.8584 5.3904 14.8649 5.60385 14.8633C5.81732 14.8649 5.87554 14.8584 5.99036 14.8275C6.58874 14.6629 7.05288 14.1626 7.16771 13.5613C7.20167 13.3853 7.18873 13.0561 7.14183 12.8769C7.09816 12.7103 6.99129 12.4921 6.8938 12.3687C6.69326 12.1291 6.65181 12.0376 6.64211 11.7394C6.63726 11.5863 6.64049 11.508 6.65343 11.495C6.66313 11.4852 6.67122 11.4608 6.67122 11.4412C6.67122 11.4217 6.68415 11.3891 6.70033 11.3679C6.7165 11.3467 6.73914 11.3092 6.75046 11.2832C6.7634 11.2587 6.77957 11.2392 6.78766 11.2392C6.79413 11.2392 6.82647 11.2098 6.85882 11.174C6.89116 11.1381 6.92512 11.1088 6.93321 11.1088C6.94291 11.1088 6.97687 11.086 7.01084 11.0599C7.0448 11.0322 7.11272 11.011 7.11272 11.011C7.12028 11.011 7.13099 11.0095 7.14302 11.007H10.966V7.14843C10.9635 7.13633 10.962 7.12557 10.962 7.11797C10.962 7.11797 10.941 7.04967 10.9134 7.01552C10.8875 6.98136 10.8648 6.94722 10.8648 6.93746C10.8648 6.92933 10.8356 6.89518 10.8 6.86265C10.7643 6.83013 10.7351 6.79761 10.7351 6.7911C10.7351 6.78297 10.7157 6.76671 10.6914 6.7537C10.6655 6.74231 10.6282 6.71955 10.6071 6.70329C10.5861 6.68702 10.5536 6.67401 10.5342 6.67401C10.5147 6.67401 10.4904 6.66588 10.4807 6.65613C10.4678 6.64312 10.39 6.63986 10.2376 6.64474C9.94106 6.6545 9.85011 6.69618 9.61188 6.89783C9.48909 6.99587 9.27215 7.10332 9.10646 7.14724C8.9282 7.1944 8.60084 7.20741 8.42582 7.17326C7.82783 7.0578 7.33031 6.59108 7.16663 5.98939C7.13584 5.87393 7.12936 5.81538 7.13098 5.60073C7.12936 5.3861 7.13581 5.32756 7.16644 5.21212C7.32926 4.61052 7.82415 4.14386 8.41898 4.02842C8.59308 3.99428 8.91871 4.00728 9.09603 4.05444C9.26691 4.09996 9.49259 4.21378 9.61188 4.31459C9.84885 4.51621 9.92622 4.5471 10.2212 4.55686C10.3728 4.56174 10.4501 4.55849 10.463 4.54548C10.4727 4.53572 10.4969 4.52759 10.5162 4.52759C10.5356 4.52759 10.5678 4.51458 10.5888 4.49832C10.6097 4.48206 10.6468 4.4593 10.6726 4.44792C10.6968 4.43491 10.7161 4.41865 10.7161 4.41052C10.7161 4.40402 10.7451 4.3715 10.7806 4.33898C10.8161 4.30646 10.8451 4.27232 10.8451 4.26419C10.8451 4.25443 10.8676 4.22029 10.8934 4.18614C10.9208 4.152 10.9418 4.10647 10.9418 4.0837C10.9418 4.06257 10.9531 4.01704 10.966 3.98615V0.495117H6.61447L0.494141 6.63043V11.0314L3.99817 11.007C4.02889 11.02 4.07417 11.0314 4.09519 11.0314C4.11783 11.0314 4.1631 11.0524 4.19706 11.08C4.23102 11.1059 4.26497 11.1286 4.27468 11.1286C4.28276 11.1286 4.31672 11.1578 4.34906 11.1935C4.3814 11.2291 4.41374 11.2583 4.42021 11.2583C4.42829 11.2583 4.44446 11.2777 4.4574 11.3021C4.46872 11.328 4.49135 11.3653 4.50752 11.3863C4.52369 11.4074 4.53663 11.4398 4.53663 11.4593C4.53663 11.4787 4.54471 11.5031 4.55442 11.5128C4.56735 11.5258 4.57059 11.6036 4.56573 11.7559C4.55603 12.0526 4.52531 12.1304 4.3248 12.3687C4.22455 12.4886 4.11136 12.7155 4.06608 12.8874C4.01919 13.0657 4.00625 13.3931 4.04021 13.5682C4.15502 14.1663 4.6191 14.6639 5.21738 14.8277Z" fill="#D9D9D9" stroke="#A6A6A6" stroke-width="0.75"/>
<path d="M14.7718 16.7537C14.8025 16.6385 14.8089 16.58 14.8073 16.3658C14.8089 16.1515 14.8025 16.093 14.7716 15.9778C14.6077 15.3771 14.1093 14.9112 13.5103 14.7959C13.335 14.7618 13.0071 14.7748 12.8285 14.8219C12.6625 14.8657 12.4452 14.973 12.3222 15.0709C12.0836 15.2722 11.9925 15.3138 11.6954 15.3235C11.5428 15.3284 11.4649 15.3251 11.4519 15.3122C11.4422 15.3024 11.4178 15.2943 11.3983 15.2943C11.3789 15.2943 11.3464 15.2813 11.3253 15.2651C11.3042 15.2488 11.2668 15.2261 11.2409 15.2148C11.2165 15.2018 11.197 15.1855 11.197 15.1774C11.197 15.1709 11.1678 15.1385 11.1321 15.106C11.0964 15.0735 11.0672 15.0394 11.0672 15.0313C11.0672 15.0216 11.0445 14.9875 11.0185 14.9534C10.9909 14.9193 10.9698 14.8511 10.9698 14.8511C10.9698 14.8435 10.9683 14.8328 10.9658 14.8207V10.983H7.12198C7.10993 10.9855 7.09921 10.987 7.09163 10.987C7.09163 10.987 7.02359 11.0081 6.98957 11.0358C6.95555 11.0618 6.92154 11.0846 6.91182 11.0846C6.90372 11.0846 6.8697 11.1139 6.8373 11.1497C6.8049 11.1855 6.7725 11.2148 6.76602 11.2148C6.75792 11.2148 6.74172 11.2343 6.72876 11.2587C6.71742 11.2847 6.69474 11.3221 6.67854 11.3433C6.66234 11.3644 6.64938 11.397 6.64938 11.4165C6.64938 11.436 6.64128 11.4604 6.63156 11.4702C6.6186 11.4832 6.61536 11.5613 6.62022 11.7142C6.62994 12.0119 6.67146 12.1032 6.87234 12.3423C6.97 12.4656 7.07704 12.6834 7.12079 12.8497C7.16777 13.0286 7.18073 13.3573 7.14671 13.533C7.03169 14.1332 6.56676 14.6327 5.96737 14.797C5.85236 14.8279 5.79404 14.8344 5.5802 14.8328C5.3664 14.8344 5.30809 14.8279 5.19308 14.7972C4.59378 14.6337 4.12892 14.1369 4.01392 13.5398C3.9799 13.365 3.99286 13.0382 4.03983 12.8602C4.08519 12.6886 4.19857 12.4621 4.29899 12.3423C4.49984 12.1045 4.53061 12.0268 4.54033 11.7306C4.54519 11.5785 4.54195 11.5009 4.52899 11.4879C4.51927 11.4782 4.51118 11.4539 4.51118 11.4345C4.51118 11.4151 4.49822 11.3827 4.48202 11.3617C4.46582 11.3407 4.44315 11.3034 4.43181 11.2775C4.41885 11.2533 4.40265 11.2339 4.39456 11.2339C4.38808 11.2339 4.35568 11.2047 4.32329 11.1691C4.29089 11.1335 4.25688 11.1044 4.24878 11.1044C4.23906 11.1044 4.20505 11.0817 4.17103 11.0559C4.13702 11.0283 4.09166 11.0073 4.06899 11.0073C4.04793 11.0073 4.00258 10.996 3.9718 10.983H0.494141L0.494141 15.3513L6.60597 21.4951H10.99L10.9658 17.9776C10.9787 17.9468 10.99 17.9013 10.99 17.8802C10.99 17.8575 11.011 17.8121 11.0385 17.778C11.0643 17.7439 11.0869 17.7098 11.0869 17.7001C11.0869 17.6919 11.116 17.6578 11.1515 17.6254C11.187 17.5929 11.2161 17.5605 11.2161 17.554C11.2161 17.5458 11.2355 17.5296 11.2597 17.5166C11.2855 17.5053 11.3227 17.4825 11.3437 17.4663C11.3647 17.4501 11.397 17.4371 11.4163 17.4371C11.4357 17.4371 11.4599 17.429 11.4696 17.4192C11.4825 17.4063 11.5601 17.403 11.7118 17.4079C12.0073 17.4176 12.0848 17.4485 12.3222 17.6497C12.4417 17.7504 12.6678 17.864 12.8389 17.9094C13.0166 17.9565 13.3427 17.9695 13.5171 17.9354C14.113 17.8202 14.6087 17.3543 14.7718 16.7537Z" fill="#D9D9D9" stroke="#A6A6A6" stroke-width="0.75"/>
<path d="M16.7704 7.16256C16.6556 7.13176 16.5974 7.12528 16.3839 7.1269C16.1705 7.12527 16.1123 7.13178 15.9974 7.16275C15.3991 7.32733 14.9349 7.82761 14.8201 8.42892C14.7861 8.60492 14.7991 8.93409 14.846 9.11334C14.8896 9.27994 14.9965 9.49809 15.094 9.62156C15.2945 9.86111 15.336 9.95257 15.3457 10.2508C15.3505 10.404 15.3473 10.4822 15.3344 10.4952C15.3247 10.505 15.3166 10.5294 15.3166 10.549C15.3166 10.5685 15.3036 10.6011 15.2875 10.6223C15.2713 10.6435 15.2487 10.681 15.2373 10.7071C15.2244 10.7315 15.2082 10.7511 15.2001 10.7511C15.1937 10.7511 15.1613 10.7804 15.129 10.8162C15.0966 10.8521 15.0627 10.8814 15.0546 10.8814C15.0449 10.8814 15.0109 10.9042 14.977 10.9303C14.943 10.958 14.8751 10.9792 14.8751 10.9792C14.8675 10.9792 14.8568 10.9807 14.8448 10.9832L11.0218 10.9832L11.0218 14.8418C11.0243 14.8539 11.0258 14.8647 11.0258 14.8723C11.0258 14.8723 11.0468 14.9406 11.0744 14.9747C11.1003 15.0089 11.123 15.043 11.123 15.0528C11.123 15.0609 11.1522 15.095 11.1878 15.1276C11.2235 15.1601 11.2526 15.1926 11.2526 15.1991C11.2526 15.2073 11.2721 15.2235 11.2964 15.2365C11.3223 15.2479 11.3596 15.2707 11.3807 15.2869C11.4017 15.3032 11.4341 15.3162 11.4536 15.3162C11.473 15.3162 11.4974 15.3243 11.5071 15.3341C11.52 15.3471 11.5978 15.3504 11.7502 15.3455C12.0467 15.3357 12.1377 15.294 12.3759 15.0924C12.4987 14.9944 12.7156 14.8869 12.8813 14.843C13.0596 14.7958 13.3869 14.7828 13.562 14.817C14.16 14.9324 14.6575 15.3991 14.8212 16.0008C14.852 16.1163 14.8584 16.1748 14.8568 16.3895C14.8584 16.6041 14.852 16.6627 14.8214 16.7781C14.6585 17.3797 14.1636 17.8464 13.5688 17.9618C13.3947 17.996 13.0691 17.9829 12.8918 17.9358C12.7209 17.8903 12.4952 17.7764 12.3759 17.6756C12.1389 17.474 12.0616 17.4431 11.7666 17.4334C11.615 17.4285 11.5377 17.4317 11.5248 17.4447C11.5151 17.4545 11.4909 17.4626 11.4716 17.4626C11.4522 17.4626 11.42 17.4756 11.399 17.4919C11.3781 17.5082 11.341 17.5309 11.3152 17.5423C11.291 17.5553 11.2717 17.5716 11.2717 17.5797C11.2717 17.5862 11.2427 17.6187 11.2072 17.6512C11.1717 17.6838 11.1427 17.7179 11.1427 17.726C11.1427 17.7358 11.1201 17.7699 11.0944 17.8041C11.0669 17.8382 11.046 17.8838 11.046 17.9065C11.046 17.9277 11.0347 17.9732 11.0218 18.0041V21.4951H15.3733L21.4937 15.3598V10.9589L17.9896 10.9832C17.9589 10.9702 17.9136 10.9589 17.8926 10.9589C17.87 10.9589 17.8247 10.9378 17.7907 10.9102C17.7568 10.8843 17.7228 10.8616 17.7131 10.8616C17.705 10.8616 17.6711 10.8324 17.6387 10.7968C17.6064 10.7611 17.5741 10.7319 17.5676 10.7319C17.5595 10.7319 17.5433 10.7125 17.5304 10.6882C17.5191 10.6622 17.4964 10.6249 17.4803 10.6039C17.4641 10.5828 17.4512 10.5504 17.4512 10.5309C17.4512 10.5115 17.4431 10.4872 17.4334 10.4774C17.4204 10.4645 17.4172 10.3867 17.4221 10.2343C17.4318 9.93765 17.4625 9.85984 17.663 9.62156C17.7632 9.50161 17.8764 9.27467 17.9217 9.10285C17.9686 8.92455 17.9815 8.59711 17.9476 8.42205C17.8328 7.82391 17.3687 7.32628 16.7704 7.16256Z" fill="#D9D9D9" stroke="#A6A6A6" stroke-width="0.75"/>
<path d="M7.21597 5.23651C7.18529 5.35176 7.17883 5.4102 7.18045 5.62446C7.17883 5.83875 7.18532 5.8972 7.21616 6.01246C7.38012 6.61314 7.87848 7.07907 8.47749 7.19433C8.65281 7.22842 8.98072 7.21543 9.15929 7.16835C9.32525 7.12451 9.54256 7.01724 9.66556 6.91937C9.90419 6.71806 9.9953 6.67645 10.2924 6.66671C10.445 6.66184 10.5229 6.66509 10.5359 6.67808C10.5456 6.68782 10.57 6.69593 10.5894 6.69593C10.6089 6.69593 10.6414 6.70892 10.6625 6.72515C10.6836 6.74139 10.7209 6.76412 10.7469 6.77548C10.7713 6.78847 10.7907 6.8047 10.7907 6.81282C10.7907 6.81931 10.82 6.85178 10.8557 6.88425C10.8914 6.91672 10.9206 6.95081 10.9206 6.95893C10.9206 6.96867 10.9433 7.00276 10.9693 7.03686C10.9969 7.07095 11.018 7.13913 11.018 7.13913C11.018 7.14673 11.0195 7.15747 11.022 7.16955V11.0072H14.8658C14.8779 11.0047 14.8886 11.0032 14.8962 11.0032C14.8962 11.0032 14.9642 10.9821 14.9982 10.9544C15.0322 10.9284 15.0662 10.9056 15.076 10.9056C15.0841 10.9056 15.1181 10.8763 15.1505 10.8406C15.1829 10.8048 15.2153 10.7755 15.2218 10.7755C15.2299 10.7755 15.2461 10.756 15.259 10.7316C15.2704 10.7055 15.293 10.6681 15.3092 10.647C15.3254 10.6258 15.3384 10.5933 15.3384 10.5738C15.3384 10.5542 15.3465 10.5298 15.3562 10.5201C15.3692 10.5071 15.3724 10.429 15.3676 10.2761C15.3578 9.97834 15.3163 9.88704 15.1154 9.6479C15.0178 9.52463 14.9107 9.30686 14.867 9.14054C14.82 8.96159 14.8071 8.63298 14.8411 8.45728C14.9561 7.85699 15.421 7.35756 16.0204 7.19325C16.1354 7.16234 16.1937 7.15583 16.4076 7.15746C16.6214 7.15584 16.6797 7.16231 16.7947 7.19306C17.394 7.3565 17.8589 7.85329 17.9739 8.45042C18.0079 8.62518 17.9949 8.95206 17.948 9.13007C17.9026 9.3016 17.7892 9.52815 17.6888 9.6479C17.4879 9.88578 17.4572 9.96345 17.4475 10.2596C17.4426 10.4117 17.4458 10.4894 17.4588 10.5023C17.4685 10.512 17.4766 10.5363 17.4766 10.5557C17.4766 10.5751 17.4896 10.6075 17.5058 10.6285C17.522 10.6496 17.5446 10.6868 17.556 10.7127C17.5689 10.737 17.5851 10.7564 17.5932 10.7564C17.5997 10.7564 17.6321 10.7855 17.6645 10.8211C17.6969 10.8567 17.7309 10.8858 17.739 10.8858C17.7487 10.8858 17.7827 10.9085 17.8168 10.9344C17.8508 10.9619 17.8961 10.9829 17.9188 10.9829C17.9399 10.9829 17.9852 10.9943 18.016 11.0072H21.4937L21.4937 6.63897L15.3818 0.495117L10.9977 0.495117L11.022 4.01261C11.009 4.04345 10.9977 4.0889 10.9977 4.11C10.9977 4.13273 10.9767 4.17818 10.9493 4.21227C10.9235 4.24636 10.9009 4.28044 10.9009 4.29018C10.9009 4.2983 10.8718 4.33238 10.8363 4.36485C10.8007 4.39731 10.7717 4.42978 10.7717 4.43627C10.7717 4.44439 10.7523 4.46062 10.7281 4.4736C10.7022 4.48497 10.6651 4.50769 10.6441 4.52392C10.6231 4.54016 10.5908 4.55314 10.5714 4.55314C10.5521 4.55314 10.5278 4.56126 10.5182 4.571C10.5052 4.58398 10.4277 4.58723 10.2759 4.58236C9.98044 4.57262 9.90293 4.54178 9.66556 4.3405C9.54607 4.23986 9.32 4.12624 9.14884 4.08079C8.97122 4.03371 8.64503 4.02073 8.47064 4.05482C7.87479 4.17006 7.37907 4.63592 7.21597 5.23651Z" fill="#D9D9D9" stroke="#A6A6A6" stroke-width="0.75"/>
</svg>
