<svg width="121" height="121" viewBox="0 0 121 121" fill="none" xmlns="http://www.w3.org/2000/svg">
<g clip-path="url(#clip0)">
<path d="M100.54 51.312C100.54 46.6154 99.4419 42.4231 97.2765 38.8517C95.2501 35.5095 92.2794 32.6945 88.4469 30.485C81.6837 26.5859 72.02 24.5248 60.5 24.5248C48.98 24.5248 39.316 26.5857 32.5531 30.4848C28.7206 32.6945 25.7499 35.5093 23.7235 38.8515C21.5581 42.4229 20.4601 46.6152 20.4601 51.3118C20.4601 73.43 38.4219 91.4244 60.5 91.4244C82.5781 91.4244 100.54 73.4302 100.54 51.312ZM60.5 87.9022C40.3644 87.9022 23.9827 71.488 23.9827 51.3123C23.9827 43.4691 27.4583 37.4886 34.3126 33.5368C40.5411 29.9459 49.5966 28.0477 60.5 28.0477C71.4034 28.0477 80.4589 29.9459 86.6874 33.5368C93.542 37.4888 97.0173 43.4691 97.0173 51.3123C97.0173 71.488 80.6356 87.9022 60.5 87.9022Z" fill="#A6A6A6"/>
<path d="M82.5088 36.9439C77.1713 33.9884 69.5607 32.4263 60.5 32.4263C55.2859 32.4263 50.5714 32.9316 46.4879 33.928C45.5429 34.1586 44.9635 35.1116 45.1941 36.0566C45.4245 37.0013 46.3773 37.5807 47.3225 37.3501C51.1332 36.4203 55.5666 35.949 60.4998 35.949C84.999 35.949 88.6571 46.6154 88.6571 52.9735C88.6571 67.8765 76.0259 80.0009 60.4998 80.0009C44.9736 80.0009 32.3424 67.8765 32.3424 52.9735C32.3424 46.966 35.2705 42.4597 41.0455 39.5802C41.9159 39.1461 42.2698 38.0884 41.8358 37.2181C41.402 36.3477 40.3437 35.9938 39.4737 36.4278C32.5039 39.9034 28.82 45.6247 28.82 52.9735C28.82 69.8187 43.0316 83.5234 60.4998 83.5234C77.968 83.5234 92.1795 69.8187 92.1795 52.9735C92.1798 45.9901 88.8357 40.4471 82.5088 36.9439Z" fill="#A6A6A6"/>
<path d="M98.7216 84.7641C104.003 78.7091 107.731 71.533 109.678 63.8487H114.043C117.603 63.8487 120.5 60.9481 120.5 57.3828V45.2813C120.5 41.716 117.603 38.8154 114.043 38.8154H109.697C107.485 30.0263 102.943 21.9657 96.3791 15.3896C86.7957 5.78797 74.0537 0.5 60.5 0.5C46.9463 0.5 34.2043 5.78797 24.6209 15.3894C18.0573 21.9655 13.5148 30.0261 11.303 38.8152H6.95703C3.39664 38.8154 0.5 41.7158 0.5 45.2811V57.3828C0.5 60.9481 3.39664 63.8487 6.95703 63.8487H11.303C13.5146 72.6378 18.0573 80.6984 24.6209 87.2745C25.3869 88.0419 26.1751 88.7785 26.9799 89.4901C14.5053 96.8607 5.65063 106.455 0.645078 118.04C0.150781 119.184 1.01867 120.5 2.26203 120.5H12.7058C13.6787 120.5 14.4671 119.712 14.4671 118.739C14.4671 117.766 13.6787 116.977 12.7058 116.977H5.01945C10.0428 106.854 18.3938 98.4219 29.8855 91.8751C38.6534 98.5489 49.2985 102.164 60.5002 102.164C61.4731 102.164 62.2616 101.375 62.2616 100.403C62.2616 99.4299 61.4731 98.6413 60.5002 98.6413C34.4649 98.6413 13.2837 77.4184 13.2837 51.3317C13.2837 25.2451 34.4647 4.02242 60.5 4.02242C86.5353 4.02242 107.716 25.2453 107.716 51.332C107.716 62.7847 103.579 73.8355 96.0671 82.4488C88.6264 90.98 78.398 96.5595 67.2662 98.1596C66.3034 98.2979 65.6352 99.1906 65.7734 100.153C65.9117 101.116 66.8045 101.784 67.7675 101.646C76.2847 100.422 84.3076 97.0299 91.1087 91.8718C102.603 98.4191 110.956 106.852 115.981 116.978H94.4033V111.66C94.4033 108.745 92.0319 106.373 89.1167 106.373H58.2144C55.2997 106.373 52.928 108.745 52.928 111.66V116.978H47.5039V111.66C47.5039 108.745 45.1325 106.373 42.2176 106.373H31.883C28.9681 106.373 26.5965 108.745 26.5965 111.66V116.978H19.7506C18.7777 116.978 17.9893 117.766 17.9893 118.739C17.9893 119.712 18.7777 120.5 19.7506 120.5H118.738C119.981 120.5 120.849 119.184 120.355 118.04C115.349 106.455 106.494 96.8609 94.0201 89.4903C95.6802 88.0262 97.2519 86.4493 98.7216 84.7641ZM110.45 42.3378H114.043C115.661 42.3378 116.978 43.658 116.978 45.2811V57.3828C116.978 59.0059 115.661 60.3263 114.043 60.3263H110.439C110.967 57.3763 111.239 54.3673 111.239 51.3322C111.239 48.2839 110.971 45.2773 110.45 42.3378ZM10.5502 60.3261H6.95703C5.33891 60.3261 4.02242 59.0056 4.02242 57.3826V45.2811C4.02242 43.658 5.33867 42.3378 6.95703 42.3378H10.5502C10.0292 45.2773 9.76109 48.2839 9.76109 51.332C9.76109 54.38 10.0292 57.3866 10.5502 60.3261ZM56.4505 111.66C56.4505 110.687 57.2417 109.896 58.2141 109.896H89.1167C90.0894 109.896 90.8806 110.687 90.8806 111.66V116.978H56.4505V111.66ZM30.1191 111.66C30.1191 110.687 30.9106 109.896 31.883 109.896H42.2176C43.1902 109.896 43.9813 110.687 43.9813 111.66V116.978H30.1189L30.1191 111.66Z" fill="#A6A6A6"/>
<path d="M71.6251 49.5C72.6606 49.5 73.5001 48.6605 73.5001 47.625C73.5001 46.5895 72.6606 45.75 71.6251 45.75C70.5896 45.75 69.7501 46.5895 69.7501 47.625C69.7501 48.6605 70.5896 49.5 71.6251 49.5Z" fill="#A6A6A6"/>
<path d="M49.1251 49.5C50.1606 49.5 51.0001 48.6605 51.0001 47.625C51.0001 46.5895 50.1606 45.75 49.1251 45.75C48.0895 45.75 47.2501 46.5895 47.2501 47.625C47.2501 48.6605 48.0895 49.5 49.1251 49.5Z" fill="#A6A6A6"/>
<path d="M67.8751 64.5H64.1251C64.1251 66.5681 62.4432 68.25 60.3751 68.25C58.307 68.25 56.6251 66.5681 56.6251 64.5H52.8751C52.8751 68.6362 56.2388 72 60.3751 72C64.5113 72 67.8751 68.6362 67.8751 64.5Z" fill="#A6A6A6"/>
<path fill-rule="evenodd" clip-rule="evenodd" d="M71.6251 49.5C72.6606 49.5 73.5001 48.6605 73.5001 47.625C73.5001 46.5895 72.6606 45.75 71.6251 45.75C70.5896 45.75 69.7501 46.5895 69.7501 47.625C69.7501 48.6605 70.5896 49.5 71.6251 49.5ZM49.1251 49.5C50.1606 49.5 51.0001 48.6605 51.0001 47.625C51.0001 46.5895 50.1606 45.75 49.1251 45.75C48.0895 45.75 47.2501 46.5895 47.2501 47.625C47.2501 48.6605 48.0895 49.5 49.1251 49.5ZM64.1251 64.5H67.8751C67.8751 68.6362 64.5113 72 60.3751 72C56.2388 72 52.8751 68.6362 52.8751 64.5H56.6251C56.6251 66.5681 58.307 68.25 60.3751 68.25C62.4432 68.25 64.1251 66.5681 64.1251 64.5Z" fill="#A6A6A6"/>
<path fill-rule="evenodd" clip-rule="evenodd" d="M73.5001 47.625C73.5001 48.6605 72.6606 49.5 71.6251 49.5C70.5896 49.5 69.7501 48.6605 69.7501 47.625C69.7501 46.5895 70.5896 45.75 71.6251 45.75C72.6606 45.75 73.5001 46.5895 73.5001 47.625ZM51.0001 47.625C51.0001 48.6605 50.1606 49.5 49.1251 49.5C48.0895 49.5 47.2501 48.6605 47.2501 47.625C47.2501 46.5895 48.0895 45.75 49.1251 45.75C50.1606 45.75 51.0001 46.5895 51.0001 47.625ZM67.8751 64.5H64.1251C64.1251 66.5681 62.4432 68.25 60.3751 68.25C58.307 68.25 56.6251 66.5681 56.6251 64.5H52.8751C52.8751 68.6362 56.2388 72 60.3751 72C64.5113 72 67.8751 68.6362 67.8751 64.5Z" fill="#A6A6A6"/>
<path fill-rule="evenodd" clip-rule="evenodd" d="M65.9433 80.9944L69.6277 78.7425C75.3971 74.7562 79.8033 69.1313 82.3008 62.625H82.7527C87.9221 62.625 92.1277 58.4194 92.1277 53.25L88.3777 45.7987C87.2827 44.97 86.0208 44.3494 84.6277 44.0662V40.125L80.8777 40V50.1581C80.8777 63.3262 72.6164 74.9963 60.2527 79.3931C47.8889 74.9963 39.6277 63.3262 39.6277 50.1581V40.125H35.8777V44.0644C34.4846 44.3494 33.2227 44.9681 32.1277 45.7969L28.877 53.25C28.877 58.4194 32.5833 62.625 37.7527 62.625H38.2046C40.7021 69.1331 45.1083 74.7562 50.8777 78.7425L54.5602 80.9906C56.1802 81.8363 57.8846 82.5619 59.6602 83.1525L60.2527 83.3512L60.8452 83.1544C62.6208 82.5619 64.3233 81.8381 65.9433 80.9944ZM84.6277 50.1581C84.6277 53.1244 84.2396 56.0175 83.529 58.7962C86.2608 58.4137 88.3777 56.085 88.3777 53.2519C88.3777 50.8106 86.8046 48.7481 84.6277 47.9719V50.1581ZM35.8777 47.97C33.7008 48.7463 32.1277 50.8088 32.1277 53.25C32.1277 56.085 34.2446 58.4137 36.9764 58.7962C36.2658 56.0175 35.8777 53.1225 35.8777 50.1562V47.97Z" fill="#A6A6A6"/>
</g>
<defs>
<clipPath id="clip0">
<rect width="120" height="120" fill="white" transform="translate(0.5 0.5)"/>
</clipPath>
</defs>
</svg>
