<svg width="102" height="117" viewBox="0 0 102 117" fill="none" xmlns="http://www.w3.org/2000/svg">
<path d="M62.1499 43.5C63.1854 43.5 64.0249 42.6605 64.0249 41.625C64.0249 40.5895 63.1854 39.75 62.1499 39.75C61.1144 39.75 60.2749 40.5895 60.2749 41.625C60.2749 42.6605 61.1144 43.5 62.1499 43.5Z" fill="#A6A6A6"/>
<path d="M39.6499 43.5C40.6854 43.5 41.5249 42.6605 41.5249 41.625C41.5249 40.5895 40.6854 39.75 39.6499 39.75C38.6144 39.75 37.7749 40.5895 37.7749 41.625C37.7749 42.6605 38.6144 43.5 39.6499 43.5Z" fill="#A6A6A6"/>
<path d="M58.3999 58.5H54.6499C54.6499 60.5681 52.968 62.25 50.8999 62.25C48.8318 62.25 47.1499 60.5681 47.1499 58.5H43.3999C43.3999 62.6362 46.7637 66 50.8999 66C55.0362 66 58.3999 62.6362 58.3999 58.5Z" fill="#A6A6A6"/>
<path d="M83.0055 87.165L63.7699 79.2956C61.6474 78.4275 60.2749 76.3837 60.2749 74.0887V72.7425C66.0443 68.7562 70.4505 63.1312 72.948 56.625H73.3999C78.5693 56.625 82.7749 52.4194 82.7749 47.25V34.125C84.843 34.125 86.5249 32.4431 86.5249 30.375V26.625C86.5249 24.5569 84.843 22.875 82.7749 22.875H81.3443C77.2568 9.5625 64.9586 0.375 50.8999 0.375C36.8412 0.375 24.543 9.5625 20.4555 22.875H19.0249C16.9568 22.875 15.2749 24.5569 15.2749 26.625V30.375C15.2749 32.4431 16.9568 34.125 19.0249 34.125V47.25C19.0249 52.4194 23.2305 56.625 28.3999 56.625H28.8518C31.3493 63.1331 35.7555 68.7562 41.5249 72.7425V74.0887C41.5249 76.3837 40.1524 78.4256 38.0299 79.2937L18.7943 87.1631C7.54428 91.7681 0.274902 102.596 0.274902 114.75V116.625H101.525V114.75C101.525 102.596 94.2555 91.7681 83.0055 87.165ZM22.7749 89.5894L30.2749 86.5219V101.625H22.7749V89.5894ZM34.0249 85.8506L48.3668 101.625H34.0249V85.8506ZM53.433 101.625L67.7749 85.8506V101.625H53.433ZM71.5249 86.52L79.0249 89.5875V101.625H71.5249V86.52ZM74.1762 52.7962C74.8868 50.0175 75.2749 47.1244 75.2749 44.1581V41.97C77.4518 42.7463 79.0249 44.8088 79.0249 47.25C79.0249 50.085 76.908 52.4137 74.1762 52.7962ZM79.0249 39.7987C77.9299 38.97 76.668 38.3494 75.2749 38.0662V34.125H79.0249V39.7987ZM55.9493 4.59L53.7612 13.1512C53.4274 14.4619 52.2518 15.375 50.8999 15.375C49.548 15.375 48.3724 14.4619 48.0387 13.1531L45.8505 4.59188C47.4949 4.29188 49.1805 4.125 50.8999 4.125C52.6193 4.125 54.3049 4.29187 55.9493 4.59ZM42.2149 5.5125L44.4049 14.0813C45.1624 17.0513 47.8343 19.125 50.8999 19.125C53.9655 19.125 56.6374 17.0513 57.3949 14.0813L59.5849 5.5125C67.8012 8.17688 74.4818 14.52 77.4237 22.875H69.6499V19.125H65.8999V22.875H62.1499V19.125H58.3999V22.875H43.3999V19.125H39.6499V22.875H35.8999V19.125H32.1499V22.875H24.3762C27.318 14.52 33.9986 8.17688 42.2149 5.5125ZM19.0249 26.625H82.7749L82.7768 30.375H19.0249V26.625ZM26.5249 34.125V38.0644C25.1318 38.3494 23.8699 38.9681 22.7749 39.7969V34.125H26.5249ZM22.7749 47.25C22.7749 44.8088 24.348 42.7463 26.5249 41.97V44.1581C26.5249 47.1244 26.913 50.0175 27.6237 52.7962C24.8918 52.4137 22.7749 50.085 22.7749 47.25ZM30.2749 44.1581V34.125H71.5249V44.1581C71.5249 57.3262 63.2637 68.9963 50.8999 73.3913C38.5362 68.9963 30.2749 57.3281 30.2749 44.1581ZM50.3074 77.1525L50.8999 77.3512L51.4924 77.1544C53.268 76.5619 54.9705 75.8381 56.5905 74.9944C56.7818 76.9931 57.5843 78.84 58.8724 80.2969C57.183 83.0344 54.1774 84.75 50.8999 84.75C47.6224 84.75 44.6168 83.0344 42.9255 80.295C44.2155 78.8381 45.0162 76.9912 45.2074 74.9925C46.8274 75.8363 48.5318 76.5619 50.3074 77.1525ZM39.4511 82.7663C39.6124 82.7006 39.7568 82.6106 39.9124 82.5356C42.3105 86.2106 46.4224 88.5 50.8999 88.5C55.3774 88.5 59.4893 86.2106 61.8874 82.5356C62.043 82.6106 62.1893 82.7006 62.3505 82.7663L64.653 83.7094L50.8999 98.8388L37.1468 83.7094L39.4511 82.7663ZM4.09053 112.875C4.75803 103.453 10.4393 95.1881 19.0249 91.1719V112.875H4.09053ZM22.7749 112.875V105.375H79.0249V112.875H22.7749ZM82.7749 112.875V91.1719C91.3605 95.1881 97.0418 103.453 97.7093 112.875H82.7749Z" fill="#A6A6A6"/>
</svg>
