<svg width="102" height="117" viewBox="0 0 102 117" fill="none" xmlns="http://www.w3.org/2000/svg">
<path d="M62.1499 49.1251C63.1854 49.1251 64.0249 48.2856 64.0249 47.2501C64.0249 46.2145 63.1854 45.3751 62.1499 45.3751C61.1144 45.3751 60.2749 46.2145 60.2749 47.2501C60.2749 48.2856 61.1144 49.1251 62.1499 49.1251Z" fill="#A6A6A6"/>
<path d="M39.6499 49.1251C40.6854 49.1251 41.5249 48.2856 41.5249 47.2501C41.5249 46.2145 40.6854 45.3751 39.6499 45.3751C38.6144 45.3751 37.7749 46.2145 37.7749 47.2501C37.7749 48.2856 38.6144 49.1251 39.6499 49.1251Z" fill="#A6A6A6"/>
<path d="M58.3999 58.5001H54.6499C54.6499 60.5682 52.968 62.2501 50.8999 62.2501C48.8318 62.2501 47.1499 60.5682 47.1499 58.5001H43.3999C43.3999 62.6363 46.7637 66.0001 50.8999 66.0001C55.0362 66.0001 58.3999 62.6363 58.3999 58.5001Z" fill="#A6A6A6"/>
<path d="M49.0249 105.375H52.7749V109.125H49.0249V105.375Z" fill="#A6A6A6"/>
<path d="M49.0249 97.8751H52.7749V101.625H49.0249V97.8751Z" fill="#A6A6A6"/>
<path d="M64.0249 105.375H75.2749V109.125H64.0249V105.375Z" fill="#A6A6A6"/>
<path d="M89.8718 91.1194C91.2462 90.0938 92.1499 88.4682 92.1499 86.625V82.875C92.1499 79.7738 89.6262 77.25 86.5249 77.25H61.2687C60.633 76.32 60.2749 75.2288 60.2749 74.0888V72.7425C66.0443 68.7563 70.4505 63.1313 72.948 56.625H73.3999C78.5693 56.625 82.7749 52.4194 82.7749 47.25V33.78C84.9518 33.0038 86.5249 30.9413 86.5249 28.5C86.5249 25.3988 84.0012 22.875 80.8999 22.875H80.6543L81.4793 21.6375C82.3249 20.3625 82.773 18.8832 82.773 17.355C82.773 14.2632 80.9374 11.4769 78.093 10.2582L58.833 2.00254C53.7912 -0.157461 48.0087 -0.159336 42.9649 2.00254L23.703 10.2582C20.8605 11.4769 19.0249 14.2632 19.0249 17.355C19.0249 18.8813 19.473 20.3625 20.3205 21.6375L21.1455 22.875H20.8999C17.7987 22.875 15.2749 25.3988 15.2749 28.5C15.2749 30.9413 16.848 33.0038 19.0249 33.78V47.25C19.0249 52.4194 23.2305 56.625 28.3999 56.625H28.8518C31.3493 63.1332 35.7555 68.7563 41.5249 72.7425V74.0888C41.5249 75.2269 41.1668 76.3182 40.5312 77.25H15.2749C12.1737 77.25 9.6499 79.7738 9.6499 82.875V86.625C9.6499 88.4682 10.5537 90.0938 11.928 91.1194C4.6549 96.7069 0.274902 105.418 0.274902 114.75V116.625H101.525V114.75C101.525 105.42 97.1449 96.7069 89.8718 91.1194ZM88.3999 82.875V86.625C88.3999 87.6582 87.5599 88.5 86.5249 88.5H80.8999V81H86.5249C87.5599 81 88.3999 81.8419 88.3999 82.875ZM73.3999 88.5V81H77.1499V88.5H73.3999ZM62.1499 81H69.6499V88.5H64.0249C62.9899 88.5 62.1499 87.6582 62.1499 86.625V81ZM41.748 90.6C42.8112 89.535 43.3943 88.1213 43.3924 86.6213L43.3962 83.6475L48.123 88.3744L41.058 94.2619L40.6774 91.4213C41.0599 91.1869 41.4237 90.9244 41.748 90.6ZM50.8999 90.9413L56.5249 95.6288V112.875H45.2749V95.6288L50.8999 90.9413ZM53.6768 88.3744L58.3999 83.6513V86.625C58.3999 88.6613 59.4987 90.4313 61.1224 91.4194L60.7418 94.2619L53.6768 88.3744ZM25.9399 34.125H75.8599C69.528 38.9682 61.8461 41.625 53.7405 41.625H48.0612C39.9537 41.625 32.2718 38.9682 25.9399 34.125ZM25.4205 38.4057C24.4587 38.7319 23.5699 39.1969 22.7749 39.7988V36.4425C23.6318 37.1344 24.5168 37.7888 25.4205 38.4057ZM79.0249 36.4407V39.7969C78.2299 39.195 77.3412 38.73 76.3793 38.4057C77.283 37.7888 78.168 37.1344 79.0249 36.4407ZM74.1762 52.7963C74.8868 50.0175 75.2749 47.1244 75.2749 44.1582V41.97C77.4518 42.7463 79.0249 44.8088 79.0249 47.25C79.0249 50.085 76.908 52.4138 74.1762 52.7963ZM23.4424 19.5582C23.0055 18.9038 22.7749 18.1407 22.7749 17.355C22.7749 15.765 23.7199 14.3307 25.1805 13.7044L44.4405 5.45066C48.5449 3.69191 53.2512 3.69191 57.3574 5.45066L76.6155 13.7044C78.0799 14.3307 79.0249 15.765 79.0249 17.355C79.0249 18.1407 78.7943 18.9038 78.3593 19.5582L76.1468 22.875H57.3405C59.1687 20.7863 60.2749 18.0825 60.2749 15.1444V12.3413L50.8999 7.65379L41.5249 12.3413V15.1444C41.5249 18.0825 42.6312 20.7863 44.4593 22.875H25.653L23.4424 19.5582ZM45.2749 15.1444V14.6588L50.8999 11.8463L56.5249 14.6588V15.1444C56.5249 18.675 54.2337 21.7594 50.8999 22.8019C47.5662 21.7594 45.2749 18.675 45.2749 15.1444ZM20.8999 26.625H50.6693L50.8999 26.6832L51.1305 26.625H80.8999C81.9349 26.625 82.7749 27.4669 82.7749 28.5C82.7749 29.5332 81.9349 30.375 80.8999 30.375H20.8999C19.8649 30.375 19.0249 29.5332 19.0249 28.5C19.0249 27.4669 19.8649 26.625 20.8999 26.625ZM22.7749 47.25C22.7749 44.8088 24.348 42.7463 26.5249 41.97V44.1582C26.5249 47.1244 26.913 50.0175 27.6237 52.7963C24.8918 52.4138 22.7749 50.085 22.7749 47.25ZM30.2749 44.1582V41.2125C35.7424 43.9107 41.7837 45.375 48.0593 45.375H53.7387C60.0162 45.375 66.0555 43.9107 71.523 41.2125V44.1582C71.523 57.3263 63.2618 68.9963 50.898 73.3913C38.5362 68.9963 30.2749 57.3263 30.2749 44.1582ZM50.3074 77.1544L50.8999 77.3513L51.4924 77.1544C53.2737 76.56 54.9818 75.8325 56.6074 74.985C56.7405 76.3707 57.1493 77.7038 57.858 78.8907L50.8999 85.8488L43.9418 78.8907C44.6524 77.7038 45.0593 76.3688 45.1924 74.985C46.818 75.8325 48.5262 76.56 50.3074 77.1544ZM39.6424 86.6232C39.6424 87.1257 39.4474 87.5963 39.0949 87.9507C38.7405 88.305 38.2699 88.5 37.7674 88.5H32.1499V81H39.648L39.6424 86.6232ZM24.6499 88.5V81H28.3999V88.5H24.6499ZM13.3999 82.875C13.3999 81.8419 14.2399 81 15.2749 81H20.8999V88.5H15.2749C14.2399 88.5 13.3999 87.6582 13.3999 86.625V82.875ZM16.9905 92.25H37.0062L38.2437 101.488L41.5249 98.7525V112.875H35.2755C36.8487 111.285 37.7749 109.134 37.7749 106.808V104.216L32.1499 101.404L26.5249 104.216V106.808C26.5249 109.134 27.4512 111.285 29.0243 112.875H22.7749V101.625H19.0249V112.875H4.0924C4.70928 104.325 9.53178 96.585 16.9905 92.25ZM30.2749 106.808V106.534L32.1499 105.596L34.0249 106.534V106.808C34.0249 108.341 33.3255 109.749 32.1499 110.668C30.9743 109.749 30.2749 108.343 30.2749 106.808ZM82.7749 112.875V101.625H79.0249V112.875H60.2749V98.7525L63.558 101.488L64.7955 92.25H84.8111C92.268 96.5869 97.0905 104.325 97.7074 112.875H82.7749Z" fill="#A6A6A6"/>
</svg>
