<svg width="102" height="117" viewBox="0 0 102 117" fill="none" xmlns="http://www.w3.org/2000/svg">
<path d="M58.3999 58.5H54.6499C54.6499 60.5681 52.968 62.25 50.8999 62.25C48.8318 62.25 47.1499 60.5681 47.1499 58.5H43.3999C43.3999 62.6362 46.7637 66 50.8999 66C55.0362 66 58.3999 62.6362 58.3999 58.5Z" fill="#A6A6A6"/>
<path d="M83.0055 87.1669L63.7699 79.2956C61.6455 78.4275 60.2749 76.3837 60.2749 74.0887V72.7425C66.0443 68.7562 70.4505 63.1312 72.948 56.625H73.3999C78.5693 56.625 82.7749 52.4194 82.7749 47.25V23.0606C82.7749 16.8263 78.4736 11.3888 72.4661 9.91313L71.4293 8.87812C65.9468 3.39562 58.6568 0.375 50.8999 0.375H48.0593C32.0487 0.375 19.0249 13.4006 19.0249 29.4094V47.25C19.0249 52.4194 23.2305 56.625 28.3999 56.625H28.8518C31.3493 63.1331 35.7555 68.7562 41.5249 72.7425V74.0887C41.5249 76.3837 40.1543 78.4256 38.0299 79.2956L18.7943 87.165C7.54428 91.7681 0.274902 102.594 0.274902 114.75V116.625H101.525V114.75C101.525 102.594 94.2555 91.7681 83.0055 87.1669ZM73.4787 96.2869L57.4343 109.924L70.0662 85.9238L74.7762 87.8512L73.4787 96.2869ZM72.6068 101.946L71.4011 109.777L74.4986 112.875H59.7499L72.6068 101.946ZM79.0249 112.099L75.3968 108.471L78.3443 89.31L79.7955 89.9044L82.6511 108.471L79.0249 112.099ZM52.7749 36V39.75H49.0249V36H30.2749V33.7144L32.2868 33.2119C35.0149 32.5294 37.3568 30.8381 38.8624 28.5H62.9374C64.443 30.8381 66.7849 32.5294 69.513 33.2119L71.5249 33.7144V36H52.7749ZM67.7749 39.75V43.5C67.7749 45.5681 66.093 47.25 64.0249 47.25H60.2749C58.2068 47.25 56.5249 45.5681 56.5249 43.5V39.75H67.7749ZM45.2749 39.75V43.5C45.2749 45.5681 43.593 47.25 41.5249 47.25H37.7749C35.7068 47.25 34.0249 45.5681 34.0249 43.5V39.75H45.2749ZM74.1762 52.7962C74.8868 50.0175 75.2749 47.1244 75.2749 44.1581V41.97C77.4518 42.7463 79.0249 44.8088 79.0249 47.25C79.0249 50.085 76.908 52.4137 74.1762 52.7962ZM48.0593 4.125H50.8999C57.6555 4.125 64.0043 6.75563 68.778 11.5312L70.6005 13.3519L71.1574 13.4625C75.7155 14.3756 79.0249 18.4125 79.0249 23.0606V39.7969C77.9299 38.9681 76.668 38.3475 75.2749 38.0644V30.7856L70.4205 29.5725C68.3674 29.0606 66.648 27.6787 65.7012 25.785L65.1837 24.75H36.6162L36.0987 25.7869C35.1518 27.6806 33.4324 29.0606 31.3793 29.5744L26.5249 30.7856V38.0644C25.1318 38.3494 23.8699 38.9681 22.7749 39.7969V29.4094C22.7749 15.4669 34.1187 4.125 48.0593 4.125ZM22.7749 47.25C22.7749 44.8088 24.348 42.7463 26.5249 41.97V44.1581C26.5249 47.1244 26.913 50.0175 27.6237 52.7962C24.8918 52.4137 22.7749 50.085 22.7749 47.25ZM30.2749 44.1581V43.5C30.2749 47.6362 33.6387 51 37.7749 51H41.5249C45.6612 51 49.0249 47.6362 49.0249 43.5H52.7749C52.7749 47.6362 56.1387 51 60.2749 51H64.0249C68.1612 51 71.5249 47.6362 71.5249 43.5V44.1581C71.5249 57.3262 63.2637 68.9963 50.8999 73.3913C38.5362 68.9963 30.2749 57.3262 30.2749 44.1581ZM50.3074 77.1544L50.8999 77.3512L51.4924 77.1544C53.268 76.5619 54.9705 75.8381 56.5905 74.9925C56.7687 76.8581 57.4887 78.5812 58.6343 79.9894L50.8999 87.7237L43.1655 79.9894C44.3093 78.5812 45.0293 76.86 45.2074 74.9944C46.8274 75.8363 48.5318 76.5619 50.3074 77.1544ZM39.4511 82.7663C39.7286 82.6519 39.9837 82.5075 40.2443 82.3706L50.8999 93.0263L61.5574 82.3706C61.818 82.5075 62.073 82.6537 62.3505 82.7663L66.5805 84.4969L51.6424 112.875H50.1555L35.2193 84.4969L39.4511 82.7663ZM44.3655 109.924L21.1999 90.2325L31.7337 85.9238L44.3655 109.924ZM17.4574 91.9706L42.0499 112.875H22.7749V101.625H19.0249V112.875H4.09053C4.71865 104.04 9.7549 96.2231 17.4574 91.9706ZM83.5512 112.875L86.6468 109.779L83.868 91.7175C91.8387 95.9062 97.068 103.86 97.7074 112.875H83.5512Z" fill="#A6A6A6"/>
<path d="M33.0332 21.9375L29.7895 20.0587C29.0432 21.3487 28.4114 22.7175 27.9145 24.1237L31.4488 25.3744C31.8688 24.1856 32.4014 23.0306 33.0332 21.9375Z" fill="#A6A6A6"/>
<path d="M50.8997 11.625V7.875C43.9753 7.875 37.3528 10.8375 32.7328 15.9994L35.5266 18.5006C39.4378 14.13 45.0403 11.625 50.8997 11.625Z" fill="#A6A6A6"/>
</svg>
