<svg width="103" height="117" viewBox="0 0 103 117" fill="none" xmlns="http://www.w3.org/2000/svg">
<path d="M62.75 49.125C63.7855 49.125 64.625 48.2855 64.625 47.25C64.625 46.2145 63.7855 45.375 62.75 45.375C61.7145 45.375 60.875 46.2145 60.875 47.25C60.875 48.2855 61.7145 49.125 62.75 49.125Z" fill="#A6A6A6"/>
<path d="M40.25 49.125C41.2855 49.125 42.125 48.2855 42.125 47.25C42.125 46.2145 41.2855 45.375 40.25 45.375C39.2145 45.375 38.375 46.2145 38.375 47.25C38.375 48.2855 39.2145 49.125 40.25 49.125Z" fill="#A6A6A6"/>
<path d="M59 58.5H55.25C55.25 60.5681 53.5681 62.25 51.5 62.25C49.4319 62.25 47.75 60.5681 47.75 58.5H44C44 62.6362 47.3638 66 51.5 66C55.6362 66 59 62.6362 59 58.5Z" fill="#A6A6A6"/>
<path d="M83.6056 87.1669L64.37 79.2956C62.2456 78.4275 60.875 76.3837 60.875 74.0887V72.7425C66.6444 68.7562 71.0506 63.1312 73.5481 56.625H74C79.1694 56.625 83.375 52.4194 83.375 47.25V33.78C85.5519 33.0037 87.125 30.9412 87.125 28.5C87.125 25.5562 84.8431 23.16 81.9594 22.9219C77.885 9.58313 65.5756 0.375 51.5 0.375C37.4206 0.375 25.115 9.58125 21.0425 22.9219C18.1569 23.1581 15.875 25.5544 15.875 28.5C15.875 30.9412 17.4481 33.0037 19.625 33.78V47.25C19.625 52.4194 23.8306 56.625 29 56.625H29.4519C31.9494 63.1331 36.3556 68.7562 42.125 72.7425V74.0887C42.125 76.3837 40.7544 78.4256 38.63 79.2956L19.3944 87.165C8.14437 91.7681 0.875 102.594 0.875 114.75V116.625H102.125V114.75C102.125 102.594 94.8556 91.7681 83.6056 87.1669ZM36.02 94.125L37.4975 97.875H22.8069L21.4175 94.125H36.02ZM21.4531 90.375L32.7275 85.7625L34.5425 90.375H21.4531ZM38.375 105.375H23.375V101.625H38.375V105.375ZM23.375 109.125H38.375V112.875H23.375V109.125ZM36.1981 84.3431L38.7931 83.2819C41.5081 87.6338 46.31 90.375 51.5 90.375C56.6919 90.375 61.4919 87.6338 64.2069 83.28L66.8019 84.3413L60.875 99.3938V112.875H42.125V99.3938L36.1981 84.3431ZM70.2725 85.7625L81.545 90.375H68.4575L70.2725 85.7625ZM79.625 105.375H64.625V101.625H79.625V105.375ZM64.625 109.125H79.625V112.875H64.625V109.125ZM80.195 97.875H65.5044L66.9819 94.125H81.5863L80.195 97.875ZM26.7894 38.1656C25.5294 38.4731 24.3781 39.0375 23.375 39.7969V34.9969C24.4513 36.135 25.58 37.2038 26.7894 38.1656ZM27.8375 34.125H75.1625C69.8131 38.9137 62.9 41.625 55.6044 41.625H47.3937C40.0981 41.625 33.1869 38.9137 27.8375 34.125ZM79.625 34.9987V39.7987C78.62 39.0394 77.4706 38.475 76.2106 38.1675C77.42 37.2038 78.5488 36.135 79.625 34.9987ZM74.7763 52.7962C75.4869 50.0175 75.875 47.1244 75.875 44.1581V41.97C78.0519 42.7463 79.625 44.8088 79.625 47.25C79.625 50.085 77.5081 52.4137 74.7763 52.7962ZM34.5931 9.77812L36.5375 19.4925L40.2144 18.7556L37.9794 7.5825C39.9613 6.49687 42.0819 5.64937 44.3019 5.0625L45.8881 19.3294L49.6156 18.915L47.9975 4.36313C49.1488 4.2225 50.315 4.125 51.5 4.125C52.685 4.125 53.8494 4.2225 55.0025 4.36687L53.3862 18.9188L57.1138 19.3331L58.6981 5.06625C60.9181 5.65313 63.0387 6.50063 65.0206 7.58813L62.7856 18.7594L66.4625 19.4963L68.405 9.78375C72.7475 13.0481 76.145 17.5519 78.0219 22.8787H24.9762C26.8531 17.5481 30.2506 13.0425 34.5931 9.77812ZM21.5 26.625H81.5C82.535 26.625 83.375 27.4669 83.375 28.5C83.375 29.5331 82.535 30.375 81.5 30.375H21.5C20.465 30.375 19.625 29.5331 19.625 28.5C19.625 27.4669 20.465 26.625 21.5 26.625ZM23.375 47.25C23.375 44.8088 24.9481 42.7463 27.125 41.97V44.1581C27.125 47.1244 27.5131 50.0175 28.2238 52.7962C25.4919 52.4137 23.375 50.085 23.375 47.25ZM30.875 44.1581V40.935C35.84 43.7962 41.5063 45.375 47.3956 45.375H55.6062C61.4956 45.375 67.16 43.7962 72.1269 40.935V44.1581C72.1269 57.3262 63.8656 68.9963 51.5019 73.3913C39.1362 68.9963 30.875 57.3262 30.875 44.1581ZM50.9075 77.1544L51.5 77.3512L52.0925 77.1544C53.8681 76.5619 55.5706 75.8381 57.1906 74.9925C57.4437 77.6381 58.7863 80.0025 60.8731 81.5662C58.8088 84.6825 55.2894 86.625 51.5 86.625C47.7106 86.625 44.1912 84.6825 42.1269 81.5662C44.2119 80.0025 45.5544 77.6363 45.8075 74.9925C47.4275 75.8363 49.1319 76.5619 50.9075 77.1544ZM16.8763 92.6644L19.625 100.086V112.875H4.69062C5.285 104.499 9.84313 97.0425 16.8763 92.6644ZM83.375 112.875V100.086L86.1237 92.6644C93.1569 97.0406 97.715 104.499 98.3094 112.875H83.375Z" fill="#A6A6A6"/>
<path d="M48.0179 110.034L51.2317 111.966L58.5629 99.75H52.9379L56.8567 93.2156L53.6429 91.2844L46.3117 103.5H51.9367L48.0179 110.034Z" fill="#A6A6A6"/>
</svg>
