<svg width="102" height="117" viewBox="0 0 102 117" fill="none" xmlns="http://www.w3.org/2000/svg">
<path d="M50.8999 109.125C54.0012 109.125 56.5249 106.601 56.5249 103.5C56.5249 100.399 54.0012 97.875 50.8999 97.875C47.7987 97.875 45.2749 100.399 45.2749 103.5C45.2749 106.601 47.7987 109.125 50.8999 109.125ZM50.8999 101.625C51.933 101.625 52.7749 102.465 52.7749 103.5C52.7749 104.535 51.933 105.375 50.8999 105.375C49.8668 105.375 49.0249 104.535 49.0249 103.5C49.0249 102.465 49.8668 101.625 50.8999 101.625Z" fill="#A6A6A6"/>
<path d="M83.0055 87.165L63.7699 79.2956C61.6474 78.4275 60.2749 76.3837 60.2749 74.0887V72.7425C66.0443 68.7562 70.4505 63.1312 72.948 56.625H73.3999C78.5693 56.625 82.7749 52.4194 82.7749 47.25V32.25C82.7749 29.6512 82.4449 27.075 81.8261 24.5756C82.413 23.5069 82.7749 22.3013 82.7749 21V17.25C82.7749 13.1138 79.4112 9.75 75.2749 9.75H73.4337C67.4149 3.71438 59.4574 0.375 50.8999 0.375C42.3424 0.375 34.3849 3.71438 28.3662 9.75H26.5249C22.3887 9.75 19.0249 13.1138 19.0249 17.25V21C19.0249 22.3013 19.3887 23.5069 19.9737 24.5756C19.3549 27.0788 19.0249 29.6531 19.0249 32.25V47.25C19.0249 52.4194 23.2305 56.625 28.3999 56.625H28.8518C31.3493 63.1331 35.7555 68.7562 41.5249 72.7425V74.0887C41.5249 76.3837 40.1524 78.4256 38.0299 79.2937L18.7943 87.1631C7.54428 91.7681 0.274902 102.596 0.274902 114.75V116.625H101.525V114.75C101.525 102.596 94.2555 91.7681 83.0055 87.165ZM60.2749 103.5C60.2749 108.669 56.0693 112.875 50.8999 112.875C45.7305 112.875 41.5249 108.669 41.5249 103.5C41.5249 98.3306 45.7305 94.125 50.8999 94.125C56.0693 94.125 60.2749 98.3306 60.2749 103.5ZM43.3999 90.375V84.6488L48.408 90.375H43.3999ZM53.3918 90.375L58.3999 84.6488V90.375H53.3918ZM26.5249 32.25V38.0644C25.1318 38.3494 23.8699 38.9681 22.7749 39.7969V32.25C22.7749 30.7087 22.9155 29.1769 23.163 27.6675C24.1793 28.1831 25.3099 28.5 26.5249 28.5H41.5249C45.6612 28.5 49.0249 25.1362 49.0249 21H52.7749C52.7749 24.8194 55.6549 27.945 59.3524 28.4062C49.4374 30.9469 39.258 32.25 28.953 32.25H26.5249ZM78.6368 27.6675C78.8843 29.1769 79.0249 30.7069 79.0249 32.25V39.7987C77.9299 38.97 76.668 38.3494 75.2749 38.0662V28.5C76.4899 28.5 77.6205 28.1831 78.6368 27.6675ZM74.1762 52.7962C74.8868 50.0175 75.2749 47.1244 75.2749 44.1581V41.9719C77.4518 42.7481 79.0249 44.8106 79.0249 47.2519C79.0249 50.085 76.908 52.4137 74.1762 52.7962ZM79.0249 17.25V21C79.0249 23.0681 77.343 24.75 75.2749 24.75H60.2749C58.2068 24.75 56.5249 23.0681 56.5249 21V17.25C56.5249 15.1819 58.2068 13.5 60.2749 13.5H75.2749C77.343 13.5 79.0249 15.1819 79.0249 17.25ZM50.8999 4.125C57.0837 4.125 62.9074 6.11438 67.7374 9.75H60.2749C56.1387 9.75 52.7749 13.1138 52.7749 17.25H49.0249C49.0249 13.1138 45.6612 9.75 41.5249 9.75H34.0643C38.8924 6.11438 44.7162 4.125 50.8999 4.125ZM22.7749 17.25C22.7749 15.1819 24.4568 13.5 26.5249 13.5H41.5249C43.593 13.5 45.2749 15.1819 45.2749 17.25V21C45.2749 23.0681 43.593 24.75 41.5249 24.75H26.5249C24.4568 24.75 22.7749 23.0681 22.7749 21V17.25ZM22.7749 47.25C22.7749 44.8088 24.348 42.7463 26.5249 41.97V44.1562C26.5249 47.1225 26.913 50.0175 27.6237 52.7962C24.8918 52.4137 22.7749 50.085 22.7749 47.25ZM30.2749 44.1581V35.9944C44.3768 35.85 58.2424 33.3713 71.5249 28.62V44.1581C71.5249 57.3262 63.2637 68.9963 50.8999 73.3931C38.5362 68.9963 30.2749 57.3262 30.2749 44.1581ZM50.3074 77.1525L50.8999 77.3512L51.4924 77.1544C53.268 76.5619 54.9705 75.8381 56.5905 74.9944C56.7405 76.56 57.2524 78.0375 58.098 79.3013L50.8999 87.5269L43.6999 79.2994C44.5437 78.0356 45.0574 76.5581 45.2074 74.9925C46.8274 75.8363 48.5318 76.5619 50.3074 77.1525ZM20.2137 90.6375L39.4511 82.7681C39.5205 82.74 39.5824 82.6987 39.6499 82.6687V90.375H35.8999C32.7987 90.375 30.2749 92.8988 30.2749 96V111C30.2749 111.66 30.4099 112.286 30.6199 112.875H22.7749V101.625H19.0249V112.875H4.09053C4.7899 103.022 10.9624 94.4212 20.2137 90.6375ZM35.8999 112.875C34.8668 112.875 34.0249 112.035 34.0249 111V96C34.0249 94.965 34.8668 94.125 35.8999 94.125H41.733C39.2937 96.51 37.7749 99.8288 37.7749 103.5C37.7749 107.171 39.2937 110.49 41.733 112.875H35.8999ZM60.0668 112.875C62.5061 110.49 64.0249 107.171 64.0249 103.5C64.0249 99.8288 62.5061 96.51 60.0668 94.125H65.8999C66.933 94.125 67.7749 94.965 67.7749 96V111C67.7749 112.035 66.933 112.875 65.8999 112.875H60.0668ZM82.7749 112.875V101.625H79.0249V112.875H71.1799C71.3899 112.286 71.5249 111.66 71.5249 111V96C71.5249 92.8988 69.0012 90.375 65.8999 90.375H62.1499V82.6669C62.2193 82.6969 62.2812 82.7381 62.3505 82.7663L81.5862 90.6356C90.8374 94.4212 97.0099 103.02 97.7093 112.873H82.7749V112.875Z" fill="#A6A6A6"/>
<path d="M62.1499 43.5C63.1854 43.5 64.0249 42.6605 64.0249 41.625C64.0249 40.5895 63.1854 39.75 62.1499 39.75C61.1144 39.75 60.2749 40.5895 60.2749 41.625C60.2749 42.6605 61.1144 43.5 62.1499 43.5Z" fill="#A6A6A6"/>
<path d="M39.6499 43.5C40.6854 43.5 41.5249 42.6605 41.5249 41.625C41.5249 40.5895 40.6854 39.75 39.6499 39.75C38.6144 39.75 37.7749 40.5895 37.7749 41.625C37.7749 42.6605 38.6144 43.5 39.6499 43.5Z" fill="#A6A6A6"/>
<path d="M58.3999 58.5H54.6499C54.6499 60.5681 52.968 62.25 50.8999 62.25C48.8318 62.25 47.1499 60.5681 47.1499 58.5H43.3999C43.3999 62.6362 46.7637 66 50.8999 66C55.0362 66 58.3999 62.6362 58.3999 58.5Z" fill="#A6A6A6"/>
</svg>
