<svg width="102" height="117" viewBox="0 0 102 117" fill="none" xmlns="http://www.w3.org/2000/svg">
<path d="M83.0055 87.165L63.7699 79.2956C61.6474 78.4275 60.2749 76.3837 60.2749 74.0887V72.7425C66.0443 68.7562 70.4505 63.1312 72.948 56.625H73.3999C78.5693 56.625 82.7749 52.4194 82.7749 47.25V27.8288C87.6236 25.4344 90.2749 21.7125 90.2749 17.25C90.2749 10.0144 83.1255 4.125 74.3374 4.125C71.6562 4.125 69.048 4.6725 66.7174 5.71875C62.8268 2.35313 57.0312 0.375 50.8999 0.375C44.7687 0.375 38.973 2.35313 35.0824 5.71875C32.7518 4.6725 30.1437 4.125 27.4624 4.125C18.6743 4.125 11.5249 10.0144 11.5249 17.25C11.5249 21.7125 14.1762 25.4325 19.0249 27.8288V47.25C19.0249 52.4194 23.2305 56.625 28.3999 56.625H28.8518C31.3493 63.1331 35.7555 68.7562 41.5249 72.7425V74.0887C41.5249 76.3837 40.1524 78.4256 38.0299 79.2937L18.7943 87.1631C7.54428 91.7681 0.274902 102.596 0.274902 114.75V116.625H101.525V114.75C101.525 102.596 94.2555 91.7681 83.0055 87.165ZM26.5249 38.0644C25.1318 38.3494 23.8699 38.9681 22.7749 39.7969V35.8125C23.6993 35.7188 24.993 35.5931 26.5249 35.4525V38.0644ZM22.7749 32.0456V28.3144C27.3368 27.8512 40.4055 26.625 50.8999 26.625C61.3905 26.625 74.4612 27.8512 79.0249 28.3144V32.0456C74.1012 31.5506 61.2893 30.375 50.8999 30.375C40.5105 30.375 27.6987 31.5506 22.7749 32.0456ZM79.0249 35.8144V39.7987C77.9299 38.97 76.668 38.3494 75.2749 38.0662V35.4562C76.8068 35.595 78.1005 35.7206 79.0249 35.8144ZM74.1762 52.7962C74.8868 50.0175 75.2749 47.1244 75.2749 44.1581V41.9719C77.4518 42.7481 79.0249 44.8106 79.0249 47.2519C79.0249 50.085 76.908 52.4137 74.1762 52.7962ZM15.2749 17.25C15.2749 12.0806 20.7424 7.875 27.4624 7.875C29.9993 7.875 32.4368 8.47687 34.5143 9.61875L35.763 10.305L36.7587 9.28687C39.9162 6.05437 45.2037 4.125 50.8999 4.125C56.5962 4.125 61.8837 6.05437 65.0412 9.28687L66.0368 10.305L67.2855 9.61875C69.363 8.47687 71.8005 7.875 74.3374 7.875C81.0574 7.875 86.5249 12.0806 86.5249 17.25C86.5249 21.1575 83.3899 23.4356 80.5849 24.705C77.733 24.4031 62.7443 22.875 50.8999 22.875C39.0555 22.875 24.0668 24.4031 21.2149 24.705C18.4099 23.4356 15.2749 21.1575 15.2749 17.25ZM22.7749 47.25C22.7749 44.8088 24.348 42.7463 26.5249 41.97V44.1562C26.5249 47.1225 26.913 50.0175 27.6237 52.7962C24.8918 52.4137 22.7749 50.085 22.7749 47.25ZM30.2749 44.1581V35.13C36.2262 34.6406 44.0955 34.125 50.8999 34.125C57.7024 34.125 65.5737 34.6406 71.5249 35.13V44.1581C71.5249 57.3262 63.2637 68.9963 50.8999 73.3931C38.5362 68.9963 30.2749 57.3262 30.2749 44.1581ZM50.3074 77.1525L50.8999 77.3512L51.4924 77.1544C53.268 76.5619 54.9705 75.8381 56.5905 74.9944C56.8005 77.1787 57.7493 79.1681 59.2511 80.6813L50.5118 86.5069L42.3949 80.8256C43.9812 79.2975 44.9899 77.25 45.2055 74.9963C46.8274 75.8363 48.5318 76.5619 50.3074 77.1525ZM20.2137 90.6375L38.9374 82.9781L47.1649 88.7381L37.7749 94.9969V112.875H22.7749V101.625H19.0249V112.875H4.09053C4.7899 103.022 10.9624 94.4212 20.2137 90.6375ZM82.7749 112.875V101.625H79.0249V112.875H41.5249V97.0031L62.6787 82.9013L81.5862 90.6375C90.8374 94.4231 97.0099 103.022 97.7093 112.875H82.7749Z" fill="#A6A6A6"/>
<path d="M62.1499 43.5C63.1854 43.5 64.0249 42.6605 64.0249 41.625C64.0249 40.5895 63.1854 39.75 62.1499 39.75C61.1144 39.75 60.2749 40.5895 60.2749 41.625C60.2749 42.6605 61.1144 43.5 62.1499 43.5Z" fill="#A6A6A6"/>
<path d="M39.6499 43.5C40.6854 43.5 41.5249 42.6605 41.5249 41.625C41.5249 40.5895 40.6854 39.75 39.6499 39.75C38.6144 39.75 37.7749 40.5895 37.7749 41.625C37.7749 42.6605 38.6144 43.5 39.6499 43.5Z" fill="#A6A6A6"/>
<path d="M58.3999 58.5H54.6499C54.6499 60.5681 52.968 62.25 50.8999 62.25C48.8318 62.25 47.1499 60.5681 47.1499 58.5H43.3999C43.3999 62.6362 46.7637 66 50.8999 66C55.0362 66 58.3999 62.6362 58.3999 58.5Z" fill="#A6A6A6"/>
<path d="M45.2749 105.375H49.0249V109.125H45.2749V105.375Z" fill="#A6A6A6"/>
<path d="M45.2749 97.875H49.0249V101.625H45.2749V97.875Z" fill="#A6A6A6"/>
<path d="M52.7749 97.875H56.5249V101.625H52.7749V97.875Z" fill="#A6A6A6"/>
<path d="M52.7749 105.375H56.5249V109.125H52.7749V105.375Z" fill="#A6A6A6"/>
<path d="M71.5249 97.875H64.0249C61.9568 97.875 60.2749 99.5569 60.2749 101.625V105.375C60.2749 107.443 61.9568 109.125 64.0249 109.125H71.5249C73.593 109.125 75.2749 107.443 75.2749 105.375V101.625C75.2749 99.5569 73.593 97.875 71.5249 97.875ZM71.5249 105.375H64.0249L64.023 101.625H71.5249V105.375Z" fill="#A6A6A6"/>
</svg>
