<svg width="102" height="117" viewBox="0 0 102 117" fill="none" xmlns="http://www.w3.org/2000/svg">
<path d="M62.1499 43.5C63.1854 43.5 64.0249 42.6605 64.0249 41.625C64.0249 40.5895 63.1854 39.75 62.1499 39.75C61.1144 39.75 60.2749 40.5895 60.2749 41.625C60.2749 42.6605 61.1144 43.5 62.1499 43.5Z" fill="#A6A6A6"/>
<path d="M39.6499 43.5C40.6854 43.5 41.5249 42.6605 41.5249 41.625C41.5249 40.5895 40.6854 39.75 39.6499 39.75C38.6144 39.75 37.7749 40.5895 37.7749 41.625C37.7749 42.6605 38.6144 43.5 39.6499 43.5Z" fill="#A6A6A6"/>
<path d="M58.3999 58.5H54.6499C54.6499 60.5681 52.968 62.25 50.8999 62.25C48.8318 62.25 47.1499 60.5681 47.1499 58.5H43.3999C43.3999 62.6362 46.7637 66 50.8999 66C55.0362 66 58.3999 62.6362 58.3999 58.5Z" fill="#A6A6A6"/>
<path d="M83.0055 87.165L72.9518 83.0513C71.5793 77.4675 67.0886 73.0969 61.4261 71.9325C66.6368 68.01 70.6174 62.6963 72.948 56.625H73.3999C78.5693 56.625 82.7749 52.4194 82.7749 47.25V33.78C84.9518 33.0037 86.5249 30.9412 86.5249 28.5C86.5249 26.0588 84.9518 23.9963 82.7749 23.22V23.0588C82.7749 16.7925 78.4305 11.3325 72.3743 9.89062L69.5168 7.5075C63.993 2.91 56.9955 0.375 49.8087 0.375C35.808 0.375 23.8324 9.59438 20.1593 22.95C17.4105 23.3175 15.2749 25.6519 15.2749 28.5C15.2749 30.9412 16.848 33.0037 19.0249 33.78V47.25C19.0249 52.4194 23.2305 56.625 28.3999 56.625H28.8518C31.1805 62.6963 35.163 68.01 40.3737 71.9325C34.7112 73.0969 30.2205 77.4675 28.848 83.0513L18.7943 87.165C7.54428 91.7662 0.274902 102.596 0.274902 114.75V116.625H101.525V114.75C101.525 102.596 94.2555 91.7662 83.0055 87.165ZM68.1912 81.1031L63.7699 79.2937C62.1199 78.6206 60.9349 77.2331 60.483 75.5756C63.7887 76.1981 66.5862 78.2681 68.1912 81.1031ZM69.6499 86.625V92.4C66.2337 92.8931 63.243 94.6969 61.2049 97.2937L66.0049 84.2644L69.603 85.7363C69.6274 86.0306 69.6499 86.325 69.6499 86.625ZM30.2749 112.875C25.1055 112.875 20.8999 108.669 20.8999 103.5C20.8999 98.3306 25.1055 94.125 30.2749 94.125C35.4443 94.125 39.6499 98.3306 39.6499 103.5C39.6499 108.669 35.4443 112.875 30.2749 112.875ZM32.1499 90.525V86.625C32.1499 86.325 32.1724 86.0306 32.1949 85.7363L35.7949 84.2625L39.4212 94.1063C37.4787 92.2144 34.9568 90.93 32.1499 90.525ZM60.6762 81.8494C61.1993 82.2 61.7487 82.5206 62.3487 82.7663L62.5324 82.8412L57.7212 95.8988L53.3337 90.4144L60.6762 81.8494ZM56.5924 74.9925C56.7387 76.5094 57.2299 77.9381 58.0286 79.1756L50.8999 87.495L43.7693 79.1775C44.5699 77.94 45.0612 76.5094 45.2074 74.9925C46.8274 75.8363 48.5299 76.5619 50.3055 77.1525L50.8999 77.3512L51.4924 77.1544C53.268 76.5619 54.9724 75.8363 56.5924 74.9925ZM41.1236 81.8494L48.4662 90.4163L44.0787 95.8988L39.2674 82.8412L39.4493 82.7663C40.0512 82.5206 40.6005 82.2 41.1236 81.8494ZM50.8999 93.3769L56.208 100.012L51.468 112.875H50.3337L45.5937 100.011L50.8999 93.3769ZM79.0249 34.125V39.7987C77.9299 38.97 76.668 38.3494 75.2749 38.0662V34.125H79.0249ZM74.1762 52.7962C74.8868 50.0175 75.2749 47.1244 75.2749 44.1581V41.9719C77.4518 42.7481 79.0249 44.8106 79.0249 47.2519C79.0249 50.0869 76.908 52.4137 74.1762 52.7962ZM80.8999 30.375H60.0855C60.2093 29.7694 60.2749 29.1413 60.2749 28.5C60.2749 27.8587 60.2093 27.2306 60.0855 26.625H80.8999C81.9349 26.625 82.7749 27.465 82.7749 28.5C82.7749 29.535 81.9349 30.375 80.8999 30.375ZM49.8087 4.125C56.1199 4.125 62.2662 6.35062 67.113 10.3912L70.6887 13.3706L71.1555 13.4644C75.6537 14.3644 78.9199 18.3056 79.008 22.8769H58.3512C56.6374 20.6138 53.9487 19.1269 50.8999 19.1269C47.8512 19.1269 45.1605 20.6138 43.4487 22.8769H24.0649C27.6162 11.7244 37.8874 4.125 49.8087 4.125ZM56.5249 28.5C56.5249 31.6012 54.0012 34.125 50.8999 34.125C47.7987 34.125 45.2749 31.6012 45.2749 28.5C45.2749 25.3988 47.7987 22.875 50.8999 22.875C54.0012 22.875 56.5249 25.3988 56.5249 28.5ZM20.8999 26.625H41.7143C41.5905 27.2306 41.5249 27.8587 41.5249 28.5C41.5249 29.1413 41.5905 29.7694 41.7143 30.375H20.8999C19.8649 30.375 19.0249 29.535 19.0249 28.5C19.0249 27.465 19.8649 26.625 20.8999 26.625ZM26.5249 38.0644C25.1318 38.3494 23.8699 38.9681 22.7749 39.7969V34.125H26.5249V38.0644ZM22.7749 47.25C22.7749 44.8088 24.348 42.7463 26.5249 41.97V44.1562C26.5249 47.1225 26.913 50.0175 27.6237 52.7962C24.8918 52.4137 22.7749 50.0869 22.7749 47.25ZM30.2749 44.1581V34.125H43.4487C45.1624 36.3881 47.8512 37.875 50.8999 37.875C53.9487 37.875 56.6393 36.3881 58.3512 34.125H71.5249V44.1581C71.5249 57.3262 63.2637 68.9963 50.8999 73.3931C38.5362 68.9963 30.2749 57.3262 30.2749 44.1581ZM41.3168 75.5756C40.8649 77.235 39.6799 78.6206 38.0299 79.2956L33.6087 81.105C35.2136 78.2681 38.0112 76.1981 41.3168 75.5756ZM4.09053 112.875C4.7899 103.022 10.9624 94.4212 20.2155 90.6375L28.3999 87.2887V90.525C22.0512 91.44 17.1499 96.9019 17.1499 103.5C17.1499 107.171 18.6687 110.49 21.108 112.875H4.09053ZM43.338 104.736L46.3362 112.875H39.4436C41.6036 110.762 43.038 107.914 43.338 104.736ZM55.4636 112.875L58.4262 104.833C58.4205 105.013 58.3999 105.191 58.3999 105.375V109.125H62.1499V105.375C62.1499 100.206 66.3555 96 71.5249 96C76.6943 96 80.8999 100.206 80.8999 105.375V109.125H84.6499V105.375C84.6499 98.7769 79.7486 93.315 73.3999 92.4V87.2887L81.5843 90.6375C90.8374 94.4231 97.0099 103.022 97.7093 112.875H55.4636Z" fill="#A6A6A6"/>
<path d="M30.2749 97.875C27.1737 97.875 24.6499 100.399 24.6499 103.5C24.6499 106.601 27.1737 109.125 30.2749 109.125C33.3762 109.125 35.8999 106.601 35.8999 103.5C35.8999 100.399 33.3762 97.875 30.2749 97.875ZM30.2749 105.375C29.2399 105.375 28.3999 104.535 28.3999 103.5C28.3999 102.465 29.2399 101.625 30.2749 101.625C31.3099 101.625 32.1499 102.465 32.1499 103.5C32.1499 104.535 31.3099 105.375 30.2749 105.375Z" fill="#A6A6A6"/>
<path d="M50.8999 30.375C51.9354 30.375 52.7749 29.5355 52.7749 28.5C52.7749 27.4645 51.9354 26.625 50.8999 26.625C49.8644 26.625 49.0249 27.4645 49.0249 28.5C49.0249 29.5355 49.8644 30.375 50.8999 30.375Z" fill="#A6A6A6"/>
</svg>
