<svg width="48" height="48" viewBox="0 0 48 48" fill="none" xmlns="http://www.w3.org/2000/svg">
<path d="M47 1V47H1V1L47 1Z" stroke="#A6A6A6"/>
<path d="M25.75 11C25.75 10.0335 24.9665 9.25 24 9.25C23.0335 9.25 22.25 10.0335 22.25 11H25.75ZM22.7626 37.2374C23.446 37.9209 24.554 37.9209 25.2374 37.2374L36.3744 26.1005C37.0578 25.4171 37.0578 24.309 36.3744 23.6256C35.691 22.9422 34.5829 22.9422 33.8995 23.6256L24 33.5251L14.1005 23.6256C13.4171 22.9422 12.309 22.9422 11.6256 23.6256C10.9422 24.309 10.9422 25.4171 11.6256 26.1005L22.7626 37.2374ZM22.25 11L22.25 36H25.75L25.75 11H22.25Z" fill="#A6A6A6"/>
</svg>
