<svg width="27" height="39" viewBox="0 0 27 39" fill="none" xmlns="http://www.w3.org/2000/svg">
<path d="M20.5495 15.9644C21.7249 12.7624 22.6445 10.1235 23.3073 8.03562C23.964 5.95378 24.2953 4.67154 24.2953 4.1961C24.2953 3.68945 24.1825 3.28964 23.964 3.01471C23.7455 2.73377 23.4453 2.5897 23.0515 2.5897C22.5581 2.5897 22.0442 2.9967 21.5508 3.81551C21.0381 4.62831 20.475 5.94777 19.8495 7.76068L17.2106 15.3833L20.5243 15.9644H20.5495ZM17.0413 23.0683C16.3205 23.0232 15.6025 22.9418 14.8898 22.8246C14.2261 22.7037 13.5735 22.5278 12.9389 22.2988C13.227 22.8558 13.4767 23.4177 13.6952 23.9808C13.9138 24.5379 14.095 25.0817 14.2391 25.6436C14.6581 25.1118 15.1024 24.6303 15.5706 24.1993C16.0264 23.7768 16.5159 23.3921 17.0341 23.0491L17.0413 23.0683ZM14.059 15.0639L11.2076 6.83502C10.4632 4.73397 9.89415 3.37729 9.48835 2.72056C9.08854 2.07704 8.65033 1.75768 8.17489 1.75768C7.8063 1.75768 7.50615 1.88854 7.27444 2.17669C7.04272 2.46483 6.93707 2.83342 6.93707 3.29565C6.93707 4.09645 7.23722 5.50355 7.84352 7.52296C8.45583 9.52436 9.38149 12.1501 10.6133 15.4145C10.7091 15.2259 10.8686 15.0775 11.0635 14.9955C11.2568 14.9199 11.5138 14.8706 11.8451 14.8706C11.9448 14.8706 12.1513 14.8826 12.4706 14.8826C12.7768 14.9199 13.3027 14.9511 14.0278 15.0267L14.059 15.0639ZM11.4705 27.8011C11.7707 27.8011 12.0456 27.657 12.2833 27.3881C12.5271 27.1 12.6591 26.813 12.6591 26.5069C12.6591 26.1695 12.4214 25.3879 11.94 24.1681C11.4364 22.9194 10.83 21.7146 10.1271 20.5663C9.6012 19.685 9.08254 19.0151 8.57589 18.5649C8.05723 18.1207 7.57579 17.8961 7.11836 17.8961C6.74978 17.8961 6.34277 18.1219 5.89255 18.5961C5.44232 19.0655 5.21661 19.4965 5.21661 19.8963C5.21661 20.3094 5.44232 20.9529 5.87934 21.7849C6.31756 22.6289 6.91066 23.5294 7.64302 24.4742C8.42461 25.5128 9.14978 26.3124 9.83772 26.8874C10.5257 27.4685 11.0695 27.7567 11.4693 27.7567L11.4705 27.8011ZM3.55378 27.1636C3.8035 27.4697 4.14807 27.902 4.58509 28.477C5.74247 30.0774 6.81701 30.8782 7.8051 30.8782C8.13284 30.8773 8.45047 30.7647 8.70555 30.5589C8.96849 30.3332 9.09935 30.1279 9.09935 29.8829C9.09935 29.614 8.92406 29.183 8.57349 28.5575C8.21691 27.932 7.73547 27.244 7.11596 26.4756C6.41601 25.5812 5.82771 24.9245 5.35828 24.5055C4.90205 24.0864 4.52026 23.8799 4.24532 23.8799C3.63902 23.8799 3.05673 24.2173 2.55128 24.874C2.03862 25.5116 1.78169 26.3124 1.78169 27.2128C1.78169 27.932 1.96898 28.7328 2.33877 29.626C2.70735 30.5073 3.22001 31.4017 3.90795 32.3022C4.927 33.6628 6.25607 34.7605 7.78469 35.5042C9.31666 36.2353 11.0299 36.6051 12.8872 36.6051C16.3138 36.6051 19.1964 35.3289 21.504 32.7656C23.8235 30.2023 24.9749 27.0003 24.9749 23.1416C24.9749 21.9602 24.8932 21.0153 24.718 20.3274C24.5427 19.6394 24.2557 19.1268 23.8547 18.8074C23.1356 18.1951 21.7225 17.6692 19.6466 17.1878C17.5028 16.7004 15.3103 16.4591 13.1118 16.4686C12.4862 16.4686 12.024 16.5815 11.7671 16.788C11.5102 16.9945 11.3853 17.3631 11.3853 17.8637C11.3853 19.0643 12.054 19.9336 13.3987 20.4714C14.7434 21.0153 16.9069 21.2842 19.9024 21.2842H20.9841C21.0972 21.2825 21.2092 21.3069 21.3112 21.3556C21.4133 21.4044 21.5027 21.4761 21.5724 21.5652C21.7165 21.7405 21.8161 22.0094 21.8605 22.3972C21.5604 22.6661 20.9541 22.9915 20.0164 23.3541C19.0727 23.7107 18.3656 24.0792 17.8721 24.4238C16.8473 25.1631 15.9817 26.1009 15.3269 27.1816C14.6893 28.2381 14.364 29.2454 14.364 30.1951C14.364 30.7702 14.5021 31.4773 14.777 32.2901C15.0519 33.109 15.196 33.6096 15.196 33.8161V33.9914L15.1456 34.2291C14.376 34.1859 13.7697 33.7285 13.3195 32.8724C12.8632 32.0224 12.6507 30.8842 12.6507 29.4579V29.2202C12.5067 29.3391 12.3698 29.4327 12.2317 29.4831C12.0948 29.5384 11.9483 29.5662 11.8007 29.5648C11.6446 29.5648 11.4885 29.5528 11.3385 29.5336C11.1817 29.5051 11.0273 29.4653 10.8762 29.4147C10.9195 29.602 10.9639 29.7965 10.9951 29.9778C11.0143 30.1711 11.0263 30.3152 11.0263 30.4088C11.0263 31.0595 10.7694 31.6286 10.2567 32.0908C9.75008 32.5471 9.13777 32.7788 8.43662 32.7788C7.32967 32.7788 6.1975 32.2349 5.05333 31.1592C3.90915 30.0834 3.34607 29.0149 3.34607 27.9824C3.34607 27.7951 3.36528 27.6138 3.4085 27.4697C3.4483 27.3229 3.52616 27.1891 3.63422 27.0819L3.55378 27.1636ZM22.45 16.3894C24.0324 16.6775 25.1514 17.3523 25.7949 18.3908C26.4516 19.4161 26.777 21.0489 26.777 23.2868C26.777 27.7267 25.4515 31.3405 22.7874 34.1607C20.1173 36.9749 16.7088 38.4 12.5631 38.4C10.9243 38.4 9.33587 38.0938 7.7979 37.5056C6.32038 36.949 4.96532 36.1102 3.8083 35.0359C2.54527 33.8725 1.58239 32.6539 0.962882 31.3585C0.31936 30.0582 0 28.7316 0 27.3881C0 25.8681 0.31936 24.6987 0.962882 23.8799C1.6004 23.0479 2.63892 22.486 4.05203 22.1859C3.77709 21.5604 3.58259 21.0477 3.47694 20.6167C3.34607 20.1857 3.28364 19.8663 3.28364 19.6406C3.28364 18.8398 3.69665 18.021 4.53467 17.2082C5.36668 16.3762 6.14827 15.9572 6.88544 15.9572C7.18559 15.9572 7.52296 16.0076 7.87954 16.1325C8.23011 16.2453 8.62992 16.4386 9.08014 16.6955C7.77989 12.9317 6.78579 9.97339 6.17829 7.89155C5.55278 5.7905 5.25263 4.37139 5.25263 3.57059C5.25263 2.47684 5.52156 1.6004 6.08464 0.956879C6.65973 0.31936 7.42931 0 8.38619 0C10.037 0 12.1381 3.69545 14.6833 11.0803C15.1276 12.3434 15.4457 13.3195 15.6906 14.0074L16.5035 11.6806C19.0487 4.4014 21.2314 0.750375 23.0695 0.750375C23.964 0.750375 24.6891 1.05653 25.2138 1.66283C25.7457 2.27514 26.0146 3.08194 26.0146 4.10125C26.0146 4.87084 25.7085 6.27794 25.1202 8.34057C24.5319 10.3912 23.6446 13.0805 22.444 16.4074L22.45 16.3894Z" fill="#A6A6A6"/>
</svg>
