<svg width="25" height="23" viewBox="0 0 25 23" fill="none" xmlns="http://www.w3.org/2000/svg">
<path d="M12.4651 0.8671L12.4627 0.869183L12.4627 0.869177C12.3254 0.985803 9.80986 3.13351 6.87141 5.64335C5.40258 6.89794 4.05894 8.04633 3.0774 8.886C2.5866 9.30586 2.18647 9.6484 1.90652 9.8884C1.76827 10.0069 1.66542 10.0953 1.59579 10.1551C1.51592 10.2238 1.47975 10.2549 1.48395 10.2508L1.48229 10.2524L1.48214 10.2526C1.46294 10.2708 1.42683 10.3052 1.42597 10.4518L1.42596 10.4546C1.42592 10.4579 1.42589 10.4611 1.42586 10.4641C1.43507 10.4743 1.44609 10.4852 1.45865 10.4959C1.47618 10.5109 1.49356 10.523 1.50862 10.5316C1.5158 10.5357 1.52145 10.5385 1.52538 10.5403C1.53557 10.541 1.55171 10.5419 1.57586 10.5427C1.68941 10.5467 1.89093 10.5473 2.30239 10.5473H3.16372H3.84943V11.233V16.5001C3.84943 18.2446 3.85116 19.5674 3.85439 20.4599C3.85601 20.9063 3.858 21.2439 3.86032 21.4724C3.86116 21.5552 3.86204 21.6225 3.86293 21.6749L3.91587 21.6737L3.92389 21.6735H3.9319L11.1469 21.6742L11.1548 21.6742L11.1626 21.6744L11.281 21.6771C11.2834 21.6756 11.2859 21.6736 11.2884 21.6713C11.2885 21.6711 11.2887 21.671 11.2889 21.6708C11.2906 21.6376 11.2926 21.5808 11.2941 21.4839C11.2983 21.2107 11.2983 20.6984 11.2983 19.6797V17.6019V16.9161H11.984H13.503H14.1887V17.6019V19.6245C14.1887 20.2319 14.1904 20.7459 14.1934 21.115C14.1949 21.2999 14.1968 21.4466 14.1988 21.5499C14.1997 21.5944 14.2005 21.6288 14.2014 21.6538C14.2049 21.6612 14.2102 21.6696 14.2166 21.6771L14.3424 21.6744L14.3499 21.6742L14.3574 21.6742L21.538 21.6735H21.5457L21.5533 21.6737L21.6764 21.6764C21.6803 21.5861 21.6834 21.4152 21.6854 21.073C21.6895 20.3921 21.6895 19.0791 21.6895 16.4949V11.233V10.5473H22.3752H23.202C23.5964 10.5473 23.7888 10.5467 23.8975 10.5428C23.9192 10.542 23.934 10.5412 23.9436 10.5405C23.9522 10.5362 23.973 10.5247 24.0001 10.5005C24.0233 10.4796 24.0414 10.4581 24.0542 10.4398L24.0543 10.4081C24.0543 10.3867 24.0541 10.3701 24.0539 10.3571C23.9955 10.2962 23.8693 10.1762 23.5921 9.92995C23.0111 9.41398 21.8628 8.42643 19.551 6.43819C19.3411 6.25766 19.1215 6.06888 18.892 5.87146L12.4651 0.8671ZM12.4651 0.8671C12.5307 0.810833 12.5773 0.771743 12.6135 0.742833C12.6478 0.71546 12.6653 0.703186 12.6732 0.698052C12.6769 0.696807 12.6833 0.694753 12.6935 0.691763C12.6955 0.691405 12.6991 0.690815 12.7043 0.690125C12.7183 0.688297 12.737 0.68669 12.7583 0.68603C12.7796 0.685372 12.7992 0.68579 12.8149 0.686848C12.8254 0.687563 12.8312 0.688368 12.8325 0.688547L12.4651 0.8671ZM13.2717 1.03742L13.2707 1.03657C13.0278 0.826819 12.9239 0.742589 12.8621 0.701223C12.8556 0.696894 12.8509 0.69392 12.8477 0.69198L13.2717 1.03742ZM13.2717 1.03742C13.3167 1.07614 13.4379 1.1804 13.6233 1.33987M13.2717 1.03742L13.6233 1.33987M13.6233 1.33987C14.4527 2.05348 16.5669 3.87264 18.8919 5.87135L13.6233 1.33987Z" stroke="#262626" stroke-width="1.37143"/>
</svg>
