<svg width="27" height="39" viewBox="0 0 27 39" fill="none" xmlns="http://www.w3.org/2000/svg">
<path d="M13.44 0.199951C6.0096 0.199951 0 6.20955 0 13.64C0 23.72 13.44 38.6 13.44 38.6C13.44 38.6 26.88 23.72 26.88 13.64C26.88 6.20955 20.8704 0.199951 13.44 0.199951ZM13.44 18.44C12.167 18.44 10.9461 17.9342 10.0459 17.0341C9.14571 16.1339 8.64 14.913 8.64 13.64C8.64 12.3669 9.14571 11.146 10.0459 10.2458C10.9461 9.34566 12.167 8.83995 13.44 8.83995C14.713 8.83995 15.9339 9.34566 16.8341 10.2458C17.7343 11.146 18.24 12.3669 18.24 13.64C18.24 14.913 17.7343 16.1339 16.8341 17.0341C15.9339 17.9342 14.713 18.44 13.44 18.44Z" fill="#A6A6A6"/>
</svg>
