<svg width="39" height="30" viewBox="0 0 39 30" fill="none" xmlns="http://www.w3.org/2000/svg">
<path d="M36.5386 0.282904C36.3751 0.26605 36.2102 0.26605 36.0466 0.282904H2.44664C2.23129 0.286223 2.01737 0.318512 1.81064 0.378904L19.1506 17.6469L36.5386 0.282904Z" fill="#A6A6A6"/>
<path d="M38.3141 1.9485L20.8421 19.3485C20.3924 19.7955 19.7842 20.0464 19.1501 20.0464C18.5161 20.0464 17.9078 19.7955 17.4581 19.3485L0.142106 2.0805C0.0888728 2.27615 0.0606479 2.47775 0.0581055 2.6805V26.6805C0.0581055 27.317 0.310962 27.9275 0.761049 28.3776C1.21114 28.8276 1.82159 29.0805 2.45811 29.0805H36.0581C36.6946 29.0805 37.3051 28.8276 37.7552 28.3776C38.2053 27.9275 38.4581 27.317 38.4581 26.6805V2.6805C38.4486 2.43048 38.4 2.1835 38.3141 1.9485ZM4.10211 26.6805H2.43411V24.9645L11.1581 16.3125L12.8501 18.0045L4.10211 26.6805ZM36.0341 26.6805H34.3541L25.6061 18.0045L27.2981 16.3125L36.0221 24.9645L36.0341 26.6805Z" fill="#A6A6A6"/>
</svg>
