<svg width="111" height="22" viewBox="0 0 111 22" fill="none" xmlns="http://www.w3.org/2000/svg">
<g filter="url(#filter0_iiiiiiii)">
<path d="M1 11.1922C1 5.56321 5.56321 1 11.1922 1H100.113C105.742 1 110.305 5.56321 110.305 11.1922C110.305 16.8212 105.742 21.3844 100.113 21.3844H11.1922C5.56322 21.3844 1 16.8212 1 11.1922Z" fill="white"/>
</g>
<path d="M1 11.1922C1 5.56321 5.56321 1 11.1922 1H100.113C105.742 1 110.305 5.56321 110.305 11.1922C110.305 16.8212 105.742 21.3844 100.113 21.3844H11.1922C5.56322 21.3844 1 16.8212 1 11.1922Z" stroke="#A6A6A6" stroke-width="0.75"/>
<path d="M43.6909 4.43881C43.9109 4.43881 44.0959 4.51381 44.2459 4.66381C44.3959 4.81381 44.4709 4.99881 44.4709 5.21881V15.3738C44.4709 15.5938 44.3909 15.7788 44.2309 15.9288C44.0809 16.0788 43.9009 16.1538 43.6909 16.1538C43.4709 16.1538 43.2859 16.0788 43.1359 15.9288C42.9859 15.7788 42.9109 15.5938 42.9109 15.3738V7.91881L39.2809 15.3138C39.1109 15.5738 38.8859 15.7038 38.6059 15.7038C38.2759 15.7038 38.0359 15.5488 37.8859 15.2388L34.3009 8.05381V15.3738C34.3009 15.5938 34.2259 15.7788 34.0759 15.9288C33.9259 16.0788 33.7409 16.1538 33.5209 16.1538C33.3009 16.1538 33.1159 16.0788 32.9659 15.9288C32.8159 15.7788 32.7409 15.5938 32.7409 15.3738V5.21881C32.7409 4.99881 32.8159 4.81381 32.9659 4.66381C33.1159 4.51381 33.3009 4.43881 33.5209 4.43881C33.8209 4.43881 34.0509 4.57881 34.2109 4.85881L38.6659 13.7838L43.0009 4.85881C43.1609 4.57881 43.3909 4.43881 43.6909 4.43881ZM54.6923 11.9238C54.6923 12.1138 54.6273 12.2738 54.4973 12.4038C54.3673 12.5238 54.2023 12.5838 54.0023 12.5838H48.3023C48.4123 13.2838 48.7273 13.8488 49.2473 14.2788C49.7773 14.7088 50.4223 14.9238 51.1823 14.9238C51.4823 14.9238 51.7923 14.8688 52.1123 14.7588C52.4423 14.6488 52.7123 14.5138 52.9223 14.3538C53.0623 14.2438 53.2273 14.1888 53.4173 14.1888C53.6073 14.1888 53.7573 14.2388 53.8673 14.3388C54.0473 14.4888 54.1373 14.6588 54.1373 14.8488C54.1373 15.0288 54.0573 15.1788 53.8973 15.2988C53.5573 15.5688 53.1323 15.7888 52.6223 15.9588C52.1223 16.1288 51.6423 16.2138 51.1823 16.2138C50.3623 16.2138 49.6273 16.0388 48.9773 15.6888C48.3273 15.3288 47.8173 14.8338 47.4473 14.2038C47.0873 13.5738 46.9073 12.8588 46.9073 12.0588C46.9073 11.2588 47.0773 10.5438 47.4173 9.91381C47.7673 9.27381 48.2473 8.77881 48.8573 8.42881C49.4773 8.06881 50.1773 7.88881 50.9573 7.88881C51.7273 7.88881 52.3923 8.05881 52.9523 8.39881C53.5123 8.73881 53.9423 9.21381 54.2423 9.82381C54.5423 10.4338 54.6923 11.1338 54.6923 11.9238ZM50.9573 9.17881C50.2273 9.17881 49.6323 9.37881 49.1723 9.77881C48.7223 10.1788 48.4373 10.7138 48.3173 11.3838H53.3123C53.2223 10.7138 52.9723 10.1788 52.5623 9.77881C52.1523 9.37881 51.6173 9.17881 50.9573 9.17881ZM59.6287 16.2138C58.9487 16.2138 58.3087 16.1088 57.7087 15.8988C57.1087 15.6888 56.6387 15.4138 56.2987 15.0738C56.1687 14.9438 56.1037 14.7888 56.1037 14.6088C56.1037 14.3688 56.2037 14.1738 56.4037 14.0238C56.5937 13.8838 56.7687 13.8138 56.9287 13.8138C57.1287 13.8138 57.3187 13.9038 57.4987 14.0838C57.6887 14.2938 57.9737 14.4788 58.3537 14.6388C58.7337 14.7888 59.1387 14.8638 59.5687 14.8638C60.1387 14.8638 60.5787 14.7688 60.8887 14.5788C61.2087 14.3888 61.3687 14.1338 61.3687 13.8138C61.3687 13.5038 61.2137 13.2488 60.9037 13.0488C60.5937 12.8388 60.0687 12.6638 59.3287 12.5238C57.4087 12.1538 56.4487 11.3638 56.4487 10.1538C56.4487 9.66381 56.5937 9.24881 56.8837 8.90881C57.1737 8.56881 57.5537 8.31381 58.0237 8.14381C58.4937 7.97381 58.9937 7.88881 59.5237 7.88881C60.1737 7.88881 60.7537 7.99381 61.2637 8.20381C61.7837 8.41381 62.1937 8.70381 62.4937 9.07381C62.6237 9.23381 62.6887 9.39381 62.6887 9.55381C62.6887 9.72381 62.6037 9.87881 62.4337 10.0188C62.3237 10.0988 62.1837 10.1388 62.0137 10.1388C61.7537 10.1388 61.5187 10.0438 61.3087 9.85381C61.0587 9.62381 60.7937 9.46381 60.5137 9.37381C60.2337 9.27381 59.8937 9.22381 59.4937 9.22381C59.0337 9.22381 58.6537 9.30381 58.3537 9.46381C58.0637 9.61381 57.9187 9.82881 57.9187 10.1088C57.9187 10.3088 57.9687 10.4788 58.0687 10.6188C58.1687 10.7488 58.3587 10.8738 58.6387 10.9938C58.9187 11.1038 59.3237 11.2138 59.8537 11.3238C60.9437 11.5438 61.7137 11.8488 62.1637 12.2388C62.6237 12.6288 62.8537 13.1338 62.8537 13.7538C62.8537 14.2138 62.7287 14.6338 62.4787 15.0138C62.2287 15.3838 61.8587 15.6788 61.3687 15.8988C60.8887 16.1088 60.3087 16.2138 59.6287 16.2138ZM67.7732 16.2138C67.0932 16.2138 66.4532 16.1088 65.8532 15.8988C65.2532 15.6888 64.7832 15.4138 64.4432 15.0738C64.3132 14.9438 64.2482 14.7888 64.2482 14.6088C64.2482 14.3688 64.3482 14.1738 64.5482 14.0238C64.7382 13.8838 64.9132 13.8138 65.0732 13.8138C65.2732 13.8138 65.4632 13.9038 65.6432 14.0838C65.8332 14.2938 66.1182 14.4788 66.4982 14.6388C66.8782 14.7888 67.2832 14.8638 67.7132 14.8638C68.2832 14.8638 68.7232 14.7688 69.0332 14.5788C69.3532 14.3888 69.5132 14.1338 69.5132 13.8138C69.5132 13.5038 69.3582 13.2488 69.0482 13.0488C68.7382 12.8388 68.2132 12.6638 67.4732 12.5238C65.5532 12.1538 64.5932 11.3638 64.5932 10.1538C64.5932 9.66381 64.7382 9.24881 65.0282 8.90881C65.3182 8.56881 65.6982 8.31381 66.1682 8.14381C66.6382 7.97381 67.1382 7.88881 67.6682 7.88881C68.3182 7.88881 68.8982 7.99381 69.4082 8.20381C69.9282 8.41381 70.3382 8.70381 70.6382 9.07381C70.7682 9.23381 70.8332 9.39381 70.8332 9.55381C70.8332 9.72381 70.7482 9.87881 70.5782 10.0188C70.4682 10.0988 70.3282 10.1388 70.1582 10.1388C69.8982 10.1388 69.6632 10.0438 69.4532 9.85381C69.2032 9.62381 68.9382 9.46381 68.6582 9.37381C68.3782 9.27381 68.0382 9.22381 67.6382 9.22381C67.1782 9.22381 66.7982 9.30381 66.4982 9.46381C66.2082 9.61381 66.0632 9.82881 66.0632 10.1088C66.0632 10.3088 66.1132 10.4788 66.2132 10.6188C66.3132 10.7488 66.5032 10.8738 66.7832 10.9938C67.0632 11.1038 67.4682 11.2138 67.9982 11.3238C69.0882 11.5438 69.8582 11.8488 70.3082 12.2388C70.7682 12.6288 70.9982 13.1338 70.9982 13.7538C70.9982 14.2138 70.8732 14.6338 70.6232 15.0138C70.3732 15.3838 70.0032 15.6788 69.5132 15.8988C69.0332 16.1088 68.4532 16.2138 67.7732 16.2138ZM76.6527 7.88881C77.4227 7.88881 78.1177 8.07381 78.7377 8.44381C79.3677 8.80381 79.8627 9.30381 80.2227 9.94381C80.5927 10.5738 80.7777 11.2788 80.7777 12.0588V15.4038C80.7777 15.6238 80.7027 15.8088 80.5527 15.9588C80.4127 16.0988 80.2327 16.1688 80.0127 16.1688C79.7927 16.1688 79.6077 16.0988 79.4577 15.9588C79.3177 15.8088 79.2477 15.6238 79.2477 15.4038V14.8488C78.8977 15.2788 78.4727 15.6138 77.9727 15.8538C77.4727 16.0938 76.9327 16.2138 76.3527 16.2138C75.6327 16.2138 74.9777 16.0338 74.3877 15.6738C73.8077 15.3138 73.3477 14.8188 73.0077 14.1888C72.6777 13.5488 72.5127 12.8388 72.5127 12.0588C72.5127 11.2788 72.6927 10.5738 73.0527 9.94381C73.4127 9.30381 73.9077 8.80381 74.5377 8.44381C75.1777 8.07381 75.8827 7.88881 76.6527 7.88881ZM76.6527 14.8638C77.1527 14.8638 77.6027 14.7438 78.0027 14.5038C78.4127 14.2538 78.7327 13.9188 78.9627 13.4988C79.1927 13.0688 79.3077 12.5888 79.3077 12.0588C79.3077 11.5288 79.1927 11.0488 78.9627 10.6188C78.7327 10.1888 78.4127 9.85381 78.0027 9.61381C77.6027 9.36381 77.1527 9.23881 76.6527 9.23881C76.1527 9.23881 75.6977 9.36381 75.2877 9.61381C74.8877 9.85381 74.5677 10.1888 74.3277 10.6188C74.0977 11.0488 73.9827 11.5288 73.9827 12.0588C73.9827 12.5888 74.0977 13.0688 74.3277 13.4988C74.5677 13.9188 74.8877 14.2538 75.2877 14.5038C75.6977 14.7438 76.1527 14.8638 76.6527 14.8638ZM86.7748 7.88881C87.5648 7.88881 88.2698 8.06881 88.8898 8.42881C89.5198 8.77881 90.0098 9.26881 90.3598 9.89881C90.7198 10.5288 90.8998 11.2488 90.8998 12.0588V15.2988C90.8998 16.0888 90.7248 16.8088 90.3748 17.4588C90.0248 18.1088 89.5298 18.6188 88.8898 18.9888C88.2598 19.3688 87.5448 19.5588 86.7448 19.5588C86.0248 19.5588 85.3548 19.4138 84.7348 19.1238C84.1148 18.8438 83.5948 18.4388 83.1748 17.9088C83.0648 17.7688 83.0098 17.6288 83.0098 17.4888C83.0098 17.2788 83.1148 17.0988 83.3248 16.9488C83.4648 16.8588 83.6048 16.8138 83.7448 16.8138C83.9948 16.8138 84.1998 16.9188 84.3598 17.1288C84.6298 17.4788 84.9698 17.7438 85.3798 17.9238C85.7898 18.1138 86.2548 18.2088 86.7748 18.2088C87.2648 18.2088 87.7098 18.0888 88.1098 17.8488C88.5098 17.6188 88.8298 17.2738 89.0698 16.8138C89.3098 16.3638 89.4298 15.8238 89.4298 15.1938V14.4588C89.1198 15.0088 88.7098 15.4388 88.1998 15.7488C87.6898 16.0588 87.1148 16.2138 86.4748 16.2138C85.7348 16.2138 85.0698 16.0388 84.4798 15.6888C83.8998 15.3288 83.4448 14.8338 83.1148 14.2038C82.7948 13.5738 82.6348 12.8588 82.6348 12.0588C82.6348 11.2488 82.8098 10.5288 83.1598 9.89881C83.5098 9.26881 83.9998 8.77881 84.6298 8.42881C85.2598 8.06881 85.9748 7.88881 86.7748 7.88881ZM86.7748 14.8638C87.2848 14.8638 87.7398 14.7438 88.1398 14.5038C88.5498 14.2638 88.8648 13.9338 89.0848 13.5138C89.3148 13.0838 89.4298 12.5988 89.4298 12.0588C89.4298 11.5188 89.3148 11.0338 89.0848 10.6038C88.8648 10.1738 88.5498 9.83881 88.1398 9.59881C87.7398 9.35881 87.2848 9.23881 86.7748 9.23881C86.2648 9.23881 85.8048 9.35881 85.3948 9.59881C84.9948 9.83881 84.6798 10.1738 84.4498 10.6038C84.2198 11.0338 84.1048 11.5188 84.1048 12.0588C84.1048 12.5988 84.2198 13.0838 84.4498 13.5138C84.6798 13.9338 84.9948 14.2638 85.3948 14.5038C85.8048 14.7438 86.2648 14.8638 86.7748 14.8638ZM100.542 11.9238C100.542 12.1138 100.477 12.2738 100.347 12.4038C100.217 12.5238 100.052 12.5838 99.8519 12.5838H94.1519C94.2619 13.2838 94.5769 13.8488 95.0969 14.2788C95.6269 14.7088 96.2719 14.9238 97.0319 14.9238C97.3319 14.9238 97.6419 14.8688 97.9619 14.7588C98.2919 14.6488 98.5619 14.5138 98.7719 14.3538C98.9119 14.2438 99.0769 14.1888 99.2669 14.1888C99.4569 14.1888 99.6069 14.2388 99.7169 14.3388C99.8969 14.4888 99.9869 14.6588 99.9869 14.8488C99.9869 15.0288 99.9069 15.1788 99.7469 15.2988C99.4069 15.5688 98.9819 15.7888 98.4719 15.9588C97.9719 16.1288 97.4919 16.2138 97.0319 16.2138C96.2119 16.2138 95.4769 16.0388 94.8269 15.6888C94.1769 15.3288 93.6669 14.8338 93.2969 14.2038C92.9369 13.5738 92.7569 12.8588 92.7569 12.0588C92.7569 11.2588 92.9269 10.5438 93.2669 9.91381C93.6169 9.27381 94.0969 8.77881 94.7069 8.42881C95.3269 8.06881 96.0269 7.88881 96.8069 7.88881C97.5769 7.88881 98.2419 8.05881 98.8019 8.39881C99.3619 8.73881 99.7919 9.21381 100.092 9.82381C100.392 10.4338 100.542 11.1338 100.542 11.9238ZM96.8069 9.17881C96.0769 9.17881 95.4819 9.37881 95.0219 9.77881C94.5719 10.1788 94.2869 10.7138 94.1669 11.3838H99.1619C99.0719 10.7138 98.8219 10.1788 98.4119 9.77881C98.0019 9.37881 97.4669 9.17881 96.8069 9.17881Z" fill="#595959"/>
<path d="M15.5632 1H6.82527L1 6.82527V15.5632L6.82527 21.3885H15.5632L21.3885 15.5632V6.82527L15.5632 1Z" fill="white" stroke="#A6A6A6" stroke-width="0.75"/>
<path d="M4.46143 10.9347H5.10648C5.81379 10.9347 5.81753 10.9347 5.95077 11.0107C6.0367 11.0593 6.15624 11.1876 6.20356 11.281C6.27579 11.4255 6.27953 11.4566 6.27953 12.0895C6.27953 12.5853 6.28202 12.6662 6.2982 12.6662C6.30692 12.6662 6.6033 12.3399 6.95446 11.94C7.30563 11.5414 7.62567 11.1789 7.66801 11.1353C7.75268 11.0456 7.80997 11.0057 7.90959 10.9671L7.97932 10.9409L11.4089 10.9324L12.9853 10.9285L12.9867 9.72329L12.9916 5.61548H4.46143V10.9347ZM12.9542 10.8973L7.96687 10.9036L7.8934 10.9322C7.74148 10.9895 7.72653 11.0045 7.00926 11.8179L6.32311 12.5977L6.31066 11.4392L6.27828 11.357C6.26085 11.3109 6.23096 11.2474 6.21104 11.2137C6.16496 11.134 6.03919 11.0119 5.96074 10.9696C5.83123 10.8998 5.80757 10.8973 5.12516 10.8973H4.49878V5.65285H12.9542V10.8973Z" fill="#D9D9D9"/>
<path d="M7.96687 10.9036L7.8934 10.9322C7.74148 10.9895 7.72653 11.0045 7.00926 11.8179L6.32311 12.5977L6.31066 11.4392L6.27828 11.357C6.26085 11.3109 6.23096 11.2474 6.21104 11.2137C6.16496 11.134 6.03919 11.0119 5.96074 10.9696C5.83123 10.8998 5.80757 10.8973 5.12516 10.8973H4.49878V5.65285H12.9542V10.8973L7.96687 10.9036Z" fill="#D9D9D9"/>
<path d="M16.3959 8.79517C14.389 8.78178 14.389 8.79102 14.2154 8.78178L12.9879 8.76403L12.9867 9.72329L12.9853 10.9285L11.4089 10.9324L10.05 10.9671L10.0706 11.9842C10.0706 12.0469 10.0861 12.3828 10.0873 13.7432V15.4348L14.4645 15.4411L14.5392 15.476C14.5803 15.4946 14.6326 15.5233 14.655 15.5382C14.6774 15.5532 15.0223 15.907 15.4208 16.3255L16.1456 17.0854L16.1518 16.4875C16.158 15.9456 16.1605 15.8833 16.1804 15.8273C16.2365 15.679 16.3361 15.5557 16.4482 15.4984C16.5727 15.4348 16.5752 15.4348 17.5926 15.4348H18.5427V8.79517H16.3959Z" fill="#D9D9D9"/>
<path d="M10.05 10.9671C10.05 11.0297 10.05 12.6532 10.05 13.7681V15.4722L14.4532 15.4785L14.5466 15.5245C14.6002 15.5507 14.6674 15.598 14.7023 15.6317C14.7359 15.6653 15.0771 16.0203 15.4594 16.4227C15.843 16.8251 16.1605 17.1539 16.1667 17.1539C16.1717 17.1539 16.1767 16.9197 16.1767 16.6332C16.1767 16.348 16.1829 16.0614 16.1892 15.9992C16.2103 15.8048 16.2888 15.6553 16.4158 15.5681C16.554 15.4735 16.4806 15.4797 17.5839 15.4722L18.5739 15.466V8.76403H12.9879M10.05 10.9671L10.0706 11.9842C10.0706 12.0469 10.0861 12.3828 10.0873 13.7432V15.4348L14.4645 15.4411L14.5392 15.476C14.5803 15.4946 14.6326 15.5233 14.655 15.5382C14.6774 15.5532 15.0223 15.907 15.4208 16.3255L16.1456 17.0854L16.1518 16.4875C16.158 15.9456 16.1605 15.8833 16.1804 15.8273C16.2365 15.679 16.3361 15.5557 16.4482 15.4984C16.5727 15.4348 16.5752 15.4348 17.5926 15.4348H18.5427V8.79517H16.3959C14.389 8.78178 14.389 8.79102 14.2154 8.78178L12.9879 8.76403M10.05 10.9671L11.4089 10.9324M12.9879 8.76403L12.9867 9.72329M12.9867 9.72329L12.9853 10.9285L11.4089 10.9324M12.9867 9.72329L12.9916 5.61548H4.46143V10.9347H5.10648C5.81379 10.9347 5.81753 10.9347 5.95077 11.0107C6.0367 11.0593 6.15624 11.1876 6.20356 11.281C6.27579 11.4255 6.27953 11.4566 6.27953 12.0895C6.27953 12.5853 6.28202 12.6662 6.2982 12.6662C6.30692 12.6662 6.6033 12.3399 6.95446 11.94C7.30563 11.5414 7.62567 11.1789 7.66801 11.1353C7.75268 11.0456 7.80997 11.0057 7.90959 10.9671L7.97932 10.9409L11.4089 10.9324M12.9542 10.8973V5.65285H4.49878V10.8973H5.12516C5.80757 10.8973 5.83123 10.8998 5.96074 10.9696C6.03919 11.0119 6.16496 11.134 6.21104 11.2137C6.23096 11.2474 6.26085 11.3109 6.27828 11.357L6.31066 11.4392L6.32311 12.5977L7.00926 11.8179C7.72653 11.0045 7.74148 10.9895 7.8934 10.9322L7.96687 10.9036L12.9542 10.8973Z" stroke="#A6A6A6" stroke-width="0.796154"/>
<defs>
<filter id="filter0_iiiiiiii" x="-2.375" y="-0.375" width="120.055" height="23.1344" filterUnits="userSpaceOnUse" color-interpolation-filters="sRGB">
<feFlood flood-opacity="0" result="BackgroundImageFix"/>
<feBlend mode="normal" in="SourceGraphic" in2="BackgroundImageFix" result="shape"/>
<feColorMatrix in="SourceAlpha" type="matrix" values="0 0 0 0 0 0 0 0 0 0 0 0 0 0 0 0 0 0 127 0" result="hardAlpha"/>
<feOffset dx="2" dy="1"/>
<feGaussianBlur stdDeviation="1"/>
<feComposite in2="hardAlpha" operator="arithmetic" k2="-1" k3="1"/>
<feColorMatrix type="matrix" values="0 0 0 0 1 0 0 0 0 0.995833 0 0 0 0 0.995833 0 0 0 0.25 0"/>
<feBlend mode="normal" in2="shape" result="effect1_innerShadow"/>
<feColorMatrix in="SourceAlpha" type="matrix" values="0 0 0 0 0 0 0 0 0 0 0 0 0 0 0 0 0 0 127 0" result="hardAlpha"/>
<feOffset dx="1" dy="1"/>
<feGaussianBlur stdDeviation="0.5"/>
<feComposite in2="hardAlpha" operator="arithmetic" k2="-1" k3="1"/>
<feColorMatrix type="matrix" values="0 0 0 0 1 0 0 0 0 1 0 0 0 0 1 0 0 0 0.25 0"/>
<feBlend mode="normal" in2="effect1_innerShadow" result="effect2_innerShadow"/>
<feColorMatrix in="SourceAlpha" type="matrix" values="0 0 0 0 0 0 0 0 0 0 0 0 0 0 0 0 0 0 127 0" result="hardAlpha"/>
<feOffset dx="4" dy="1"/>
<feGaussianBlur stdDeviation="2"/>
<feComposite in2="hardAlpha" operator="arithmetic" k2="-1" k3="1"/>
<feColorMatrix type="matrix" values="0 0 0 0 1 0 0 0 0 1 0 0 0 0 1 0 0 0 0.25 0"/>
<feBlend mode="normal" in2="effect2_innerShadow" result="effect3_innerShadow"/>
<feColorMatrix in="SourceAlpha" type="matrix" values="0 0 0 0 0 0 0 0 0 0 0 0 0 0 0 0 0 0 127 0" result="hardAlpha"/>
<feOffset dx="3" dy="1"/>
<feGaussianBlur stdDeviation="1.5"/>
<feComposite in2="hardAlpha" operator="arithmetic" k2="-1" k3="1"/>
<feColorMatrix type="matrix" values="0 0 0 0 1 0 0 0 0 1 0 0 0 0 1 0 0 0 0.25 0"/>
<feBlend mode="normal" in2="effect3_innerShadow" result="effect4_innerShadow"/>
<feColorMatrix in="SourceAlpha" type="matrix" values="0 0 0 0 0 0 0 0 0 0 0 0 0 0 0 0 0 0 127 0" result="hardAlpha"/>
<feOffset dx="-3" dy="-1"/>
<feGaussianBlur stdDeviation="1.5"/>
<feComposite in2="hardAlpha" operator="arithmetic" k2="-1" k3="1"/>
<feColorMatrix type="matrix" values="0 0 0 0 0 0 0 0 0 0 0 0 0 0 0 0 0 0 0.25 0"/>
<feBlend mode="normal" in2="effect4_innerShadow" result="effect5_innerShadow"/>
<feColorMatrix in="SourceAlpha" type="matrix" values="0 0 0 0 0 0 0 0 0 0 0 0 0 0 0 0 0 0 127 0" result="hardAlpha"/>
<feOffset dx="5" dy="1"/>
<feGaussianBlur stdDeviation="2.5"/>
<feComposite in2="hardAlpha" operator="arithmetic" k2="-1" k3="1"/>
<feColorMatrix type="matrix" values="0 0 0 0 1 0 0 0 0 0.991667 0 0 0 0 0.991667 0 0 0 0.25 0"/>
<feBlend mode="normal" in2="effect5_innerShadow" result="effect6_innerShadow"/>
<feColorMatrix in="SourceAlpha" type="matrix" values="0 0 0 0 0 0 0 0 0 0 0 0 0 0 0 0 0 0 127 0" result="hardAlpha"/>
<feOffset dx="6" dy="1"/>
<feGaussianBlur stdDeviation="3"/>
<feComposite in2="hardAlpha" operator="arithmetic" k2="-1" k3="1"/>
<feColorMatrix type="matrix" values="0 0 0 0 1 0 0 0 0 1 0 0 0 0 1 0 0 0 0.25 0"/>
<feBlend mode="normal" in2="effect6_innerShadow" result="effect7_innerShadow"/>
<feColorMatrix in="SourceAlpha" type="matrix" values="0 0 0 0 0 0 0 0 0 0 0 0 0 0 0 0 0 0 127 0" result="hardAlpha"/>
<feOffset dx="7" dy="1"/>
<feGaussianBlur stdDeviation="3.5"/>
<feComposite in2="hardAlpha" operator="arithmetic" k2="-1" k3="1"/>
<feColorMatrix type="matrix" values="0 0 0 0 1 0 0 0 0 1 0 0 0 0 1 0 0 0 0.25 0"/>
<feBlend mode="normal" in2="effect7_innerShadow" result="effect8_innerShadow"/>
</filter>
</defs>
</svg>
