<svg width="39" height="32" viewBox="0 0 39 32" fill="none" xmlns="http://www.w3.org/2000/svg">
<path d="M33.2876 20.6188C33.1024 19.3321 32.109 18.329 30.83 18.03C25.8588 16.8648 24.6126 14.0021 24.4024 10.8268C23.5208 10.6629 21.9525 10.4854 19.2903 10.4854C16.6282 10.4854 15.0599 10.6629 14.1783 10.8268C13.9681 14.0021 12.7219 16.8648 7.7507 18.03C6.47173 18.3309 5.47826 19.3321 5.29307 20.6188L4.33433 27.2586C3.99674 29.5966 5.71361 31.7051 8.10179 31.7051H30.4789C32.8652 31.7051 34.584 29.5966 34.2464 27.2586L33.2876 20.6188ZM19.2903 26.867C16.5993 26.867 14.4175 24.7064 14.4175 22.0443C14.4175 19.3822 16.5993 17.2217 19.2903 17.2217C21.9814 17.2217 24.1632 19.3822 24.1632 22.0443C24.1632 24.7064 21.9795 26.867 19.2903 26.867ZM38.4845 8.55634C38.4382 5.66274 31.0731 0.842017 19.2903 0.840088C7.50571 0.842017 0.140549 5.66274 0.0961801 8.55634C0.0518117 11.4499 0.136691 15.2155 4.98635 14.5885C10.6597 13.8535 10.3106 11.8724 10.3106 9.04053C10.3106 7.06517 14.9249 6.58869 19.2903 6.58869C23.6558 6.58869 28.2682 7.06517 28.2701 9.04053C28.2701 11.8724 27.921 13.8535 33.5943 14.5885C38.4421 15.2155 38.5289 11.4499 38.4845 8.55634Z" fill="#A6A6A6"/>
</svg>
