<svg width="155" height="234" viewBox="0 0 155 234" fill="none" xmlns="http://www.w3.org/2000/svg">
<g filter="url(#filter0_di)">
<path d="M73.7407 179.026C57.797 182.836 44.6292 185.981 44.4858 186.012C44.2861 186.053 44.2144 186.094 44.2144 186.155C44.2144 186.201 45.2387 190.242 46.4832 195.128C48.7368 203.938 48.7573 204.014 48.8751 203.999C49.1772 203.953 107.487 190.007 107.518 189.971C107.549 189.94 104.496 177.843 103.185 172.808C103.001 172.101 102.996 172.081 102.862 172.086C102.791 172.091 89.6844 175.21 73.7407 179.026ZM105.131 181.049C106.366 185.894 107.37 189.863 107.359 189.874C107.349 189.884 103.754 190.744 99.3746 191.789C94.9956 192.834 81.8483 195.973 70.1607 198.765C56.03 202.14 48.8955 203.82 48.8751 203.784C48.8392 203.728 44.409 186.396 44.3987 186.273C44.3936 186.217 51.4922 184.501 73.5871 179.22C89.6435 175.384 102.806 172.24 102.832 172.24C102.862 172.24 103.892 176.199 105.131 181.049Z" fill="url(#paint0_radial)"/>
<path d="M105.131 181.049C106.366 185.894 107.37 189.863 107.359 189.874C107.349 189.884 103.754 190.744 99.3746 191.789C94.9956 192.834 81.8483 195.973 70.1607 198.765C56.03 202.14 48.8955 203.82 48.8751 203.784C48.8392 203.728 44.409 186.396 44.3987 186.273C44.3936 186.217 51.4922 184.501 73.5871 179.22C89.6435 175.384 102.806 172.24 102.832 172.24C102.862 172.24 103.892 176.199 105.131 181.049Z" fill="url(#paint1_radial)"/>
<path d="M53.839 22.5134C50.337 22.8108 46.9856 23.5045 43.837 24.5895C32.7023 28.4286 23.7187 37.0145 19.3646 47.9841C17.3018 53.169 16.3198 58.8234 16.5069 64.3943C16.616 67.5396 16.9797 70.1529 17.7331 73.1418C19.2243 79.0726 22.1236 84.7166 26.062 89.3642C26.7664 90.1939 27.1041 90.4984 27.2207 90.5587C27.2061 90.5734 27.2529 90.5753 27.2207 90.5587C27.2623 90.517 27.1479 90.35 26.7583 89.9119C21.2715 83.6785 17.8006 75.849 16.8966 67.6753C16.7303 66.1365 16.7043 65.7348 16.6783 63.7318C16.6316 60.4769 16.829 58.1974 17.3954 55.2868C19.3386 45.3552 24.8202 36.6389 32.9517 30.5464C41.795 23.9218 52.9349 21.2668 63.9449 23.155C71.1671 24.3965 77.9528 27.6514 83.6111 32.5911C84.432 33.3058 86.6351 35.5226 87.3781 36.3781C92.8753 42.7262 96.2422 50.4201 97.141 58.7034C97.4424 61.4732 97.4528 64.5403 97.167 67.258C96.6007 72.688 94.9588 77.9407 92.3609 82.6457C92.1375 83.0578 91.9504 83.4229 91.9504 83.449C91.9504 83.4803 91.9816 83.5064 92.018 83.5064C92.0959 83.5064 92.3921 82.9848 93.0987 81.6025C96.7098 74.5189 98.1594 66.5851 97.2969 58.6512C96.5903 52.1206 94.3197 45.8768 90.6774 40.4206C88.4588 37.0927 85.6271 33.9786 82.5355 31.4644C76.2746 26.3682 68.7042 23.2907 60.6403 22.5552C59.9493 22.4926 59.1127 22.4769 56.8993 22.4874C55.3302 22.4926 53.9533 22.503 53.839 22.5134Z" fill="url(#paint2_radial)"/>
<path d="M55.8134 42.1211C55.6991 42.1315 55.3146 42.1681 54.9561 42.1994C53.548 42.3246 51.9529 42.6636 50.4617 43.1539C43.1667 45.569 37.8046 51.7763 36.4381 59.3815C35.7159 63.398 36.1783 67.5083 37.7734 71.3005C37.9422 71.7034 38.0081 71.8481 38.061 71.868C38.0814 71.8756 38.0999 71.8647 38.1216 71.843C38.1579 71.8065 38.1164 71.6604 37.9969 71.3892C37.6955 70.7319 37.311 69.6574 37.0616 68.7759C35.3937 62.9337 36.3706 56.6639 39.7582 51.5311C42.829 46.8731 47.7702 43.613 53.309 42.5906C54.6027 42.3506 55.4445 42.2776 57.0084 42.2776C58.9101 42.2776 60.1727 42.4237 61.9185 42.8514C66.974 44.0928 71.3801 47.1913 74.269 51.5311C76.1083 54.3009 77.241 57.4359 77.6359 60.842C77.7918 62.1982 77.7918 64.1439 77.6255 65.4166C77.6047 65.6201 77.6099 65.667 77.6722 65.667C77.771 65.667 77.7969 65.5105 77.8749 64.4151C78.0515 61.8853 77.693 59.0529 76.8825 56.5648C74.6015 49.5803 68.9692 44.3745 61.8405 42.6636C61.0871 42.481 60.2038 42.3298 59.2946 42.215C58.6607 42.142 56.281 42.0742 55.8134 42.1211Z" fill="url(#paint3_radial)"/>
<path d="M53.3313 16.0346C49.269 16.3886 45.3815 17.2144 41.729 18.5061C28.8128 23.0765 18.3918 33.2977 13.341 46.3568C10.9482 52.5293 9.80911 59.2607 10.0261 65.8927C10.1527 69.6372 10.5746 72.7483 11.4485 76.3065C13.1783 83.367 16.5415 90.0859 21.1101 95.6188C22.1528 96.8794 22.3758 97.1216 22.4541 97.0408L22.459 97.0342C22.4913 96.9749 22.3518 96.7717 21.9177 96.2708C15.553 88.8502 11.5269 79.5293 10.4781 69.7986C10.2853 67.9668 10.2551 67.4886 10.225 65.1041C10.1707 61.2292 10.3998 58.5155 11.0567 55.0505C13.3109 43.2271 19.6696 32.8506 29.1021 25.5976C39.3603 17.7112 52.2826 14.5505 65.0541 16.7984C73.4319 18.2763 81.3034 22.1512 87.867 28.0318C88.8193 28.8826 91.3748 31.5217 92.2367 32.5401C98.6134 40.0974 102.519 49.2568 103.562 59.1179C103.911 62.4153 103.923 66.0666 103.592 69.3019C102.935 75.7662 101.03 82.0195 98.0167 87.6207C97.7576 88.1112 97.5406 88.5459 97.5406 88.577C97.5406 88.6142 97.5767 88.6453 97.6189 88.6453C97.7093 88.6453 98.0529 88.0243 98.8726 86.3787C103.061 77.9459 104.743 68.5008 103.743 59.0558C102.923 51.2812 100.289 43.8481 96.0639 37.3527C93.4903 33.3909 90.2055 29.6836 86.6193 26.6905C79.3566 20.6236 70.575 16.9598 61.2209 16.0843C60.4193 16.0098 59.4489 15.9911 56.8813 16.0035C55.0611 16.0098 53.4639 16.0222 53.3313 16.0346Z" fill="url(#paint4_radial)"/>
<path d="M55.4309 35.4734C55.2802 35.4871 54.7733 35.5348 54.3007 35.5757C52.4446 35.7393 50.3419 36.1825 48.3762 36.8234C38.7601 39.9803 31.6917 48.094 29.8904 58.0349C28.9384 63.285 29.548 68.6577 31.6507 73.6146C31.9589 74.3441 32.0068 74.4259 32.1095 74.3236C32.1575 74.2759 32.1027 74.085 31.9452 73.7305C31.5479 72.8714 31.0411 71.4668 30.7123 70.3145C28.5137 62.6781 29.8014 54.4826 34.267 47.7735C38.3149 41.6848 44.8284 37.4235 52.1296 36.0871C53.835 35.7734 54.9446 35.678 57.0062 35.678C59.5129 35.678 61.1773 35.8689 63.4786 36.428C70.1428 38.0507 75.9509 42.1007 79.759 47.7735C82.1836 51.394 83.6767 55.4917 84.1972 59.944C84.4027 61.7168 84.4027 64.26 84.1835 65.9236C84.1589 66.1628 84.162 66.2365 84.2227 66.2489C84.2294 66.2503 84.2369 66.2509 84.2452 66.2509C84.3753 66.2509 84.4095 66.0463 84.5123 64.6145C84.7452 61.3077 84.2726 57.6054 83.2041 54.3531C80.1973 45.2235 72.7729 38.4189 63.3759 36.1825C62.3827 35.9439 61.2184 35.7462 60.0198 35.5962C59.1842 35.5007 56.0473 35.4121 55.4309 35.4734Z" fill="url(#paint5_radial)"/>
<path d="M54.9561 42.1994C55.3146 42.1681 55.6991 42.1315 55.8134 42.1211C56.281 42.0742 58.6607 42.142 59.2946 42.215C60.2038 42.3298 61.0871 42.481 61.8405 42.6636C68.9692 44.3745 74.6015 49.5803 76.8825 56.5648C77.693 59.0529 78.0515 61.8853 77.8749 64.4151C77.7969 65.5105 77.771 65.667 77.6722 65.667L84.2227 66.2489C84.162 66.2365 84.1589 66.1628 84.1835 65.9236C84.4027 64.26 84.4027 61.7168 84.1972 59.944C83.6767 55.4917 82.1836 51.394 79.759 47.7735C75.9509 42.1007 70.1428 38.0507 63.4786 36.428C61.1773 35.8689 59.5129 35.678 57.0062 35.678C54.9446 35.678 53.835 35.7734 52.1296 36.0871C44.8284 37.4235 38.3149 41.6848 34.267 47.7735C29.8014 54.4826 28.5137 62.6781 30.7123 70.3145C31.0411 71.4668 31.5479 72.8714 31.9452 73.7305C32.1027 74.085 32.1575 74.2759 32.1095 74.3236L38.061 71.868C38.0081 71.8481 37.9422 71.7034 37.7734 71.3005C36.1783 67.5083 35.7159 63.398 36.4381 59.3815C37.8046 51.7763 43.1667 45.569 50.4617 43.1539C51.9529 42.6636 53.548 42.3246 54.9561 42.1994Z" fill="url(#paint6_radial)"/>
<path d="M43.837 24.5895C46.9856 23.5045 50.337 22.8108 53.839 22.5134C53.9533 22.503 55.3302 22.4926 56.8993 22.4874C59.1127 22.4769 59.9493 22.4926 60.6403 22.5552C68.7042 23.2907 76.2746 26.3682 82.5355 31.4644C85.6271 33.9786 88.4588 37.0927 90.6774 40.4206C94.3197 45.8768 96.5903 52.1206 97.2969 58.6512C98.1594 66.5851 96.7098 74.5189 93.0987 81.6025C92.3921 82.9848 92.0959 83.5064 92.018 83.5064L97.5406 88.577C97.5406 88.5459 97.7576 88.1112 98.0167 87.6207C101.03 82.0195 102.935 75.7662 103.592 69.3019C103.923 66.0666 103.911 62.4153 103.562 59.1179C102.519 49.2568 98.6134 40.0974 92.2367 32.5401C91.3748 31.5217 88.8193 28.8826 87.867 28.0318C81.3034 22.1512 73.4319 18.2763 65.0541 16.7984C52.2826 14.5505 39.3603 17.7112 29.1021 25.5976C19.6696 32.8506 13.3109 43.2271 11.0567 55.0505C10.3998 58.5155 10.1707 61.2292 10.225 65.1041C10.2551 67.4886 10.2853 67.9668 10.4781 69.7986C11.5269 79.5293 15.553 88.8502 21.9177 96.2708C22.3518 96.7717 22.4913 96.9749 22.459 97.0342L27.2207 90.5587C27.1041 90.4984 26.7664 90.1939 26.062 89.3642C22.1236 84.7166 19.2243 79.0726 17.7331 73.1418C16.9797 70.1529 16.616 67.5396 16.5069 64.3943C16.3198 58.8234 17.3018 53.169 19.3646 47.9841C23.7187 37.0145 32.7023 28.4286 43.837 24.5895Z" fill="url(#paint7_radial)"/>
<path d="M47.779 54.17C47.7381 54.2417 47.0057 56.9511 46.7035 58.1496C44.4039 67.3583 43.103 77.3763 42.7752 88.3674C42.7086 90.6107 42.7393 96.7822 42.8264 98.7643C43.062 103.994 43.4205 108.25 43.989 112.644C44.0914 113.428 44.158 114.083 44.1324 114.093C44.1068 114.099 42.7393 114.657 41.0901 115.328L38.094 116.547L38.0786 105.11C38.0684 95.1638 38.0581 93.6683 37.9915 93.6683C37.9403 93.6683 21.9095 104.388 21.7866 104.506C21.7559 104.536 21.8686 107.548 21.9607 109.315C22.8724 126.124 25.6637 140.496 30.3193 152.286C34.5242 162.928 40.3014 171.302 47.3386 176.952L47.8251 177.341L51.3078 176.967C75.3335 174.381 85.8586 173.356 97.3003 172.491C98.7959 172.378 100.199 172.276 100.425 172.255L100.834 172.224L101.295 171.502C105.311 165.131 108.522 159.026 111.052 152.952C114.535 144.598 116.957 136.065 118.581 126.473C119.108 123.338 119.615 119.548 119.595 118.903L119.58 118.493L115.175 116.931C112.752 116.07 110.765 115.364 110.76 115.359C110.76 115.359 110.806 115.082 110.873 114.744C111.334 112.475 111.052 109.627 109.971 105.714C109.838 105.238 109.792 105.136 109.7 105.115C109.644 105.105 109.326 105.054 109.003 105.013C108.215 104.9 105.592 104.501 102.806 104.06C101.551 103.86 99.769 103.589 98.842 103.451L97.1569 103.2L96.865 103.517C95.4566 105.049 94.5961 106.247 93.8688 107.666C93.6998 107.994 93.5308 108.265 93.4898 108.265C93.454 108.265 92.8855 108.137 92.2299 107.983C91.5795 107.83 91.0263 107.702 91.0109 107.702C90.9905 107.702 90.9751 106.995 90.9751 106.124C90.97 101.591 90.5551 98.7234 89.4591 95.676C89.331 95.3175 89.1979 94.9999 89.1672 94.9641C89.1006 94.9026 86.0634 94.3904 83.2926 93.9807C80.066 93.4993 76.5218 92.9922 76.5115 93.0127C76.5013 93.0229 76.2708 93.3507 75.9942 93.7451C74.6472 95.6657 73.6178 97.2893 72.9571 98.5339C72.701 99.0204 72.1735 100.198 72.0608 100.542C72.0352 100.618 71.9123 100.588 71.0416 100.291C69.4027 99.7374 67.9276 99.4045 67.1133 99.4045C66.9443 99.4045 66.8009 99.384 66.8009 99.3584C66.8009 99.3328 66.8828 98.8207 66.9801 98.2163C67.4794 95.3005 67.6915 92.039 67.8869 89.0346L67.902 88.8027C68.4398 80.3059 67.7689 72.1419 65.8482 63.8551C65.2131 61.1048 64.4705 57.8986 63.6101 55.4351L63.1799 54.1547L55.4922 54.1393C51.2669 54.1342 47.7944 54.1496 47.779 54.17Z" fill="url(#paint8_radial)"/>
<path d="M67.902 88.8027C68.4398 80.3059 67.7689 72.1419 65.8482 63.8551C65.2131 61.1048 64.4705 57.8986 63.6101 55.4351L63.1799 54.1547L55.4922 54.1393C51.2669 54.1342 47.7944 54.1496 47.779 54.17C47.7381 54.2417 47.0057 56.9511 46.7035 58.1496C44.4039 67.3583 43.103 77.3763 42.7752 88.3674C42.7086 90.6107 42.7393 96.7823 42.8264 98.7643C43.062 103.994 43.4205 108.25 43.989 112.644C44.0914 113.428 44.158 114.083 44.1324 114.093C44.1068 114.099 42.7393 114.657 41.0901 115.328L38.094 116.547L38.0786 105.11C38.0684 95.1638 38.0581 93.6683 37.9915 93.6683C37.9403 93.6683 21.9095 104.388 21.7866 104.506C21.7559 104.536 21.8686 107.548 21.9607 109.315C22.8724 126.124 25.6637 140.496 30.3193 152.286C34.5242 162.929 40.3014 171.302 47.3386 176.952L47.8251 177.341L51.3078 176.967C75.3335 174.381 85.8586 173.356 97.3003 172.491C98.7959 172.378 100.199 172.276 100.425 172.255L100.834 172.224L101.295 171.502C105.311 165.131 108.522 159.026 111.052 152.952C114.535 144.598 116.957 136.065 118.581 126.473C119.108 123.338 119.615 119.548 119.595 118.903L119.58 118.493L115.175 116.931C112.752 116.07 110.765 115.364 110.76 115.359C110.76 115.359 110.806 115.082 110.873 114.744C111.334 112.475 111.052 109.627 109.971 105.714C109.838 105.238 109.792 105.136 109.7 105.115C109.644 105.105 109.326 105.054 109.003 105.013C108.215 104.9 105.592 104.501 102.806 104.06C101.551 103.86 99.769 103.589 98.842 103.451L97.1569 103.2L96.865 103.517C95.4565 105.049 94.5961 106.247 93.8688 107.666C93.6998 107.994 93.5308 108.265 93.4898 108.265C93.454 108.265 92.8855 108.137 92.2299 107.983C91.5795 107.83 91.0263 107.702 91.0109 107.702C90.9905 107.702 90.9751 106.995 90.9751 106.124C90.97 101.591 90.5551 98.7234 89.4591 95.676C89.331 95.3175 89.1979 94.9999 89.1672 94.9641C89.1006 94.9026 86.0634 94.3904 83.2926 93.9807C80.066 93.4993 76.5218 92.9922 76.5115 93.0127C76.5013 93.023 76.2708 93.3507 75.9942 93.7451C74.6473 95.6657 73.6178 97.2893 72.9571 98.5339C72.701 99.0204 72.1735 100.198 72.0608 100.542C72.0352 100.618 71.9123 100.588 71.0416 100.291C69.4027 99.7374 67.9276 99.4045 67.1133 99.4045C66.9443 99.4045 66.8009 99.384 66.8009 99.3584C66.8009 99.3328 66.8828 98.8207 66.9801 98.2163C67.4794 95.3005 67.6915 92.039 67.8869 89.0346M67.902 88.8027L67.8869 89.0346M67.902 88.8027C67.897 88.8798 67.892 88.9571 67.8869 89.0346M27.2207 90.5587C27.2623 90.517 27.1479 90.35 26.7583 89.9119C21.2715 83.6785 17.8006 75.849 16.8966 67.6753C16.7303 66.1365 16.7043 65.7348 16.6783 63.7318C16.6316 60.4769 16.829 58.1974 17.3954 55.2868C19.3386 45.3552 24.8202 36.6389 32.9517 30.5464C41.795 23.9218 52.9349 21.2668 63.9449 23.155C71.1671 24.3965 77.9528 27.6514 83.6111 32.5911C84.432 33.3058 86.6351 35.5226 87.3781 36.3781C92.8753 42.7262 96.2422 50.4201 97.141 58.7034C97.4424 61.4732 97.4528 64.5403 97.167 67.258C96.6007 72.688 94.9588 77.9407 92.3609 82.6457C92.1375 83.0578 91.9504 83.4229 91.9504 83.449C91.9504 83.4803 91.9816 83.5064 92.018 83.5064M27.2207 90.5587C27.1041 90.4984 26.7664 90.1939 26.062 89.3642C22.1236 84.7166 19.2243 79.0726 17.7331 73.1418C16.9797 70.1529 16.616 67.5396 16.5069 64.3943C16.3198 58.8234 17.3018 53.169 19.3646 47.9841C23.7187 37.0145 32.7023 28.4286 43.837 24.5895C46.9856 23.5045 50.337 22.8108 53.839 22.5134C53.9533 22.503 55.3302 22.4926 56.8993 22.4874C59.1127 22.4769 59.9493 22.4926 60.6403 22.5552C68.7042 23.2907 76.2746 26.3682 82.5355 31.4644C85.6271 33.9786 88.4588 37.0927 90.6774 40.4206C94.3197 45.8768 96.5903 52.1206 97.2969 58.6512C98.1594 66.5851 96.7098 74.5189 93.0987 81.6025C92.392 82.9848 92.0959 83.5064 92.018 83.5064M27.2207 90.5587C27.2529 90.5753 27.2061 90.5734 27.2207 90.5587ZM27.2207 90.5587L22.459 97.0342M92.018 83.5064L97.5406 88.577M38.1216 71.843C38.1579 71.8065 38.1164 71.6604 37.9969 71.3892C37.6955 70.7319 37.311 69.6574 37.0616 68.7759C35.3937 62.9337 36.3706 56.6639 39.7582 51.5311C42.829 46.8731 47.7702 43.613 53.309 42.5906C54.6027 42.3506 55.4445 42.2776 57.0084 42.2776C58.9101 42.2776 60.1727 42.4237 61.9185 42.8514C66.974 44.0928 71.3801 47.1913 74.269 51.5311C76.1083 54.3009 77.241 57.4359 77.6359 60.842C77.7918 62.1982 77.7918 64.1439 77.6255 65.4166C77.6047 65.6201 77.6099 65.667 77.6722 65.667M38.1216 71.843L38.061 71.868M38.1216 71.843C38.0999 71.8647 38.0814 71.8756 38.061 71.868M77.6722 65.667C77.771 65.667 77.7969 65.5105 77.8749 64.4151C78.0515 61.8853 77.693 59.0529 76.8825 56.5648C74.6015 49.5803 68.9692 44.3745 61.8405 42.6636C61.0871 42.481 60.2039 42.3298 59.2946 42.215C58.6607 42.142 56.281 42.0742 55.8134 42.1211C55.6991 42.1315 55.3146 42.1681 54.9561 42.1994C53.548 42.3246 51.9529 42.6636 50.4617 43.1539C43.1667 45.569 37.8046 51.7763 36.4381 59.3815C35.7159 63.398 36.1783 67.5083 37.7734 71.3005C37.9422 71.7034 38.0081 71.8481 38.061 71.868M77.6722 65.667L84.2227 66.2489M97.5406 88.577C97.5406 88.5459 97.7576 88.1112 98.0167 87.6207C101.03 82.0195 102.935 75.7662 103.592 69.3019C103.923 66.0666 103.911 62.4153 103.562 59.1179C102.519 49.2568 98.6134 40.0974 92.2367 32.5401C91.3748 31.5217 88.8193 28.8826 87.867 28.0318C81.3034 22.1512 73.4319 18.2763 65.0541 16.7984C52.2826 14.5505 39.3603 17.7112 29.1021 25.5976C19.6696 32.8506 13.3109 43.2271 11.0567 55.0505C10.3998 58.5155 10.1707 61.2292 10.225 65.1041C10.2551 67.4886 10.2853 67.9668 10.4781 69.7986C11.5269 79.5293 15.553 88.8502 21.9177 96.2708C22.3518 96.7717 22.4913 96.9749 22.459 97.0342M97.5406 88.577C97.5406 88.6142 97.5767 88.6453 97.6189 88.6453C97.7093 88.6453 98.0529 88.0243 98.8726 86.3787C103.061 77.9459 104.743 68.5008 103.743 59.0558C102.923 51.2812 100.289 43.8481 96.0639 37.3527C93.4903 33.3909 90.2055 29.6836 86.6193 26.6905C79.3566 20.6236 70.575 16.9598 61.2209 16.0843C60.4193 16.0098 59.4489 15.9911 56.8813 16.0035C55.0611 16.0098 53.4639 16.0222 53.3313 16.0346C49.269 16.3886 45.3815 17.2144 41.729 18.5061C28.8128 23.0765 18.3918 33.2977 13.341 46.3568C10.9482 52.5293 9.80911 59.2607 10.0261 65.8927C10.1527 69.6372 10.5746 72.7483 11.4485 76.3065C13.1783 83.367 16.5415 90.0859 21.1101 95.6188C22.1528 96.8794 22.3758 97.1216 22.4541 97.0408L22.459 97.0342M32.1095 74.3236C32.0068 74.4259 31.9589 74.3441 31.6506 73.6146C29.548 68.6577 28.9384 63.2849 29.8904 58.0349C31.6917 48.094 38.7601 39.9803 48.3762 36.8234C50.3419 36.1825 52.4446 35.7394 54.3007 35.5757C54.7733 35.5348 55.2802 35.4871 55.4309 35.4734C56.0473 35.4121 59.1842 35.5007 60.0198 35.5962C61.2184 35.7462 62.3827 35.9439 63.3759 36.1825C72.7729 38.4189 80.1973 45.2235 83.2041 54.3531C84.2726 57.6054 84.7452 61.3077 84.5123 64.6145C84.4095 66.0463 84.3753 66.2509 84.2452 66.2509M32.1095 74.3236C32.1575 74.2759 32.1027 74.085 31.9452 73.7305C31.5479 72.8714 31.0411 71.4668 30.7123 70.3145C28.5137 62.6781 29.8014 54.4826 34.267 47.7735C38.3149 41.6848 44.8284 37.4234 52.1296 36.0871C53.835 35.7734 54.9446 35.678 57.0062 35.678C59.5129 35.678 61.1773 35.8689 63.4786 36.428C70.1428 38.0507 75.9509 42.1007 79.759 47.7735C82.1836 51.394 83.6767 55.4917 84.1972 59.944C84.4027 61.7168 84.4027 64.26 84.1835 65.9236C84.1589 66.1628 84.162 66.2365 84.2227 66.2489M32.1095 74.3236L38.061 71.868M84.2452 66.2509L84.2227 66.2489M84.2452 66.2509C84.2369 66.2509 84.2294 66.2503 84.2227 66.2489M73.7407 179.026C57.797 182.836 44.6292 185.981 44.4858 186.012C44.2861 186.053 44.2144 186.094 44.2144 186.155C44.2144 186.201 45.2387 190.242 46.4832 195.128C48.7368 203.938 48.7573 204.014 48.8751 203.999C49.1772 203.953 107.487 190.007 107.518 189.971C107.549 189.94 104.496 177.843 103.185 172.808C103.001 172.101 102.996 172.081 102.862 172.086C102.791 172.091 89.6844 175.21 73.7407 179.026ZM105.131 181.049C106.366 185.894 107.37 189.863 107.359 189.874C107.349 189.884 103.754 190.744 99.3746 191.789C94.9956 192.834 81.8483 195.973 70.1607 198.765C56.03 202.14 48.8955 203.82 48.8751 203.784C48.8392 203.728 44.409 186.396 44.3987 186.273C44.3936 186.217 51.4922 184.501 73.5871 179.22C89.6435 175.384 102.806 172.24 102.832 172.24C102.862 172.24 103.892 176.199 105.131 181.049Z" stroke="#595959" stroke-width="0.5"/>
</g>
<defs>
<filter id="filter0_di" x="0.75" y="0.75" width="154.096" height="232.5" filterUnits="userSpaceOnUse" color-interpolation-filters="sRGB">
<feFlood flood-opacity="0" result="BackgroundImageFix"/>
<feColorMatrix in="SourceAlpha" type="matrix" values="0 0 0 0 0 0 0 0 0 0 0 0 0 0 0 0 0 0 127 0"/>
<feOffset dx="13" dy="7"/>
<feGaussianBlur stdDeviation="11"/>
<feColorMatrix type="matrix" values="0 0 0 0 0 0 0 0 0 0 0 0 0 0 0 0 0 0 0.25 0"/>
<feBlend mode="normal" in2="BackgroundImageFix" result="effect1_dropShadow"/>
<feBlend mode="normal" in="SourceGraphic" in2="effect1_dropShadow" result="shape"/>
<feColorMatrix in="SourceAlpha" type="matrix" values="0 0 0 0 0 0 0 0 0 0 0 0 0 0 0 0 0 0 127 0" result="hardAlpha"/>
<feOffset dy="4"/>
<feGaussianBlur stdDeviation="2"/>
<feComposite in2="hardAlpha" operator="arithmetic" k2="-1" k3="1"/>
<feColorMatrix type="matrix" values="0 0 0 0 1 0 0 0 0 1 0 0 0 0 1 0 0 0 0.25 0"/>
<feBlend mode="normal" in2="shape" result="effect2_innerShadow"/>
</filter>
<radialGradient id="paint0_radial" cx="0" cy="0" r="1" gradientUnits="userSpaceOnUse" gradientTransform="translate(64.7978 110) scale(54.7978 94)">
<stop stop-color="white"/>
<stop offset="0.5" stop-color="#DFE4EC"/>
<stop offset="1" stop-color="#BFC9D8"/>
</radialGradient>
<radialGradient id="paint1_radial" cx="0" cy="0" r="1" gradientUnits="userSpaceOnUse" gradientTransform="translate(64.7978 110) scale(54.7978 94)">
<stop stop-color="white"/>
<stop offset="0.5" stop-color="#DFE4EC"/>
<stop offset="1" stop-color="#BFC9D8"/>
</radialGradient>
<radialGradient id="paint2_radial" cx="0" cy="0" r="1" gradientUnits="userSpaceOnUse" gradientTransform="translate(64.7978 110) scale(54.7978 94)">
<stop stop-color="white"/>
<stop offset="0.5" stop-color="#DFE4EC"/>
<stop offset="1" stop-color="#BFC9D8"/>
</radialGradient>
<radialGradient id="paint3_radial" cx="0" cy="0" r="1" gradientUnits="userSpaceOnUse" gradientTransform="translate(64.7978 110) scale(54.7978 94)">
<stop stop-color="white"/>
<stop offset="0.5" stop-color="#DFE4EC"/>
<stop offset="1" stop-color="#BFC9D8"/>
</radialGradient>
<radialGradient id="paint4_radial" cx="0" cy="0" r="1" gradientUnits="userSpaceOnUse" gradientTransform="translate(64.7978 110) scale(54.7978 94)">
<stop stop-color="white"/>
<stop offset="0.5" stop-color="#DFE4EC"/>
<stop offset="1" stop-color="#BFC9D8"/>
</radialGradient>
<radialGradient id="paint5_radial" cx="0" cy="0" r="1" gradientUnits="userSpaceOnUse" gradientTransform="translate(64.7978 110) scale(54.7978 94)">
<stop stop-color="white"/>
<stop offset="0.5" stop-color="#DFE4EC"/>
<stop offset="1" stop-color="#BFC9D8"/>
</radialGradient>
<radialGradient id="paint6_radial" cx="0" cy="0" r="1" gradientUnits="userSpaceOnUse" gradientTransform="translate(64.7978 110) scale(54.7978 94)">
<stop stop-color="white"/>
<stop offset="0.5" stop-color="#DFE4EC"/>
<stop offset="1" stop-color="#BFC9D8"/>
</radialGradient>
<radialGradient id="paint7_radial" cx="0" cy="0" r="1" gradientUnits="userSpaceOnUse" gradientTransform="translate(64.7978 110) scale(54.7978 94)">
<stop stop-color="white"/>
<stop offset="0.5" stop-color="#DFE4EC"/>
<stop offset="1" stop-color="#BFC9D8"/>
</radialGradient>
<radialGradient id="paint8_radial" cx="0" cy="0" r="1" gradientUnits="userSpaceOnUse" gradientTransform="translate(64.7978 110) scale(54.7978 94)">
<stop stop-color="white"/>
<stop offset="0.5" stop-color="#DFE4EC"/>
<stop offset="1" stop-color="#BFC9D8"/>
</radialGradient>
</defs>
</svg>
