<svg width="215" height="234" viewBox="0 0 215 234" fill="none" xmlns="http://www.w3.org/2000/svg">
<g filter="url(#filter0_di)">
<path d="M94.7227 16.012C93.6086 16.0969 92.5952 16.4471 91.7092 17.0466C91.2158 17.3808 90.4412 18.1607 90.091 18.6754C89.7038 19.2324 89.5074 19.625 89.2899 20.2405C88.9557 21.1955 88.9663 20.8082 88.9663 29.7478C88.9663 35.2443 88.9822 38.0137 89.0247 38.2896C89.3483 40.6399 90.9877 42.5658 93.2213 43.2131C93.9269 43.4147 94.4574 43.473 95.354 43.4412C96.3727 43.4094 96.9563 43.2608 97.8529 42.8205C99.0944 42.2156 99.9273 41.3668 100.532 40.1094C100.85 39.4303 101.036 38.7618 101.116 37.9766C101.158 37.5522 101.169 35.0745 101.153 29.3711C101.137 22.0708 101.126 21.3281 101.047 20.9991C100.564 19.0414 99.4552 17.5771 97.7733 16.6699C96.9192 16.2136 95.6512 15.9378 94.7227 16.012ZM95.5557 16.1871C98.3304 16.4524 100.633 18.7496 100.957 21.5774C100.999 21.9541 101.01 24.4052 100.994 30.1404C100.978 37.3081 100.967 38.2206 100.893 38.5496C100.585 39.86 100.055 40.8521 99.2164 41.6639C98.4949 42.3589 97.6036 42.8629 96.622 43.1229C95.9323 43.3033 94.7015 43.351 93.9693 43.2237C92.5899 42.9849 91.2901 42.2316 90.4359 41.1758C90.038 40.6771 89.5658 39.7964 89.396 39.2287C89.1201 38.2949 89.1255 38.5443 89.1255 29.7584C89.1255 21.7366 89.1255 21.5774 89.2316 21.0575C89.7568 18.4844 91.9426 16.4577 94.4787 16.1924C94.7015 16.1659 94.9084 16.1447 94.9349 16.1394C94.9668 16.1394 95.2426 16.1606 95.5557 16.1871Z" fill="url(#paint0_radial)"/>
<path d="M27.9536 49.5106C26.622 49.6433 25.3221 50.2322 24.468 51.081C24.1125 51.4418 23.4758 52.2907 23.2212 52.747C22.4572 54.1264 22.2609 55.7817 22.68 57.3574C22.8339 57.9357 23.2689 58.8748 23.6191 59.3682C24.2133 60.2064 24.261 60.2436 30.9512 64.8593C34.3998 67.2414 37.2541 69.2257 37.2912 69.2681C37.4345 69.4432 38.2409 69.9313 38.6441 70.0958C39.3657 70.3823 39.9546 70.4778 40.8724 70.4459C41.7956 70.4194 42.2943 70.2974 43.106 69.9048C44.6764 69.1461 46.1566 67.4006 46.5864 65.7931C46.6872 65.4111 46.7031 65.2148 46.7031 64.4932C46.6978 63.7452 46.6819 63.5807 46.5598 63.1138C46.2733 62.0527 45.5253 60.8112 44.687 60.0048C44.3103 59.644 32.4208 50.6937 31.8531 50.3436C30.8398 49.7175 29.2482 49.378 27.9536 49.5106ZM29.7999 49.7494C30.4101 49.8767 30.8557 50.0253 31.3916 50.2905C31.7948 50.4868 33.0203 51.3835 38.0234 55.145C41.3976 57.681 44.2679 59.851 44.4005 59.973C45.382 60.8802 46.0717 61.9837 46.4007 63.1722C46.5333 63.6443 46.5439 63.7823 46.5439 64.5198C46.5439 65.1935 46.5227 65.4164 46.4272 65.7665C46.0081 67.2839 44.5597 68.9975 43.0476 69.7562C42.6073 69.9791 42.0078 70.1754 41.5197 70.2496C40.883 70.3557 39.8113 70.2921 39.2383 70.1223C38.6282 69.9419 38.0499 69.6501 37.6732 69.3424C37.5087 69.2045 34.5165 67.1194 31.0255 64.7107C24.3937 60.1321 24.3778 60.1162 23.8048 59.3363C23.2955 58.6413 22.8498 57.5961 22.6959 56.7207C22.5474 55.8613 22.6323 54.7365 22.9188 53.8505C23.253 52.8 24.2239 51.4206 25.0675 50.7786C25.911 50.142 26.8872 49.7865 28.1659 49.6433C28.4842 49.6061 29.3914 49.6698 29.7999 49.7494Z" fill="url(#paint1_radial)"/>
<path d="M160.24 49.5053C159.338 49.6008 158.362 49.9138 157.656 50.3436C157.051 50.7097 144.817 59.9093 144.419 60.2966C142.673 61.9837 142.153 64.2386 143.029 66.3342C143.193 66.7374 143.363 67.0239 144.005 67.9789C144.44 68.6209 144.774 68.9922 145.262 69.3477C145.735 69.7032 146.615 70.117 147.257 70.2868C147.735 70.4194 147.857 70.43 148.785 70.43C149.655 70.43 149.852 70.4141 150.218 70.3133C150.796 70.1541 151.629 69.735 152.053 69.3848C152.244 69.2257 155.109 67.1672 158.42 64.8062C162.967 61.5646 164.537 60.4186 164.839 60.1162C165.8 59.1612 166.468 57.9516 166.781 56.604C166.845 56.3228 166.871 55.978 166.866 55.3148C166.866 54.5137 166.85 54.3545 166.728 53.8929C166.484 52.9804 165.858 51.9087 165.11 51.1341C163.98 49.9616 162.049 49.3196 160.24 49.5053ZM162.166 49.7706C163.646 50.0783 164.739 50.8052 165.662 52.0997C166.378 53.1024 166.675 53.9407 166.728 55.1026C166.803 56.8534 166.113 58.567 164.786 59.9146C164.33 60.3762 163.662 60.8643 158.229 64.7373C154.908 67.1035 152.064 69.1461 151.915 69.2787C151.581 69.5705 150.722 70.0003 150.165 70.1541C149.804 70.2496 149.592 70.2709 148.785 70.2709C147.899 70.2762 147.793 70.2655 147.3 70.1276C147.008 70.048 146.509 69.8517 146.186 69.6926C145.289 69.2522 144.684 68.7217 144.175 67.9205C144.085 67.7826 143.862 67.4483 143.687 67.1831C142.238 65.045 142.53 62.4347 144.429 60.5141C144.679 60.2595 146.923 58.5458 151.199 55.3413C156.977 51.0121 157.651 50.524 158.176 50.2693C159.439 49.6592 160.807 49.4841 162.166 49.7706Z" fill="url(#paint2_radial)"/>
<path d="M93.529 57.1452C84.0375 57.4635 74.753 60.7688 67.0017 66.5942C65.0652 68.0479 63.7919 69.162 61.9616 70.9924C60.1524 72.7963 59.0276 74.0855 57.5846 76.0061C55.1441 79.253 53.1121 82.8395 51.6265 86.5108C49.4938 91.7898 48.4857 95.997 48.0507 101.446C47.9658 102.523 47.9658 106.518 48.0507 107.6C48.4539 112.693 49.4142 117.022 51.1384 121.548C51.3135 122.004 51.5894 122.758 51.7539 123.225C52.051 124.084 52.5338 125.161 52.8415 125.66C52.937 125.808 53.2235 126.323 53.4888 126.806C55.0751 129.724 56.7887 132.164 59.6537 135.586C63.967 140.743 68.4077 149.036 70.6041 156.028L70.8217 156.713V162.225L70.5192 162.442C68.6252 163.779 67.1874 165.992 66.6728 168.347L66.5508 168.904V184.078L66.6728 184.625C67.0336 186.269 67.7976 187.834 68.8905 189.177C69.1345 189.479 70.2699 190.561 72.27 192.397C73.9306 193.914 75.4215 195.267 75.5859 195.395C76.4932 196.095 77.9734 196.827 79.1035 197.124L79.4483 197.22L79.7719 197.702C81.91 200.902 85.5496 203.13 89.8523 203.867L90.6163 204H94.9349C99.0042 204 99.2854 203.995 99.8796 203.894C104.034 203.188 107.854 200.923 110.262 197.724L110.628 197.241L111.217 197.045C112.194 196.726 113.127 196.206 113.934 195.533C114.661 194.928 120.088 189.925 120.449 189.521C121.706 188.142 122.576 186.455 122.985 184.582L123.107 184.025V168.958L122.99 168.422C122.544 166.427 121.388 164.512 119.759 163.084L119.26 162.649V156.718L119.451 156.097C120.587 152.463 122.523 148.102 124.725 144.239C126.624 140.902 129.293 136.902 130.646 135.353C131.999 133.809 133.378 132.021 134.498 130.36C136.986 126.668 138.742 123.06 140.18 118.662C142.323 112.11 142.97 105.287 142.1 98.4481C140.986 89.6835 137.357 81.3274 131.68 74.4409C129.914 72.2975 127.606 69.9791 125.478 68.2123C120.571 64.1378 115.255 61.2728 108.649 59.1559C105.684 58.201 102.378 57.5537 99.0997 57.2778C98.1872 57.2035 95.3647 57.0868 94.8819 57.1027C94.7651 57.108 94.155 57.124 93.529 57.1452ZM96.6327 57.3043C102.294 57.5006 106.782 58.4556 112.39 60.6733C119.499 63.4799 125.696 67.8357 130.667 73.5125C139.702 83.8316 143.814 97.6311 141.83 110.969C141.108 115.813 139.57 120.704 137.4 125.055C135.569 128.721 133.304 132.074 130.476 135.294C129.882 135.974 129.123 137.003 127.945 138.748C124.12 144.404 121.324 149.932 119.478 155.503L119.101 156.638V162.75L119.425 163.015C119.828 163.35 120.698 164.241 121.017 164.66C122.067 166.024 122.741 167.578 122.921 169.048C122.964 169.403 122.974 171.621 122.964 176.81L122.942 184.078L122.826 184.603C122.428 186.338 121.648 187.877 120.454 189.272C120.205 189.569 115.074 194.318 114.04 195.214C113.127 196.005 112.209 196.541 111.148 196.891L110.533 197.098L110.055 197.724C109.482 198.477 108.241 199.74 107.493 200.334C105.212 202.132 102.453 203.332 99.4976 203.804C98.7761 203.915 98.6328 203.92 94.9614 203.92C91.3166 203.92 91.1362 203.915 90.4147 203.804C87.2473 203.31 84.6689 202.207 82.4618 200.403C81.4803 199.596 80.6367 198.663 79.7826 197.427L79.5491 197.092L78.9921 196.917C77.6657 196.514 76.3605 195.83 75.4586 195.076C75.1615 194.827 70.4556 190.519 69.8189 189.914C68.9435 189.081 68.222 188.089 67.6649 186.943C67.267 186.131 67.0654 185.574 66.8585 184.709L66.7099 184.078V176.518C66.7099 169.329 66.7152 168.936 66.8107 168.48C67.1185 166.989 67.8188 165.514 68.795 164.31C69.2141 163.79 70.116 162.931 70.5988 162.591L70.9755 162.326L70.9808 159.487V156.649L70.6041 155.508C68.917 150.383 66.381 145.125 63.272 140.276C61.9987 138.287 61.0278 136.966 59.537 135.183C56.9214 132.048 55.1016 129.443 53.701 126.838C53.4781 126.424 53.197 125.92 53.0696 125.718C52.7354 125.177 52.242 124.116 51.982 123.384C51.86 123.034 51.5523 122.185 51.2976 121.5C50.3904 119.065 49.7484 116.938 49.2603 114.762C47.3875 106.385 47.8172 97.9282 50.5177 89.9541C53.0802 82.4097 56.8524 76.2713 62.2003 70.9712C68.4501 64.7691 76.2332 60.4664 84.828 58.4503C87.7036 57.7765 91.046 57.3521 93.9534 57.2884C94.2877 57.2778 94.6962 57.2672 94.8553 57.2619C95.0145 57.2566 95.8156 57.2778 96.6327 57.3043Z" fill="url(#paint3_radial)"/>
<path d="M93.5184 71.3638C87.9158 71.6821 82.2708 73.4753 77.0184 76.6003C76.456 76.9345 76.2757 77.1361 76.594 77.0724C76.8115 77.03 78.5623 76.8337 79.3104 76.7753C79.6765 76.7435 80.6527 76.7064 81.4856 76.6851C87.2208 76.5631 92.4148 77.7303 97.5187 80.2822C103.471 83.2586 108.427 87.9539 111.711 93.7262C115.621 100.602 116.921 108.587 115.382 116.274C114.984 118.259 114.035 121.346 113.149 123.522C111.658 127.166 109.116 130.726 105.785 133.835C105.286 134.297 104.888 134.7 104.899 134.732C104.909 134.769 105.286 134.796 105.97 134.806C107.159 134.822 107.074 134.838 108.331 134.339C113.775 132.175 118.502 128.429 122.083 123.431C124.003 120.747 125.648 117.495 126.63 114.417C127.394 112.035 127.887 109.436 128.073 106.815C128.152 105.674 128.105 102.533 127.993 101.499C127.494 96.9413 126.364 93.2222 124.136 88.8187C121.669 83.9218 117.828 79.7411 113.026 76.717C110.597 75.189 108.023 74.0218 104.617 72.913C102.23 72.1384 99.6992 71.6237 97.2693 71.4168C96.3303 71.3426 94.4097 71.3107 93.5184 71.3638ZM97.2587 71.576C99.7682 71.7882 102.426 72.3453 104.978 73.1995C108.268 74.2977 110.979 75.571 113.424 77.1679C118.003 80.1602 121.664 84.2454 124.057 89.0256C126.216 93.3283 127.351 97.0846 127.829 101.472C127.951 102.555 127.993 105.626 127.914 106.825C127.664 110.359 126.847 113.807 125.505 116.959C122.051 125.087 115.695 131.353 107.864 134.345L107.053 134.658H105.18L106.267 133.602C107.753 132.159 108.777 131.008 109.87 129.559C111.249 127.734 112.485 125.58 113.297 123.596C113.695 122.614 114.639 119.84 114.963 118.699C116.273 114.099 116.528 108.889 115.674 104.205C114.745 99.1272 112.804 94.5963 109.748 90.3838C108.724 88.9726 107.79 87.8956 106.32 86.4313C103.758 83.874 101.1 81.9375 97.906 80.2982C92.9242 77.7409 87.8203 76.5101 82.2284 76.5101C80.6739 76.5101 78.5305 76.648 77.2678 76.8231C77.0927 76.8496 76.9441 76.8602 76.9335 76.8549C76.8964 76.8231 78.6525 75.8575 79.7242 75.3216C84.2232 73.0721 88.8814 71.7829 93.4759 71.5229C94.415 71.4699 96.3037 71.4964 97.2587 71.576Z" fill="url(#paint4_radial)"/>
<path d="M75.5807 169.976C75.5594 169.992 75.5435 172.931 75.5435 176.502C75.5435 183.712 75.5223 183.277 75.8937 183.431C76.0422 183.489 76.7691 184.184 78.435 185.85L80.7694 188.19H85.921L86.1173 188.391C86.303 188.582 86.3136 188.609 86.3136 188.959C86.3242 190.848 86.8335 192.126 88.0538 193.288C89.0512 194.238 90.2927 194.806 91.8153 195.007C92.6854 195.124 97.3967 195.124 98.2667 195.007C99.8531 194.8 101.057 194.233 102.103 193.203C103.238 192.079 103.662 191.071 103.747 189.304C103.779 188.54 103.784 188.535 103.944 188.365L104.108 188.19H106.495L108.888 188.184L111.504 185.792L114.114 183.399L114.088 169.966L94.85 169.95C84.271 169.944 75.5966 169.955 75.5807 169.976ZM113.95 183.335L111.377 185.68L108.803 188.031H104.055L103.837 188.253L103.62 188.482L103.588 189.267C103.567 189.697 103.53 190.174 103.503 190.328C103.302 191.389 102.691 192.482 101.896 193.209C101.031 193.994 100.028 194.493 98.7124 194.779C98.1819 194.896 98.097 194.901 95.041 194.901C91.9851 194.901 91.9002 194.896 91.3697 194.779C89.9531 194.466 88.9026 193.92 88.0378 193.05C87.5126 192.524 87.1518 191.983 86.8919 191.352C86.6266 190.71 86.5311 190.211 86.4939 189.267L86.4621 188.482L86.2446 188.253L86.0271 188.031H80.8224L78.4615 185.67C77.1617 184.37 76.0687 183.309 76.0316 183.309C75.9945 183.309 75.9043 183.25 75.8353 183.176L75.7027 183.049V170.098H113.955L113.95 183.335Z" fill="url(#paint5_radial)"/>
<path d="M29.0678 117.675C28.4417 117.818 13.6714 122.779 13.2522 122.986C12.4883 123.368 11.8039 123.92 11.268 124.593C10.8223 125.15 10.3342 126.121 10.1432 126.832C10.0159 127.31 10 127.458 10 128.318C10 129.156 10.0106 129.326 10.122 129.724C10.6367 131.618 12.276 133.305 14.2391 133.963C15.0136 134.217 15.5707 134.302 16.3878 134.276C17.0669 134.255 17.1252 134.244 17.5815 134.058C17.8468 133.947 21.3908 132.843 25.4601 131.602C29.5294 130.36 33.031 129.262 33.2485 129.167C34.4104 128.625 35.4608 127.602 36.0444 126.44C36.6917 125.15 36.8615 123.67 36.5166 122.323C36.2938 121.463 35.6147 120.354 34.7977 119.532C33.901 118.625 32.9885 118.084 31.8001 117.749C31.1316 117.564 29.7416 117.526 29.0678 117.675ZM31.19 117.792C32.0176 117.914 32.9779 118.312 33.7843 118.863C34.665 119.474 35.5776 120.572 36.0657 121.612C36.5803 122.705 36.6705 123.951 36.3362 125.241C36.0869 126.185 35.3866 127.352 34.6756 128.005C34.2512 128.392 33.4978 128.885 33.0203 129.082C32.8187 129.167 29.3914 130.228 25.407 131.443C21.4226 132.658 17.9157 133.751 17.608 133.873C17.0722 134.09 17.0297 134.095 16.3559 134.117C15.0349 134.154 13.9526 133.825 12.7482 133.024C11.581 132.238 10.6101 130.933 10.2812 129.697C10.1432 129.167 10.0902 128.063 10.1751 127.495C10.4563 125.67 11.6182 124.031 13.2204 123.193C13.5069 123.044 15.9686 122.195 21.1521 120.46C25.285 119.076 28.8131 117.903 28.9882 117.861C29.5983 117.702 30.3888 117.675 31.19 117.792Z" fill="url(#paint6_radial)"/>
<path fill-rule="evenodd" clip-rule="evenodd" d="M96.6327 57.3043C102.294 57.5006 106.782 58.4556 112.39 60.6733C119.499 63.4799 125.696 67.8357 130.667 73.5125C139.702 83.8316 143.814 97.6311 141.83 110.969C141.108 115.813 139.57 120.704 137.4 125.055C135.569 128.721 133.304 132.074 130.476 135.294C129.882 135.974 129.123 137.003 127.945 138.748C124.12 144.404 121.324 149.932 119.478 155.503L119.101 156.638V162.75L119.425 163.015C119.828 163.35 120.698 164.241 121.017 164.66C122.067 166.024 122.741 167.578 122.921 169.048C122.964 169.403 122.974 171.621 122.964 176.81L122.942 184.078L122.826 184.603C122.428 186.338 121.648 187.877 120.454 189.272C120.205 189.569 115.074 194.318 114.04 195.214C113.127 196.005 112.209 196.541 111.148 196.891L110.533 197.098L110.055 197.724C109.482 198.477 108.241 199.74 107.493 200.334C105.212 202.132 102.453 203.332 99.4976 203.804C98.7761 203.915 98.6328 203.92 94.9614 203.92C91.3166 203.92 91.1362 203.915 90.4147 203.804C87.2473 203.31 84.6689 202.207 82.4618 200.403C81.4803 199.596 80.6367 198.663 79.7826 197.427L79.5491 197.092L78.9921 196.917C77.6657 196.514 76.3605 195.83 75.4586 195.076C75.1615 194.827 70.4556 190.519 69.8189 189.914C68.9435 189.081 68.222 188.089 67.6649 186.943C67.267 186.131 67.0654 185.574 66.8585 184.709L66.7099 184.078V176.518C66.7099 169.329 66.7152 168.936 66.8107 168.48C67.1185 166.989 67.8188 165.514 68.795 164.31C69.2141 163.79 70.116 162.931 70.5988 162.591L70.9755 162.326L70.9808 159.487V156.649L70.6041 155.508C68.917 150.383 66.381 145.125 63.272 140.276C61.9987 138.287 61.0278 136.966 59.537 135.183C56.9214 132.048 55.1016 129.443 53.701 126.838C53.4781 126.424 53.197 125.92 53.0696 125.718C52.7354 125.177 52.242 124.116 51.982 123.384C51.86 123.034 51.5523 122.185 51.2976 121.5C50.3904 119.065 49.7484 116.938 49.2603 114.762C47.3875 106.385 47.8172 97.9282 50.5177 89.9541C53.0802 82.4097 56.8524 76.2713 62.2003 70.9712C68.4501 64.7691 76.2332 60.4664 84.828 58.4503C87.7036 57.7765 91.046 57.3521 93.9534 57.2884C94.2877 57.2778 94.6962 57.2672 94.8553 57.2619C95.0145 57.2566 95.8156 57.2778 96.6327 57.3043ZM77.0184 76.6003C82.2708 73.4753 87.9158 71.6821 93.5184 71.3638C94.4097 71.3107 96.3303 71.3426 97.2693 71.4168C99.6992 71.6237 102.23 72.1384 104.617 72.913C108.023 74.0218 110.597 75.189 113.026 76.717C117.828 79.7411 121.669 83.9218 124.136 88.8187C126.364 93.2222 127.494 96.9413 127.993 101.499C128.105 102.533 128.152 105.674 128.073 106.815C127.887 109.436 127.394 112.035 126.63 114.417C125.648 117.495 124.003 120.747 122.083 123.431C118.502 128.429 113.775 132.175 108.331 134.339C107.074 134.838 107.159 134.822 105.97 134.806C105.286 134.796 104.909 134.769 104.899 134.732C104.888 134.7 105.286 134.297 105.785 133.835C109.116 130.726 111.658 127.166 113.149 123.522C114.035 121.346 114.984 118.259 115.382 116.274C116.921 108.587 115.621 100.602 111.711 93.7262C108.427 87.9539 103.471 83.2586 97.5187 80.2822C92.4148 77.7303 87.2208 76.5631 81.4856 76.6851C80.6527 76.7064 79.6765 76.7435 79.3104 76.7753C78.5623 76.8337 76.8115 77.03 76.594 77.0724C76.2757 77.1361 76.456 76.9345 77.0184 76.6003ZM75.5435 176.502C75.5435 172.931 75.5594 169.992 75.5807 169.976C75.5966 169.955 84.271 169.944 94.85 169.95L114.088 169.966L114.114 183.399L111.504 185.792L108.888 188.184L106.495 188.19H104.108L103.944 188.365C103.784 188.535 103.779 188.54 103.747 189.304C103.662 191.071 103.238 192.079 102.103 193.203C101.057 194.233 99.8531 194.8 98.2667 195.007C97.3967 195.124 92.6854 195.124 91.8153 195.007C90.2927 194.806 89.0512 194.238 88.0538 193.288C86.8335 192.126 86.3242 190.848 86.3136 188.959C86.3136 188.609 86.303 188.582 86.1173 188.391L85.921 188.19H80.7694L78.435 185.85C76.7691 184.184 76.0422 183.489 75.8937 183.431C75.5223 183.277 75.5435 183.712 75.5435 176.502Z" fill="url(#paint7_radial)"/>
<path d="M29.7999 49.7494C30.4101 49.8767 30.8557 50.0253 31.3916 50.2905C31.7948 50.4868 33.0203 51.3835 38.0234 55.145C41.3976 57.681 44.2679 59.851 44.4005 59.973C45.382 60.8802 46.0717 61.9837 46.4007 63.1722C46.5333 63.6443 46.5439 63.7823 46.5439 64.5198C46.5439 65.1935 46.5227 65.4164 46.4272 65.7665C46.0081 67.2839 44.5597 68.9975 43.0476 69.7562C42.6073 69.9791 42.0078 70.1754 41.5197 70.2496C40.883 70.3557 39.8113 70.2921 39.2383 70.1223C38.6282 69.9419 38.0499 69.6501 37.6732 69.3424C37.5087 69.2045 34.5165 67.1194 31.0255 64.7107C24.3937 60.1321 24.3778 60.1162 23.8048 59.3363C23.2955 58.6413 22.8498 57.5961 22.6959 56.7207C22.5474 55.8613 22.6323 54.7365 22.9188 53.8505C23.253 52.8 24.2239 51.4206 25.0675 50.7786C25.911 50.142 26.8872 49.7865 28.1659 49.6433C28.4842 49.6061 29.3914 49.6698 29.7999 49.7494Z" fill="url(#paint8_radial)"/>
<path d="M31.19 117.792C32.0176 117.914 32.9779 118.312 33.7843 118.863C34.665 119.474 35.5776 120.572 36.0657 121.612C36.5803 122.705 36.6705 123.951 36.3362 125.241C36.0869 126.185 35.3866 127.352 34.6756 128.005C34.2512 128.392 33.4978 128.885 33.0203 129.082C32.8187 129.167 29.3914 130.228 25.407 131.443C21.4226 132.658 17.9157 133.751 17.608 133.873C17.0722 134.09 17.0297 134.095 16.3559 134.117C15.0349 134.154 13.9526 133.825 12.7482 133.024C11.581 132.238 10.6101 130.933 10.2812 129.697C10.1432 129.167 10.0902 128.063 10.1751 127.495C10.4563 125.67 11.6182 124.031 13.2204 123.193C13.5069 123.044 15.9686 122.195 21.1521 120.46C25.285 119.076 28.8131 117.903 28.9882 117.861C29.5983 117.702 30.3888 117.675 31.19 117.792Z" fill="url(#paint9_radial)"/>
<path d="M95.5557 16.1871C98.3304 16.4524 100.633 18.7496 100.957 21.5774C100.999 21.9541 101.01 24.4052 100.994 30.1404C100.978 37.3081 100.967 38.2206 100.893 38.5496C100.585 39.86 100.055 40.8521 99.2164 41.6639C98.4949 42.3589 97.6036 42.8629 96.622 43.1229C95.9323 43.3033 94.7015 43.351 93.9693 43.2237C92.5899 42.9849 91.2901 42.2316 90.4359 41.1758C90.038 40.6771 89.5658 39.7964 89.396 39.2287C89.1201 38.2949 89.1255 38.5443 89.1255 29.7584C89.1255 21.7366 89.1255 21.5774 89.2316 21.0575C89.7568 18.4844 91.9426 16.4577 94.4787 16.1924C94.7015 16.1659 94.9084 16.1447 94.9349 16.1394C94.9668 16.1394 95.2426 16.1606 95.5557 16.1871Z" fill="url(#paint10_radial)"/>
<path d="M162.166 49.7706C163.646 50.0783 164.739 50.8052 165.662 52.0997C166.378 53.1024 166.675 53.9407 166.728 55.1026C166.803 56.8534 166.113 58.567 164.786 59.9146C164.33 60.3762 163.662 60.8643 158.229 64.7373C154.908 67.1035 152.064 69.1461 151.915 69.2787C151.581 69.5705 150.722 70.0003 150.165 70.1541C149.804 70.2496 149.592 70.2709 148.785 70.2709C147.899 70.2762 147.793 70.2655 147.3 70.1276C147.008 70.048 146.509 69.8517 146.186 69.6926C145.289 69.2522 144.684 68.7217 144.175 67.9205C144.085 67.7826 143.862 67.4483 143.687 67.1831C142.238 65.045 142.53 62.4347 144.429 60.5141C144.679 60.2595 146.923 58.5458 151.199 55.3413C156.977 51.0121 157.651 50.524 158.176 50.2693C159.439 49.6592 160.807 49.4841 162.166 49.7706Z" fill="url(#paint11_radial)"/>
<path d="M157.81 117.659C156.664 117.866 155.56 118.418 154.68 119.224C153.947 119.893 153.295 121.033 152.992 122.174C152.833 122.768 152.823 122.848 152.823 123.782C152.823 124.678 152.839 124.811 152.966 125.283C153.258 126.381 153.735 127.251 154.473 128.026C155.009 128.594 155.56 129.002 156.149 129.273C156.377 129.379 159.661 130.376 164.012 131.66C168.405 132.955 171.535 133.91 171.609 133.968C171.912 134.207 172.23 134.26 173.27 134.255C174.098 134.255 174.315 134.233 174.66 134.138C175.954 133.782 177.042 133.04 177.864 131.957C178.252 131.448 178.75 130.472 178.994 129.74C179.138 129.326 179.159 127.745 179.154 127.32C179.159 126.885 179.138 126.726 179.021 126.392C178.533 124.933 177.382 123.612 175.981 122.912C175.387 122.609 160.887 117.765 160.271 117.659C159.656 117.553 158.393 117.553 157.81 117.659Z" fill="url(#paint12_radial)"/>
<path d="M94.7227 16.012C93.6086 16.0969 92.5952 16.4471 91.7092 17.0466C91.2158 17.3808 90.4412 18.1607 90.091 18.6754C89.7038 19.2324 89.5074 19.625 89.2899 20.2405C88.9557 21.1955 88.9663 20.8082 88.9663 29.7478C88.9663 35.2443 88.9822 38.0137 89.0247 38.2896C89.3483 40.6399 90.9877 42.5658 93.2213 43.2131C93.9269 43.4147 94.4574 43.473 95.354 43.4412C96.3727 43.4094 96.9563 43.2608 97.8529 42.8205C99.0944 42.2156 99.9273 41.3668 100.532 40.1094C100.85 39.4303 101.036 38.7618 101.116 37.9766C101.158 37.5522 101.169 35.0745 101.153 29.3711C101.137 22.0708 101.126 21.3281 101.047 20.9991C100.564 19.0414 99.4552 17.5771 97.7733 16.6699C96.9192 16.2136 95.6512 15.9378 94.7227 16.012ZM95.5557 16.1871C98.3304 16.4524 100.633 18.7496 100.957 21.5774C100.999 21.9541 101.01 24.4052 100.994 30.1404C100.978 37.3081 100.967 38.2206 100.893 38.5496C100.585 39.86 100.055 40.8521 99.2164 41.6639C98.4949 42.3589 97.6036 42.8629 96.622 43.1229C95.9323 43.3033 94.7015 43.351 93.9693 43.2237C92.5899 42.9849 91.2901 42.2316 90.4359 41.1758C90.038 40.6771 89.5658 39.7964 89.396 39.2287C89.1201 38.2949 89.1255 38.5443 89.1255 29.7584C89.1255 21.7366 89.1255 21.5774 89.2316 21.0575C89.7568 18.4844 91.9426 16.4577 94.4787 16.1924C94.7015 16.1659 94.9084 16.1447 94.9349 16.1394C94.9668 16.1394 95.2426 16.1606 95.5557 16.1871Z" stroke="#595959" stroke-width="0.5"/>
<path d="M27.9536 49.5106C26.622 49.6433 25.3221 50.2322 24.468 51.081C24.1125 51.4418 23.4758 52.2907 23.2212 52.747C22.4572 54.1264 22.2609 55.7817 22.68 57.3574C22.8339 57.9357 23.2689 58.8748 23.6191 59.3682C24.2133 60.2064 24.261 60.2436 30.9512 64.8593C34.3998 67.2414 37.2541 69.2257 37.2912 69.2681C37.4345 69.4432 38.2409 69.9313 38.6441 70.0958C39.3657 70.3823 39.9546 70.4778 40.8724 70.4459C41.7956 70.4194 42.2943 70.2974 43.106 69.9048C44.6764 69.1461 46.1566 67.4006 46.5864 65.7931C46.6872 65.4111 46.7031 65.2148 46.7031 64.4932C46.6978 63.7452 46.6819 63.5807 46.5598 63.1138C46.2733 62.0527 45.5253 60.8112 44.687 60.0048C44.3103 59.644 32.4208 50.6937 31.8531 50.3436C30.8398 49.7175 29.2482 49.378 27.9536 49.5106ZM29.7999 49.7494C30.4101 49.8767 30.8557 50.0253 31.3916 50.2905C31.7948 50.4868 33.0203 51.3835 38.0234 55.145C41.3976 57.681 44.2679 59.851 44.4005 59.973C45.382 60.8802 46.0717 61.9837 46.4007 63.1722C46.5333 63.6443 46.5439 63.7823 46.5439 64.5198C46.5439 65.1935 46.5227 65.4164 46.4272 65.7665C46.0081 67.2839 44.5597 68.9975 43.0476 69.7562C42.6073 69.9791 42.0078 70.1754 41.5197 70.2496C40.883 70.3557 39.8113 70.2921 39.2383 70.1223C38.6282 69.9419 38.0499 69.6501 37.6732 69.3424C37.5087 69.2045 34.5165 67.1194 31.0255 64.7107C24.3937 60.1321 24.3778 60.1162 23.8048 59.3363C23.2955 58.6413 22.8498 57.5961 22.6959 56.7207C22.5474 55.8613 22.6323 54.7365 22.9188 53.8505C23.253 52.8 24.2239 51.4206 25.0675 50.7786C25.911 50.142 26.8872 49.7865 28.1659 49.6433C28.4842 49.6061 29.3914 49.6698 29.7999 49.7494Z" stroke="#595959" stroke-width="0.5"/>
<path d="M160.24 49.5053C159.338 49.6008 158.362 49.9138 157.656 50.3436C157.051 50.7097 144.817 59.9093 144.419 60.2966C142.673 61.9837 142.153 64.2386 143.029 66.3342C143.193 66.7374 143.363 67.0239 144.005 67.9789C144.44 68.6209 144.774 68.9922 145.262 69.3477C145.735 69.7032 146.615 70.117 147.257 70.2868C147.735 70.4194 147.857 70.43 148.785 70.43C149.655 70.43 149.852 70.4141 150.218 70.3133C150.796 70.1541 151.629 69.735 152.053 69.3848C152.244 69.2257 155.109 67.1672 158.42 64.8062C162.967 61.5646 164.537 60.4186 164.839 60.1162C165.8 59.1612 166.468 57.9516 166.781 56.604C166.845 56.3228 166.871 55.978 166.866 55.3148C166.866 54.5137 166.85 54.3545 166.728 53.8929C166.484 52.9804 165.858 51.9087 165.11 51.1341C163.98 49.9616 162.049 49.3196 160.24 49.5053ZM162.166 49.7706C163.646 50.0783 164.739 50.8052 165.662 52.0997C166.378 53.1024 166.675 53.9407 166.728 55.1026C166.803 56.8534 166.113 58.567 164.786 59.9146C164.33 60.3762 163.662 60.8643 158.229 64.7373C154.908 67.1035 152.064 69.1461 151.915 69.2787C151.581 69.5705 150.722 70.0003 150.165 70.1541C149.804 70.2496 149.592 70.2709 148.785 70.2709C147.899 70.2762 147.793 70.2655 147.3 70.1276C147.008 70.048 146.509 69.8517 146.186 69.6926C145.289 69.2522 144.684 68.7217 144.175 67.9205C144.085 67.7826 143.862 67.4483 143.687 67.1831C142.238 65.045 142.53 62.4347 144.429 60.5141C144.679 60.2595 146.923 58.5458 151.199 55.3413C156.977 51.0121 157.651 50.524 158.176 50.2693C159.439 49.6592 160.807 49.4841 162.166 49.7706Z" stroke="#595959" stroke-width="0.5"/>
<path d="M93.529 57.1452C84.0375 57.4635 74.753 60.7688 67.0017 66.5942C65.0652 68.0479 63.7919 69.162 61.9616 70.9924C60.1524 72.7963 59.0276 74.0855 57.5846 76.0061C55.1441 79.253 53.1121 82.8395 51.6265 86.5108C49.4938 91.7898 48.4857 95.997 48.0507 101.446C47.9658 102.523 47.9658 106.518 48.0507 107.6C48.4539 112.693 49.4142 117.022 51.1384 121.548C51.3135 122.004 51.5894 122.758 51.7539 123.225C52.051 124.084 52.5338 125.161 52.8415 125.66C52.937 125.808 53.2235 126.323 53.4888 126.806C55.0751 129.724 56.7887 132.164 59.6537 135.586C63.967 140.743 68.4077 149.036 70.6041 156.028L70.8217 156.713V162.225L70.5192 162.442C68.6252 163.779 67.1874 165.992 66.6728 168.347L66.5508 168.904V184.078L66.6728 184.625C67.0336 186.269 67.7976 187.834 68.8905 189.177C69.1345 189.479 70.2699 190.561 72.27 192.397C73.9306 193.914 75.4215 195.267 75.5859 195.395C76.4932 196.095 77.9734 196.827 79.1035 197.124L79.4483 197.22L79.7719 197.702C81.91 200.902 85.5496 203.13 89.8523 203.867L90.6163 204H94.9349C99.0042 204 99.2854 203.995 99.8796 203.894C104.034 203.188 107.854 200.923 110.262 197.724L110.628 197.241L111.217 197.045C112.194 196.726 113.127 196.206 113.934 195.533C114.661 194.928 120.088 189.925 120.449 189.521C121.706 188.142 122.576 186.455 122.985 184.582L123.107 184.025V168.958L122.99 168.422C122.544 166.427 121.388 164.512 119.759 163.084L119.26 162.649V156.718L119.451 156.097C120.587 152.463 122.523 148.102 124.725 144.239C126.624 140.902 129.293 136.902 130.646 135.353C131.999 133.809 133.378 132.021 134.498 130.36C136.986 126.668 138.742 123.06 140.18 118.662C142.323 112.11 142.97 105.287 142.1 98.4481C140.986 89.6835 137.357 81.3274 131.68 74.4409C129.914 72.2975 127.606 69.9791 125.478 68.2123C120.571 64.1378 115.255 61.2728 108.649 59.1559C105.684 58.201 102.378 57.5537 99.0997 57.2778C98.1872 57.2035 95.3647 57.0868 94.8819 57.1027C94.7651 57.108 94.155 57.124 93.529 57.1452ZM96.6327 57.3043C102.294 57.5006 106.782 58.4556 112.39 60.6733C119.499 63.4799 125.696 67.8357 130.667 73.5125C139.702 83.8316 143.814 97.6311 141.83 110.969C141.108 115.813 139.57 120.704 137.4 125.055C135.569 128.721 133.304 132.074 130.476 135.294C129.882 135.974 129.123 137.003 127.945 138.748C124.12 144.404 121.324 149.932 119.478 155.503L119.101 156.638V162.75L119.425 163.015C119.828 163.35 120.698 164.241 121.017 164.66C122.067 166.024 122.741 167.578 122.921 169.048C122.964 169.403 122.974 171.621 122.964 176.81L122.942 184.078L122.826 184.603C122.428 186.338 121.648 187.877 120.454 189.272C120.205 189.569 115.074 194.318 114.04 195.214C113.127 196.005 112.209 196.541 111.148 196.891L110.533 197.098L110.055 197.724C109.482 198.477 108.241 199.74 107.493 200.334C105.212 202.132 102.453 203.332 99.4976 203.804C98.7761 203.915 98.6328 203.92 94.9614 203.92C91.3166 203.92 91.1362 203.915 90.4147 203.804C87.2473 203.31 84.6689 202.207 82.4618 200.403C81.4803 199.596 80.6367 198.663 79.7826 197.427L79.5491 197.092L78.9921 196.917C77.6657 196.514 76.3605 195.83 75.4586 195.076C75.1615 194.827 70.4556 190.519 69.8189 189.914C68.9435 189.081 68.222 188.089 67.6649 186.943C67.267 186.131 67.0654 185.574 66.8585 184.709L66.7099 184.078V176.518C66.7099 169.329 66.7152 168.936 66.8107 168.48C67.1185 166.989 67.8188 165.514 68.795 164.31C69.2141 163.79 70.116 162.931 70.5988 162.591L70.9755 162.326L70.9808 159.487V156.649L70.6041 155.508C68.917 150.383 66.381 145.125 63.272 140.276C61.9987 138.287 61.0278 136.966 59.537 135.183C56.9214 132.048 55.1016 129.443 53.701 126.838C53.4781 126.424 53.197 125.92 53.0696 125.718C52.7354 125.177 52.242 124.116 51.982 123.384C51.86 123.034 51.5523 122.185 51.2976 121.5C50.3904 119.065 49.7484 116.938 49.2603 114.762C47.3875 106.385 47.8172 97.9282 50.5177 89.9541C53.0802 82.4097 56.8524 76.2713 62.2003 70.9712C68.4501 64.7691 76.2332 60.4664 84.828 58.4503C87.7036 57.7765 91.046 57.3521 93.9534 57.2884C94.2877 57.2778 94.6962 57.2672 94.8553 57.2619C95.0145 57.2566 95.8156 57.2778 96.6327 57.3043Z" stroke="#595959" stroke-width="0.5"/>
<path d="M93.5184 71.3638C87.9158 71.6821 82.2708 73.4753 77.0184 76.6003C76.456 76.9345 76.2757 77.1361 76.594 77.0724C76.8115 77.03 78.5623 76.8337 79.3104 76.7753C79.6765 76.7435 80.6527 76.7064 81.4856 76.6851C87.2208 76.5631 92.4148 77.7303 97.5187 80.2822C103.471 83.2586 108.427 87.9539 111.711 93.7262C115.621 100.602 116.921 108.587 115.382 116.274C114.984 118.259 114.035 121.346 113.149 123.522C111.658 127.166 109.116 130.726 105.785 133.835C105.286 134.297 104.888 134.7 104.899 134.732C104.909 134.769 105.286 134.796 105.97 134.806C107.159 134.822 107.074 134.838 108.331 134.339C113.775 132.175 118.502 128.429 122.083 123.431C124.003 120.747 125.648 117.495 126.63 114.417C127.394 112.035 127.887 109.436 128.073 106.815C128.152 105.674 128.105 102.533 127.993 101.499C127.494 96.9413 126.364 93.2222 124.136 88.8187C121.669 83.9218 117.828 79.7411 113.026 76.717C110.597 75.189 108.023 74.0218 104.617 72.913C102.23 72.1384 99.6992 71.6237 97.2693 71.4168C96.3303 71.3426 94.4097 71.3107 93.5184 71.3638ZM97.2587 71.576C99.7682 71.7882 102.426 72.3453 104.978 73.1995C108.268 74.2977 110.979 75.571 113.424 77.1679C118.003 80.1602 121.664 84.2454 124.057 89.0256C126.216 93.3283 127.351 97.0846 127.829 101.472C127.951 102.555 127.993 105.626 127.914 106.825C127.664 110.359 126.847 113.807 125.505 116.959C122.051 125.087 115.695 131.353 107.864 134.345L107.053 134.658H105.18L106.267 133.602C107.753 132.159 108.777 131.008 109.87 129.559C111.249 127.734 112.485 125.58 113.297 123.596C113.695 122.614 114.639 119.84 114.963 118.699C116.273 114.099 116.528 108.889 115.674 104.205C114.745 99.1272 112.804 94.5963 109.748 90.3838C108.724 88.9726 107.79 87.8956 106.32 86.4313C103.758 83.874 101.1 81.9375 97.906 80.2982C92.9242 77.7409 87.8203 76.5101 82.2284 76.5101C80.6739 76.5101 78.5305 76.648 77.2678 76.8231C77.0927 76.8496 76.9441 76.8602 76.9335 76.8549C76.8964 76.8231 78.6525 75.8575 79.7242 75.3216C84.2232 73.0721 88.8814 71.7829 93.4759 71.5229C94.415 71.4699 96.3037 71.4964 97.2587 71.576Z" stroke="#595959" stroke-width="0.5"/>
<path d="M75.5807 169.976C75.5594 169.992 75.5435 172.931 75.5435 176.502C75.5435 183.712 75.5223 183.277 75.8937 183.431C76.0422 183.489 76.7691 184.184 78.435 185.85L80.7694 188.19H85.921L86.1173 188.391C86.303 188.582 86.3136 188.609 86.3136 188.959C86.3242 190.848 86.8335 192.126 88.0538 193.288C89.0512 194.238 90.2927 194.806 91.8153 195.007C92.6854 195.124 97.3967 195.124 98.2667 195.007C99.8531 194.8 101.057 194.233 102.103 193.203C103.238 192.079 103.662 191.071 103.747 189.304C103.779 188.54 103.784 188.535 103.944 188.365L104.108 188.19H106.495L108.888 188.184L111.504 185.792L114.114 183.399L114.088 169.966L94.85 169.95C84.271 169.944 75.5966 169.955 75.5807 169.976ZM113.95 183.335L111.377 185.68L108.803 188.031H104.055L103.837 188.253L103.62 188.482L103.588 189.267C103.567 189.697 103.53 190.174 103.503 190.328C103.302 191.389 102.691 192.482 101.896 193.209C101.031 193.994 100.028 194.493 98.7124 194.779C98.1819 194.896 98.097 194.901 95.041 194.901C91.9851 194.901 91.9002 194.896 91.3697 194.779C89.9531 194.466 88.9026 193.92 88.0378 193.05C87.5126 192.524 87.1518 191.983 86.8919 191.352C86.6266 190.71 86.5311 190.211 86.4939 189.267L86.4621 188.482L86.2446 188.253L86.0271 188.031H80.8224L78.4615 185.67C77.1617 184.37 76.0687 183.309 76.0316 183.309C75.9945 183.309 75.9043 183.25 75.8353 183.176L75.7027 183.049V170.098H113.955L113.95 183.335Z" stroke="#595959" stroke-width="0.5"/>
<path d="M29.0678 117.675C28.4417 117.818 13.6714 122.779 13.2522 122.986C12.4883 123.368 11.8039 123.92 11.268 124.593C10.8223 125.15 10.3342 126.121 10.1432 126.832C10.0159 127.31 10 127.458 10 128.318C10 129.156 10.0106 129.326 10.122 129.724C10.6367 131.618 12.276 133.305 14.2391 133.963C15.0136 134.217 15.5707 134.302 16.3878 134.276C17.0669 134.255 17.1252 134.244 17.5815 134.058C17.8468 133.947 21.3908 132.843 25.4601 131.602C29.5294 130.36 33.031 129.262 33.2485 129.167C34.4104 128.625 35.4608 127.602 36.0444 126.44C36.6917 125.15 36.8615 123.67 36.5166 122.323C36.2938 121.463 35.6147 120.354 34.7977 119.532C33.901 118.625 32.9885 118.084 31.8001 117.749C31.1316 117.564 29.7416 117.526 29.0678 117.675ZM31.19 117.792C32.0176 117.914 32.9779 118.312 33.7843 118.863C34.665 119.474 35.5776 120.572 36.0657 121.612C36.5803 122.705 36.6705 123.951 36.3362 125.241C36.0869 126.185 35.3866 127.352 34.6756 128.005C34.2512 128.392 33.4978 128.885 33.0203 129.082C32.8187 129.167 29.3914 130.228 25.407 131.443C21.4226 132.658 17.9157 133.751 17.608 133.873C17.0722 134.09 17.0297 134.095 16.3559 134.117C15.0349 134.154 13.9526 133.825 12.7482 133.024C11.581 132.238 10.6101 130.933 10.2812 129.697C10.1432 129.167 10.0902 128.063 10.1751 127.495C10.4563 125.67 11.6182 124.031 13.2204 123.193C13.5069 123.044 15.9686 122.195 21.1521 120.46C25.285 119.076 28.8131 117.903 28.9882 117.861C29.5983 117.702 30.3888 117.675 31.19 117.792Z" stroke="#595959" stroke-width="0.5"/>
<path fill-rule="evenodd" clip-rule="evenodd" d="M96.6327 57.3043C102.294 57.5006 106.782 58.4556 112.39 60.6733C119.499 63.4799 125.696 67.8357 130.667 73.5125C139.702 83.8316 143.814 97.6311 141.83 110.969C141.108 115.813 139.57 120.704 137.4 125.055C135.569 128.721 133.304 132.074 130.476 135.294C129.882 135.974 129.123 137.003 127.945 138.748C124.12 144.404 121.324 149.932 119.478 155.503L119.101 156.638V162.75L119.425 163.015C119.828 163.35 120.698 164.241 121.017 164.66C122.067 166.024 122.741 167.578 122.921 169.048C122.964 169.403 122.974 171.621 122.964 176.81L122.942 184.078L122.826 184.603C122.428 186.338 121.648 187.877 120.454 189.272C120.205 189.569 115.074 194.318 114.04 195.214C113.127 196.005 112.209 196.541 111.148 196.891L110.533 197.098L110.055 197.724C109.482 198.477 108.241 199.74 107.493 200.334C105.212 202.132 102.453 203.332 99.4976 203.804C98.7761 203.915 98.6328 203.92 94.9614 203.92C91.3166 203.92 91.1362 203.915 90.4147 203.804C87.2473 203.31 84.6689 202.207 82.4618 200.403C81.4803 199.596 80.6367 198.663 79.7826 197.427L79.5491 197.092L78.9921 196.917C77.6657 196.514 76.3605 195.83 75.4586 195.076C75.1615 194.827 70.4556 190.519 69.8189 189.914C68.9435 189.081 68.222 188.089 67.6649 186.943C67.267 186.131 67.0654 185.574 66.8585 184.709L66.7099 184.078V176.518C66.7099 169.329 66.7152 168.936 66.8107 168.48C67.1185 166.989 67.8188 165.514 68.795 164.31C69.2141 163.79 70.116 162.931 70.5988 162.591L70.9755 162.326L70.9808 159.487V156.649L70.6041 155.508C68.917 150.383 66.381 145.125 63.272 140.276C61.9987 138.287 61.0278 136.966 59.537 135.183C56.9214 132.048 55.1016 129.443 53.701 126.838C53.4781 126.424 53.197 125.92 53.0696 125.718C52.7354 125.177 52.242 124.116 51.982 123.384C51.86 123.034 51.5523 122.185 51.2976 121.5C50.3904 119.065 49.7484 116.938 49.2603 114.762C47.3875 106.385 47.8172 97.9282 50.5177 89.9541C53.0802 82.4097 56.8524 76.2713 62.2003 70.9712C68.4501 64.7691 76.2332 60.4664 84.828 58.4503C87.7036 57.7765 91.046 57.3521 93.9534 57.2884C94.2877 57.2778 94.6962 57.2672 94.8553 57.2619C95.0145 57.2566 95.8156 57.2778 96.6327 57.3043ZM77.0184 76.6003C82.2708 73.4753 87.9158 71.6821 93.5184 71.3638C94.4097 71.3107 96.3303 71.3426 97.2693 71.4168C99.6992 71.6237 102.23 72.1384 104.617 72.913C108.023 74.0218 110.597 75.189 113.026 76.717C117.828 79.7411 121.669 83.9218 124.136 88.8187C126.364 93.2222 127.494 96.9413 127.993 101.499C128.105 102.533 128.152 105.674 128.073 106.815C127.887 109.436 127.394 112.035 126.63 114.417C125.648 117.495 124.003 120.747 122.083 123.431C118.502 128.429 113.775 132.175 108.331 134.339C107.074 134.838 107.159 134.822 105.97 134.806C105.286 134.796 104.909 134.769 104.899 134.732C104.888 134.7 105.286 134.297 105.785 133.835C109.116 130.726 111.658 127.166 113.149 123.522C114.035 121.346 114.984 118.259 115.382 116.274C116.921 108.587 115.621 100.602 111.711 93.7262C108.427 87.9539 103.471 83.2586 97.5187 80.2822C92.4148 77.7303 87.2208 76.5631 81.4856 76.6851C80.6527 76.7064 79.6765 76.7435 79.3104 76.7753C78.5623 76.8337 76.8115 77.03 76.594 77.0724C76.2757 77.1361 76.456 76.9345 77.0184 76.6003ZM75.5435 176.502C75.5435 172.931 75.5594 169.992 75.5807 169.976C75.5966 169.955 84.271 169.944 94.85 169.95L114.088 169.966L114.114 183.399L111.504 185.792L108.888 188.184L106.495 188.19H104.108L103.944 188.365C103.784 188.535 103.779 188.54 103.747 189.304C103.662 191.071 103.238 192.079 102.103 193.203C101.057 194.233 99.8531 194.8 98.2667 195.007C97.3967 195.124 92.6854 195.124 91.8153 195.007C90.2927 194.806 89.0512 194.238 88.0538 193.288C86.8335 192.126 86.3242 190.848 86.3136 188.959C86.3136 188.609 86.303 188.582 86.1173 188.391L85.921 188.19H80.7694L78.435 185.85C76.7691 184.184 76.0422 183.489 75.8937 183.431C75.5223 183.277 75.5435 183.712 75.5435 176.502Z" stroke="#595959" stroke-width="0.5"/>
<path d="M29.7999 49.7494C30.4101 49.8767 30.8557 50.0253 31.3916 50.2905C31.7948 50.4868 33.0203 51.3835 38.0234 55.145C41.3976 57.681 44.2679 59.851 44.4005 59.973C45.382 60.8802 46.0717 61.9837 46.4007 63.1722C46.5333 63.6443 46.5439 63.7823 46.5439 64.5198C46.5439 65.1935 46.5227 65.4164 46.4272 65.7665C46.0081 67.2839 44.5597 68.9975 43.0476 69.7562C42.6073 69.9791 42.0078 70.1754 41.5197 70.2496C40.883 70.3557 39.8113 70.2921 39.2383 70.1223C38.6282 69.9419 38.0499 69.6501 37.6732 69.3424C37.5087 69.2045 34.5165 67.1194 31.0255 64.7107C24.3937 60.1321 24.3778 60.1162 23.8048 59.3363C23.2955 58.6413 22.8498 57.5961 22.6959 56.7207C22.5474 55.8613 22.6323 54.7365 22.9188 53.8505C23.253 52.8 24.2239 51.4206 25.0675 50.7786C25.911 50.142 26.8872 49.7865 28.1659 49.6433C28.4842 49.6061 29.3914 49.6698 29.7999 49.7494Z" stroke="#595959" stroke-width="0.5"/>
<path d="M31.19 117.792C32.0176 117.914 32.9779 118.312 33.7843 118.863C34.665 119.474 35.5776 120.572 36.0657 121.612C36.5803 122.705 36.6705 123.951 36.3362 125.241C36.0869 126.185 35.3866 127.352 34.6756 128.005C34.2512 128.392 33.4978 128.885 33.0203 129.082C32.8187 129.167 29.3914 130.228 25.407 131.443C21.4226 132.658 17.9157 133.751 17.608 133.873C17.0722 134.09 17.0297 134.095 16.3559 134.117C15.0349 134.154 13.9526 133.825 12.7482 133.024C11.581 132.238 10.6101 130.933 10.2812 129.697C10.1432 129.167 10.0902 128.063 10.1751 127.495C10.4563 125.67 11.6182 124.031 13.2204 123.193C13.5069 123.044 15.9686 122.195 21.1521 120.46C25.285 119.076 28.8131 117.903 28.9882 117.861C29.5983 117.702 30.3888 117.675 31.19 117.792Z" stroke="#595959" stroke-width="0.5"/>
<path d="M95.5557 16.1871C98.3304 16.4524 100.633 18.7496 100.957 21.5774C100.999 21.9541 101.01 24.4052 100.994 30.1404C100.978 37.3081 100.967 38.2206 100.893 38.5496C100.585 39.86 100.055 40.8521 99.2164 41.6639C98.4949 42.3589 97.6036 42.8629 96.622 43.1229C95.9323 43.3033 94.7015 43.351 93.9693 43.2237C92.5899 42.9849 91.2901 42.2316 90.4359 41.1758C90.038 40.6771 89.5658 39.7964 89.396 39.2287C89.1201 38.2949 89.1255 38.5443 89.1255 29.7584C89.1255 21.7366 89.1255 21.5774 89.2316 21.0575C89.7568 18.4844 91.9426 16.4577 94.4787 16.1924C94.7015 16.1659 94.9084 16.1447 94.9349 16.1394C94.9668 16.1394 95.2426 16.1606 95.5557 16.1871Z" stroke="#595959" stroke-width="0.5"/>
<path d="M162.166 49.7706C163.646 50.0783 164.739 50.8052 165.662 52.0997C166.378 53.1024 166.675 53.9407 166.728 55.1026C166.803 56.8534 166.113 58.567 164.786 59.9146C164.33 60.3762 163.662 60.8643 158.229 64.7373C154.908 67.1035 152.064 69.1461 151.915 69.2787C151.581 69.5705 150.722 70.0003 150.165 70.1541C149.804 70.2496 149.592 70.2709 148.785 70.2709C147.899 70.2762 147.793 70.2655 147.3 70.1276C147.008 70.048 146.509 69.8517 146.186 69.6926C145.289 69.2522 144.684 68.7217 144.175 67.9205C144.085 67.7826 143.862 67.4483 143.687 67.1831C142.238 65.045 142.53 62.4347 144.429 60.5141C144.679 60.2595 146.923 58.5458 151.199 55.3413C156.977 51.0121 157.651 50.524 158.176 50.2693C159.439 49.6592 160.807 49.4841 162.166 49.7706Z" stroke="#595959" stroke-width="0.5"/>
<path d="M157.81 117.659C156.664 117.866 155.56 118.418 154.68 119.224C153.947 119.893 153.295 121.033 152.992 122.174C152.833 122.768 152.823 122.848 152.823 123.782C152.823 124.678 152.839 124.811 152.966 125.283C153.258 126.381 153.735 127.251 154.473 128.026C155.009 128.594 155.56 129.002 156.149 129.273C156.377 129.379 159.661 130.376 164.012 131.66C168.405 132.955 171.535 133.91 171.609 133.968C171.912 134.207 172.23 134.26 173.27 134.255C174.098 134.255 174.315 134.233 174.66 134.138C175.954 133.782 177.042 133.04 177.864 131.957C178.252 131.448 178.75 130.472 178.994 129.74C179.138 129.326 179.159 127.745 179.154 127.32C179.159 126.885 179.138 126.726 179.021 126.392C178.533 124.933 177.382 123.612 175.981 122.912C175.387 122.609 160.887 117.765 160.271 117.659C159.656 117.553 158.393 117.553 157.81 117.659Z" stroke="#595959" stroke-width="0.5"/>
</g>
<defs>
<filter id="filter0_di" x="0.75" y="0.75" width="213.654" height="232.5" filterUnits="userSpaceOnUse" color-interpolation-filters="sRGB">
<feFlood flood-opacity="0" result="BackgroundImageFix"/>
<feColorMatrix in="SourceAlpha" type="matrix" values="0 0 0 0 0 0 0 0 0 0 0 0 0 0 0 0 0 0 127 0"/>
<feOffset dx="13" dy="7"/>
<feGaussianBlur stdDeviation="11"/>
<feColorMatrix type="matrix" values="0 0 0 0 0 0 0 0 0 0 0 0 0 0 0 0 0 0 0.25 0"/>
<feBlend mode="normal" in2="BackgroundImageFix" result="effect1_dropShadow"/>
<feBlend mode="normal" in="SourceGraphic" in2="effect1_dropShadow" result="shape"/>
<feColorMatrix in="SourceAlpha" type="matrix" values="0 0 0 0 0 0 0 0 0 0 0 0 0 0 0 0 0 0 127 0" result="hardAlpha"/>
<feOffset dy="4"/>
<feGaussianBlur stdDeviation="2"/>
<feComposite in2="hardAlpha" operator="arithmetic" k2="-1" k3="1"/>
<feColorMatrix type="matrix" values="0 0 0 0 1 0 0 0 0 1 0 0 0 0 1 0 0 0 0.25 0"/>
<feBlend mode="normal" in2="shape" result="effect2_innerShadow"/>
</filter>
<radialGradient id="paint0_radial" cx="0" cy="0" r="1" gradientUnits="userSpaceOnUse" gradientTransform="translate(94.5772 110) scale(84.5772 94)">
<stop stop-color="white"/>
<stop offset="0.5" stop-color="#DFE4EC"/>
<stop offset="1" stop-color="#BFC9D8"/>
</radialGradient>
<radialGradient id="paint1_radial" cx="0" cy="0" r="1" gradientUnits="userSpaceOnUse" gradientTransform="translate(94.5772 110) scale(84.5772 94)">
<stop stop-color="white"/>
<stop offset="0.5" stop-color="#DFE4EC"/>
<stop offset="1" stop-color="#BFC9D8"/>
</radialGradient>
<radialGradient id="paint2_radial" cx="0" cy="0" r="1" gradientUnits="userSpaceOnUse" gradientTransform="translate(94.5772 110) scale(84.5772 94)">
<stop stop-color="white"/>
<stop offset="0.5" stop-color="#DFE4EC"/>
<stop offset="1" stop-color="#BFC9D8"/>
</radialGradient>
<radialGradient id="paint3_radial" cx="0" cy="0" r="1" gradientUnits="userSpaceOnUse" gradientTransform="translate(94.5772 110) scale(84.5772 94)">
<stop stop-color="white"/>
<stop offset="0.5" stop-color="#DFE4EC"/>
<stop offset="1" stop-color="#BFC9D8"/>
</radialGradient>
<radialGradient id="paint4_radial" cx="0" cy="0" r="1" gradientUnits="userSpaceOnUse" gradientTransform="translate(94.5772 110) scale(84.5772 94)">
<stop stop-color="white"/>
<stop offset="0.5" stop-color="#DFE4EC"/>
<stop offset="1" stop-color="#BFC9D8"/>
</radialGradient>
<radialGradient id="paint5_radial" cx="0" cy="0" r="1" gradientUnits="userSpaceOnUse" gradientTransform="translate(94.5772 110) scale(84.5772 94)">
<stop stop-color="white"/>
<stop offset="0.5" stop-color="#DFE4EC"/>
<stop offset="1" stop-color="#BFC9D8"/>
</radialGradient>
<radialGradient id="paint6_radial" cx="0" cy="0" r="1" gradientUnits="userSpaceOnUse" gradientTransform="translate(94.5772 110) scale(84.5772 94)">
<stop stop-color="white"/>
<stop offset="0.5" stop-color="#DFE4EC"/>
<stop offset="1" stop-color="#BFC9D8"/>
</radialGradient>
<radialGradient id="paint7_radial" cx="0" cy="0" r="1" gradientUnits="userSpaceOnUse" gradientTransform="translate(94.5772 110) scale(84.5772 94)">
<stop stop-color="white"/>
<stop offset="0.5" stop-color="#DFE4EC"/>
<stop offset="1" stop-color="#BFC9D8"/>
</radialGradient>
<radialGradient id="paint8_radial" cx="0" cy="0" r="1" gradientUnits="userSpaceOnUse" gradientTransform="translate(94.5772 110) scale(84.5772 94)">
<stop stop-color="white"/>
<stop offset="0.5" stop-color="#DFE4EC"/>
<stop offset="1" stop-color="#BFC9D8"/>
</radialGradient>
<radialGradient id="paint9_radial" cx="0" cy="0" r="1" gradientUnits="userSpaceOnUse" gradientTransform="translate(94.5772 110) scale(84.5772 94)">
<stop stop-color="white"/>
<stop offset="0.5" stop-color="#DFE4EC"/>
<stop offset="1" stop-color="#BFC9D8"/>
</radialGradient>
<radialGradient id="paint10_radial" cx="0" cy="0" r="1" gradientUnits="userSpaceOnUse" gradientTransform="translate(94.5772 110) scale(84.5772 94)">
<stop stop-color="white"/>
<stop offset="0.5" stop-color="#DFE4EC"/>
<stop offset="1" stop-color="#BFC9D8"/>
</radialGradient>
<radialGradient id="paint11_radial" cx="0" cy="0" r="1" gradientUnits="userSpaceOnUse" gradientTransform="translate(94.5772 110) scale(84.5772 94)">
<stop stop-color="white"/>
<stop offset="0.5" stop-color="#DFE4EC"/>
<stop offset="1" stop-color="#BFC9D8"/>
</radialGradient>
<radialGradient id="paint12_radial" cx="0" cy="0" r="1" gradientUnits="userSpaceOnUse" gradientTransform="translate(94.5772 110) scale(84.5772 94)">
<stop stop-color="white"/>
<stop offset="0.5" stop-color="#DFE4EC"/>
<stop offset="1" stop-color="#BFC9D8"/>
</radialGradient>
</defs>
</svg>
