<svg width="231" height="234" viewBox="0 0 231 234" fill="none" xmlns="http://www.w3.org/2000/svg">
<g filter="url(#filter0_di)">
<path d="M142.062 16.0826C140.272 16.4822 138.849 18.1176 138.524 20.1579C138.487 20.371 138.466 21.8573 138.466 24.0575V27.616L138.322 27.648C137.113 27.9303 134.833 28.5323 133.938 28.804C129.633 30.1145 125.877 31.9364 122.868 34.1685L122.697 34.2964L120.071 31.6807C118.425 30.0399 117.322 28.9851 117.109 28.8413C116.326 28.3192 115.623 28.0955 114.749 28.0955C113.822 28.0955 113.012 28.3672 112.272 28.9372C111.419 29.5871 107.786 32.7035 107.616 32.9273C106.929 33.8329 106.609 34.7865 106.609 35.9478C106.609 36.9866 106.87 37.8709 107.424 38.6966C107.509 38.8298 108.756 40.1137 110.184 41.552C111.617 42.985 112.789 44.1783 112.789 44.1996C112.789 44.221 112.602 44.5406 112.373 44.9188C110.631 47.7635 109.209 50.5816 108.351 52.8937C107.589 54.9446 106.982 57.3365 106.79 59.0306L106.758 59.3609L102.805 59.3822C98.9911 59.3982 98.8419 59.4035 98.4264 59.5154C97.574 59.7391 96.9667 60.096 96.402 60.714C95.8693 61.2947 95.4911 62.0458 95.2833 62.9354C95.2034 63.287 95.1874 63.7132 95.1714 66.4727C95.1555 68.5823 95.1661 69.7276 95.2087 69.9833C95.3472 70.8677 95.7148 71.6295 96.3168 72.2687C96.8655 72.8494 97.4142 73.185 98.2293 73.446C98.5862 73.5579 98.6661 73.5632 102.667 73.5792L106.742 73.5952L106.865 74.4582C107.488 78.9064 109.56 84.0578 112.4 88.2077L112.794 88.7884L110.269 91.3242C108.852 92.7465 107.637 94.0144 107.499 94.2168C107.19 94.6483 106.865 95.3355 106.737 95.831C106.657 96.1186 106.636 96.3957 106.636 97.0562C106.636 98.0844 106.705 98.3934 107.115 99.2404C107.483 99.9915 107.738 100.279 109.997 102.522C111.691 104.2 111.766 104.264 112.203 104.477C113.06 104.893 113.843 105.074 114.76 105.074C115.692 105.074 116.534 104.866 117.37 104.429L117.807 104.205L120.097 101.616C121.36 100.194 122.457 98.958 122.543 98.8728L122.692 98.713L122.974 98.9154C125.995 101.068 128.983 102.559 132.792 103.822C134.236 104.301 135.893 104.77 137.454 105.143L138.439 105.372L138.471 109.154C138.498 112.83 138.503 112.942 138.615 113.336C139.068 114.929 140.112 116.197 141.385 116.714C142.062 116.991 142.296 117.007 145.269 117.007C148.417 117.007 148.614 116.985 149.461 116.586C150.894 115.92 151.928 114.785 152.434 113.331L152.609 112.825L152.663 105.377L153.249 105.223C159.029 103.71 163.509 101.765 167.089 99.2191C167.467 98.9527 167.787 98.7343 167.808 98.7343C167.829 98.7343 168.927 99.9596 170.242 101.451L172.64 104.163L173.093 104.397C174.03 104.887 175.026 105.1 176.209 105.058C177.045 105.026 177.562 104.914 178.143 104.642C178.468 104.488 178.686 104.285 180.716 102.256C182.085 100.886 183.007 99.9169 183.134 99.7252C183.592 99.0166 183.843 98.2069 183.891 97.296C183.923 96.5661 183.838 96.0014 183.587 95.3142C183.262 94.4193 183.044 94.1582 180.242 91.3668L177.69 88.815L178.313 87.8774C181.217 83.4931 183.134 78.5229 183.72 73.8669L183.758 73.5899H187.662C190.875 73.5899 191.637 73.5739 191.94 73.51C193.581 73.169 194.796 72.013 195.2 70.4095C195.307 69.994 195.312 69.8608 195.296 66.5526C195.275 62.6318 195.291 62.7969 194.774 61.7368C194.21 60.5755 193.347 59.8616 192.084 59.5154C191.669 59.4035 191.573 59.3982 187.705 59.3769C185.526 59.3662 183.747 59.3396 183.747 59.3236C183.747 59.3023 183.699 58.9507 183.635 58.5405C183.156 55.2589 181.904 51.727 179.911 48.0299C179.32 46.9325 178.26 45.0946 177.866 44.4873L177.685 44.2103L180.279 41.6C181.712 40.1616 182.953 38.8778 183.044 38.7446C184.12 37.1411 184.189 35.0581 183.225 33.428C182.879 32.8527 182.602 32.5863 180.71 31.0148C179.73 30.1944 178.83 29.4113 178.707 29.2621C178.074 28.4844 177.163 28.0955 175.975 28.0955C175.016 28.0955 174.11 28.3672 173.322 28.8946C173.183 28.9905 171.883 30.2477 170.445 31.6807L167.824 34.2964L167.568 34.1152C165.933 32.9486 164.649 32.1761 162.891 31.2918C160.947 30.3116 159.38 29.667 157.138 28.9212C156.061 28.5643 154.042 27.9783 153.062 27.7332L152.663 27.6373L152.609 20.1846L152.428 19.6572C151.81 17.8726 150.18 16.4129 148.438 16.0773C147.884 15.9708 142.541 15.9761 142.062 16.0826ZM148.907 16.365C150.553 16.9403 151.832 18.2721 152.364 19.9715C152.434 20.2006 152.45 20.7972 152.476 23.9935L152.503 27.7439L153.062 27.8984C155.518 28.559 157.036 29.0277 158.682 29.6404C161.911 30.8443 164.713 32.2933 167.073 33.9767C167.408 34.2164 167.717 34.4349 167.755 34.4562C167.808 34.4881 168.596 33.737 170.472 31.8671C172.006 30.3436 173.242 29.1556 173.412 29.0437C174.249 28.5057 174.845 28.3086 175.762 28.2713C177.019 28.218 177.695 28.4737 178.526 29.3207C178.803 29.6084 179.816 30.4874 180.769 31.2812C182.65 32.8474 182.895 33.1031 183.268 33.8755C183.624 34.6107 183.715 35.0368 183.72 35.9265C183.72 36.5125 183.694 36.7895 183.619 37.0718C183.497 37.5406 183.188 38.2119 182.905 38.6327C182.783 38.8085 181.531 40.1137 180.098 41.5627C178.675 42.9957 177.514 44.189 177.514 44.205C177.514 44.2263 177.759 44.6418 178.052 45.1319C181.249 50.4005 182.959 54.6783 183.513 58.8175L183.608 59.5207L187.604 59.542C191.514 59.558 191.615 59.5633 192.052 59.6752C192.782 59.867 193.288 60.16 193.842 60.7193C194.396 61.2734 194.726 61.8434 194.955 62.6265C195.185 63.4149 195.211 63.9103 195.19 67.064L195.169 69.994L195.025 70.4734C194.593 71.8585 193.661 72.8014 192.244 73.2756L191.871 73.4034L183.619 73.4567L183.502 74.2558C182.841 78.8745 180.972 83.589 178.089 87.9041C177.775 88.3835 177.514 88.7884 177.514 88.8097C177.514 88.831 178.686 90.0243 180.114 91.4627C182.847 94.2062 183.044 94.4299 183.379 95.2237C183.848 96.3211 183.859 97.7328 183.406 98.8355C183.076 99.6453 182.895 99.8637 180.609 102.149C178.228 104.536 178.287 104.488 177.328 104.765C176.955 104.871 176.784 104.887 175.969 104.887C175.128 104.887 174.978 104.871 174.451 104.738C174.099 104.653 173.652 104.488 173.332 104.333L172.8 104.072L170.349 101.302C169.001 99.7784 167.867 98.5265 167.829 98.5265C167.792 98.5212 167.584 98.6544 167.371 98.8142C167.153 98.974 166.593 99.3522 166.13 99.6612C162.646 101.952 158.357 103.742 153.158 105.074L152.482 105.249L152.45 112.771L152.274 113.278C151.794 114.657 150.761 115.797 149.418 116.421C148.545 116.831 148.662 116.82 145.231 116.82H142.168L141.742 116.671C141.508 116.586 141.151 116.421 140.943 116.303C140.543 116.069 139.819 115.382 139.547 114.982C139.323 114.652 139.02 114.039 138.887 113.666C138.641 112.947 138.626 112.686 138.626 108.856V105.244L138.109 105.127C132.089 103.769 127.151 101.707 123.347 98.9687C123.033 98.7396 122.74 98.5532 122.686 98.5532C122.639 98.5479 121.605 99.6719 120.167 101.291C117.807 103.955 117.722 104.04 117.327 104.264C116.475 104.733 115.516 104.946 114.477 104.898C113.699 104.861 113.044 104.695 112.368 104.37C111.915 104.158 111.872 104.115 109.902 102.155L109.896 102.149C108.788 101.046 107.776 100.002 107.648 99.8264C106.7 98.4999 106.492 96.71 107.115 95.2556C107.477 94.4139 107.52 94.3607 110.338 91.5266C112.426 89.4277 113.012 88.8044 112.975 88.7458C111.771 86.9931 111.02 85.7412 110.21 84.1377C108.548 80.8508 107.483 77.6012 107.009 74.3623C106.966 74.0373 106.913 73.6964 106.897 73.6005L106.87 73.43H102.891C99.0816 73.43 98.8898 73.4247 98.4583 73.3235C96.8335 72.9346 95.6349 71.6348 95.3686 69.9674C95.3259 69.6797 95.31 68.6888 95.3259 66.4514L95.3472 63.335L95.4911 62.8076C95.9386 61.1455 96.9348 60.0907 98.437 59.6752C98.8511 59.5584 98.9266 59.558 102.822 59.5369C102.836 59.5368 102.85 59.5368 102.864 59.5367L106.875 59.5207L106.897 59.4035C106.907 59.3396 106.993 58.8122 107.083 58.2315C107.706 54.316 109.299 50.3792 112.272 45.4196L113.018 44.173L110.381 41.5307C108.798 39.9379 107.669 38.7606 107.547 38.5794C107.291 38.1746 107.056 37.6791 106.923 37.2263C106.763 36.6936 106.726 35.5536 106.849 34.9889C107.019 34.2005 107.403 33.4227 107.893 32.8687C108.053 32.6822 111.254 29.9653 112.272 29.1449C113.018 28.5483 113.833 28.2553 114.738 28.2553C115.612 28.2553 116.326 28.4897 117.077 29.0277C117.253 29.1556 118.569 30.4341 120.007 31.8725C121.44 33.3108 122.639 34.4881 122.665 34.4881C122.692 34.4881 122.91 34.3496 123.145 34.1792C127.034 31.3664 131.876 29.3048 137.731 27.9623L138.62 27.7545L138.636 23.9456C138.652 20.2272 138.657 20.1206 138.769 19.7264C139.27 17.9471 140.49 16.642 142.008 16.2637C142.344 16.1785 142.68 16.1679 145.391 16.1785L148.401 16.1892L148.907 16.365Z" fill="url(#paint0_radial)"/>
<path d="M143.5 44.3435C140.032 44.6258 136.82 45.6593 133.868 47.4439C128.637 50.6083 124.935 55.9142 123.715 62.0032C123.416 63.4628 123.331 64.3205 123.299 65.9879C123.262 68.0656 123.374 69.3707 123.763 71.1979C124.391 74.1705 125.803 77.4095 127.508 79.7694C128.642 81.3516 130.267 83.0084 131.839 84.2017C135.03 86.6202 138.705 88.0799 142.887 88.5966C143.857 88.7138 146.643 88.7298 147.549 88.6233C150.361 88.2876 152.684 87.6058 155.033 86.4338C161.421 83.2374 165.81 77.4201 167.094 70.4468C167.366 68.9552 167.419 68.3159 167.419 66.3449C167.414 64.7307 167.403 64.3951 167.291 63.6013C167.062 61.8913 166.737 60.4849 166.21 58.94C165.613 57.2034 165.043 56.058 163.978 54.4652C163.04 53.0641 162.166 52.0147 160.915 50.7894C157.26 47.2148 152.599 45.0094 147.469 44.4234C146.611 44.3222 144.326 44.2796 143.5 44.3435ZM147.469 44.5779C151.304 45.0254 155.028 46.4531 158.118 48.6638C160.877 50.6402 163.179 53.208 164.814 56.1432C165.917 58.125 166.758 60.8152 167.131 63.5747C167.291 64.7733 167.329 67.1546 167.211 68.4225C166.471 76.1736 161.916 82.8059 154.948 86.2899C152.695 87.414 150.431 88.0905 147.762 88.4368C146.702 88.57 143.979 88.57 142.887 88.4368C139.227 87.984 135.957 86.7907 133.059 84.8569C129.83 82.6994 127.492 80.0198 125.808 76.5465C124.572 74.0001 123.922 71.8372 123.565 69.0884C123.427 68.0123 123.427 64.9385 123.565 63.8677C123.922 61.1402 124.631 58.7962 125.798 56.4629C127.902 52.2491 131.322 48.8237 135.509 46.7301C137.858 45.5528 140.495 44.791 142.994 44.5566C143.329 44.5299 143.702 44.4926 143.82 44.482C144.299 44.434 146.792 44.5033 147.469 44.5779Z" fill="url(#paint1_radial)"/>
<path d="M144.059 52.1052C142.413 52.2597 141.108 52.5634 139.718 53.1067C135.11 54.902 131.769 58.9134 130.826 63.7771C130.608 64.9118 130.555 65.4978 130.555 66.8243C130.56 68.1508 130.619 68.7421 130.874 69.8608C131.642 73.2915 133.767 76.344 136.825 78.4003C140.783 81.0693 145.972 81.6766 150.537 80.0091C151.326 79.7215 152.902 78.9224 153.595 78.4589C155.971 76.8767 157.814 74.6819 158.864 72.2048C159.625 70.3989 159.95 68.7528 159.95 66.7444C159.945 64.2779 159.455 62.147 158.411 60.0587C156.189 55.6158 151.906 52.6912 146.829 52.1478C146.195 52.0786 144.581 52.0519 144.059 52.1052ZM147.442 52.3769C149.711 52.7285 151.603 53.4637 153.462 54.7049C156.584 56.7932 158.704 59.9415 159.476 63.6173C159.908 65.6789 159.908 67.8684 159.476 69.7809C159.034 71.7413 158.049 73.7763 156.754 75.3745C156.264 75.9818 155.145 77.0898 154.554 77.5586C152.881 78.8904 150.729 79.9239 148.667 80.3927C145.05 81.2131 141.215 80.6964 138.066 78.965C133.101 76.2322 130.294 71.1234 130.736 65.6257C130.97 62.733 131.913 60.1972 133.575 57.9651C134.135 57.2193 135.477 55.8449 136.18 55.3015C138.333 53.6448 140.975 52.59 143.74 52.2863C144.501 52.2011 146.643 52.2544 147.442 52.3769Z" fill="url(#paint2_radial)"/>
<path d="M87.0315 81.0533C84.9219 81.3623 83.0734 82.5982 82.0931 84.3508C81.9866 84.5426 81.0597 86.8067 80.0262 89.385C78.998 91.9634 78.135 94.089 78.1137 94.1103C78.0924 94.1316 77.7408 94.0836 77.3306 93.9984C75.6099 93.6415 73.9532 93.4977 71.6092 93.503C69.2812 93.503 68.0613 93.5776 64.247 93.9771C63.1975 94.0836 62.3345 94.1636 62.3239 94.1476C62.3132 94.1369 61.4928 92.2298 60.5073 89.9178C58.4936 85.2032 58.4829 85.1819 57.572 84.2656C56.5332 83.2215 55.3612 82.5982 53.8163 82.2679C53.3475 82.1667 53.0918 82.1454 52.2714 82.1454C51.222 82.1454 50.7052 82.2146 49.8635 82.4597C49.2775 82.6248 40.9777 86.4551 40.477 86.7854C39.9709 87.121 39.1984 87.8988 38.8468 88.4261C37.5044 90.4345 37.286 92.7518 38.2609 94.6856C38.3567 94.8774 39.2411 96.9124 40.2266 99.2137L42.0219 103.396L41.5477 103.742C38.9747 105.617 36.098 108.307 34.031 110.774C33.1148 111.866 31.9215 113.523 31.3088 114.556C31.197 114.748 31.1011 114.908 31.0958 114.913C31.0904 114.924 28.9329 114.21 26.2959 113.331C23.6643 112.452 21.3257 111.685 21.1019 111.626C20.2176 111.397 19.0509 111.397 18.0974 111.621C16.3021 112.052 14.6613 113.315 13.6332 115.073C13.3615 115.531 10.3409 123.303 10.1225 124.102C10.0107 124.507 10 124.651 10 125.876C10 127.182 10.0053 127.219 10.1492 127.688C10.7778 129.728 12.2268 131.278 14.2724 132.088C14.6453 132.232 23.0304 135.812 23.0676 135.838C23.0783 135.849 23.009 136.201 22.9238 136.627C22.5616 138.374 22.4177 139.972 22.4231 142.364C22.4231 144.74 22.503 145.981 22.8972 149.732C23.009 150.808 23.073 151.607 23.0463 151.634C23.0197 151.66 21.1605 152.528 18.9178 153.562C14.2511 155.719 14.1179 155.789 13.1111 156.796C12.0403 157.866 11.4863 158.905 11.1613 160.429C11.0974 160.754 11.0708 161.121 11.0708 161.782C11.0708 162.751 11.14 163.273 11.3797 164.099C11.5555 164.701 15.3752 172.985 15.7108 173.496C15.8493 173.704 16.1796 174.093 16.4459 174.354C18.1879 176.101 20.8409 176.757 22.9877 175.979C23.2221 175.894 23.4992 175.771 23.6057 175.707C23.7122 175.643 25.7153 174.77 28.0539 173.768L32.3104 171.941L32.891 172.719C35.8902 176.709 39.6566 180.283 43.1353 182.435C43.5188 182.675 43.8331 182.872 43.8384 182.878C43.8491 182.883 43.1193 185.078 42.2296 187.757C41.1695 190.927 40.5729 192.792 40.5196 193.106C40.4184 193.671 40.445 194.699 40.5729 195.29C41.0097 197.272 42.2936 199.12 44.0675 200.314C44.499 200.607 44.7174 200.692 49.0325 202.231C51.5096 203.116 53.6938 203.877 53.8802 203.92C54.104 203.973 54.5035 204 55.1002 204C56.0964 204 56.6078 203.904 57.4495 203.563C58.9837 202.935 60.4647 201.592 61.4023 199.973C61.7379 199.392 61.7432 199.381 63.3573 194.848L64.7637 190.89L64.9235 190.911C65.0141 190.922 65.5042 191.007 66.0156 191.097C67.8748 191.422 69.3078 191.534 71.6891 191.534C74.1077 191.534 75.8976 191.412 79.1046 191.034L80.5589 190.863L82.6791 194.811C83.8511 196.979 84.826 198.817 84.8473 198.886C84.9432 199.19 85.3161 199.93 85.5505 200.287C85.8914 200.804 86.552 201.48 87.0368 201.816C88.619 202.908 90.6486 203.196 92.8381 202.631C93.2643 202.519 94.1912 202.114 97.4462 200.617C99.6889 199.589 101.607 198.71 101.708 198.673C102.997 198.183 104.174 197.091 104.846 195.753C105.085 195.279 105.362 194.422 105.464 193.852C105.634 192.882 105.554 191.513 105.272 190.602C105.208 190.4 104.19 188.301 103.013 185.935L100.861 181.642L101.255 181.391C104.728 179.191 108.404 175.553 111.755 170.982C112.096 170.524 112.389 170.14 112.405 170.135C112.426 170.124 114.456 170.838 116.912 171.717C119.373 172.596 121.552 173.353 121.765 173.395C123.613 173.773 125.819 173.235 127.492 171.994C128.291 171.403 129.09 170.449 129.415 169.714C129.649 169.187 132.755 160.423 132.845 160.045C133.384 157.723 132.244 154.867 130.054 153.051C129.111 152.267 129.361 152.369 124.402 150.723C121.925 149.897 119.879 149.204 119.852 149.178C119.826 149.156 119.879 148.762 119.975 148.267C120.518 145.427 120.705 143.27 120.657 140.42C120.614 137.943 120.433 136.344 119.943 134.07C119.863 133.707 119.81 133.404 119.826 133.393C119.836 133.382 121.967 132.312 124.562 131.017C127.619 129.488 129.393 128.577 129.623 128.407C130.065 128.077 130.768 127.357 131.045 126.942C131.354 126.484 131.668 125.839 131.823 125.344C132.222 124.055 132.185 122.568 131.705 121.279C131.562 120.896 127.854 112.825 127.465 112.047C126.767 110.662 125.238 109.447 123.448 108.856C122.564 108.563 121.909 108.467 120.976 108.494C119.629 108.536 119.815 108.462 114.909 110.912C112.538 112.095 110.594 113.064 110.578 113.064C110.562 113.064 110.338 112.745 110.082 112.356C108.074 109.362 105.4 106.539 101.953 103.779C101.319 103.268 99.5877 101.952 99.1562 101.654L99.0284 101.563L100.6 97.1521C101.468 94.7282 102.214 92.608 102.262 92.4482C102.507 91.6278 102.576 90.3919 102.427 89.4916C102.097 87.4513 101.026 85.8211 99.4066 84.8942C98.9484 84.6385 90.6167 81.4102 89.9348 81.2291C89.6844 81.1652 89.2902 81.0852 89.0611 81.0533C88.5817 80.984 87.4949 80.984 87.0315 81.0533ZM89.0292 81.2078C89.221 81.2397 89.5459 81.2983 89.7484 81.3463C90.0946 81.4315 98.192 84.5053 98.9271 84.8356C100.259 85.4323 101.404 86.7268 101.948 88.2397C102.315 89.2625 102.443 90.6103 102.273 91.6278C102.155 92.3363 102.203 92.1872 100.408 97.2107C99.5398 99.6399 98.8366 101.632 98.8419 101.638C99.0603 101.771 101.772 103.838 102.262 104.243C105.506 106.906 107.962 109.527 109.869 112.345C110.146 112.756 110.397 113.139 110.434 113.198C110.487 113.299 110.732 113.182 114.903 111.104C118.18 109.469 119.426 108.877 119.741 108.792C120.103 108.691 120.316 108.675 121.179 108.675C122.127 108.67 122.228 108.68 122.777 108.824C124.173 109.186 125.233 109.762 126.192 110.683C126.49 110.966 126.82 111.354 127.002 111.621C127.225 111.951 127.891 113.347 129.42 116.66C130.581 119.18 131.578 121.396 131.642 121.588C132.222 123.378 131.961 125.253 130.917 126.825C130.608 127.288 129.921 127.991 129.457 128.316C129.266 128.449 126.97 129.632 124.354 130.937L119.597 133.313L119.634 133.457C120.012 134.938 120.327 137 120.46 138.848C120.529 139.85 120.529 142.295 120.46 143.334C120.343 145.044 120.05 147.185 119.735 148.645C119.666 148.981 119.623 149.274 119.645 149.295C119.671 149.311 121.749 150.014 124.274 150.856C128.749 152.347 128.871 152.39 129.282 152.672C131.407 154.127 132.819 156.582 132.819 158.825C132.819 159.726 132.75 159.955 131.029 164.781C130.134 167.29 129.319 169.517 129.218 169.725C128.845 170.508 128.03 171.424 127.167 172.015C126.357 172.58 125.233 173.049 124.247 173.246C123.592 173.374 122.378 173.374 121.818 173.241C121.52 173.171 113.492 170.348 112.389 169.927C112.357 169.911 112.25 170.018 112.149 170.156C108.825 174.855 105.053 178.696 101.404 181.082C101.015 181.338 100.701 181.578 100.696 181.615C100.696 181.647 101.665 183.623 102.853 185.994C105.405 191.092 105.394 191.066 105.394 192.653C105.394 194.315 104.846 195.801 103.791 197.016C103.216 197.682 102.528 198.151 101.495 198.582C101.186 198.71 99.2201 199.605 97.1265 200.575C94.9903 201.565 93.1418 202.386 92.918 202.444C90.654 203.078 88.4325 202.716 86.861 201.47C86.1418 200.905 85.4386 199.941 85.1083 199.083C84.9911 198.774 80.788 190.863 80.6655 190.725C80.6495 190.703 80.2659 190.73 79.8131 190.789C78.6411 190.938 76.6487 191.145 75.4981 191.247C74.1716 191.359 70.4692 191.406 69.2865 191.327C67.8429 191.225 66.2713 191.018 65.0834 190.767C64.8809 190.725 64.6945 190.703 64.6732 190.725C64.6519 190.746 63.954 192.674 63.1176 195.013C62.212 197.554 61.5141 199.429 61.381 199.674C60.8802 200.612 59.9426 201.731 59.1275 202.37C58.2752 203.036 57.4441 203.457 56.4799 203.718C56.0324 203.84 55.8726 203.856 55.1215 203.856C54.4396 203.856 54.1892 203.835 53.8696 203.75C53.4274 203.632 44.7494 200.537 44.5043 200.409C44.2273 200.266 43.4922 199.696 43.0767 199.301C41.5904 197.89 40.706 196.078 40.6208 194.278C40.5995 193.814 40.6155 193.505 40.6794 193.159C40.7327 192.845 41.324 190.991 42.3894 187.805C43.2844 185.126 44.0142 182.899 44.0142 182.851C44.0142 182.803 43.8598 182.675 43.652 182.558C42.6505 181.972 40.9671 180.768 39.8857 179.868C38.4633 178.68 36.4123 176.671 35.1764 175.26C34.4839 174.466 33.3438 173.049 32.7845 172.287C32.5714 172.005 32.3796 171.77 32.353 171.77C32.2784 171.77 24.0212 175.313 23.4778 175.579C22.7374 175.942 22.162 176.091 21.3683 176.123C19.9779 176.187 18.6993 175.819 17.506 175.02C16.968 174.658 16.1316 173.827 15.8173 173.337C15.5137 172.862 11.71 164.637 11.5449 164.099C11.3105 163.321 11.2253 162.693 11.2253 161.782C11.2306 160.855 11.3105 160.312 11.5502 159.587C12.0989 157.952 13.2549 156.572 14.8478 155.666C15.0822 155.528 17.0479 154.601 19.2161 153.605C21.3842 152.603 23.1795 151.767 23.2115 151.74C23.2541 151.703 23.2275 151.298 23.1209 150.344C22.7107 146.615 22.5829 144.729 22.5829 142.338C22.5829 139.876 22.6894 138.624 23.089 136.627C23.1795 136.153 23.2488 135.753 23.2328 135.737C23.1955 135.7 14.7572 132.099 14.3683 131.949C12.1575 131.118 10.5594 129.217 10.1598 126.947C10.0107 126.074 10.0746 124.864 10.325 123.985C10.5008 123.362 13.5106 115.632 13.7131 115.275C14.4482 113.986 15.5829 112.873 16.7869 112.265C17.2344 112.042 17.9589 111.802 18.4809 111.701C19.0882 111.589 20.0951 111.589 20.6811 111.701C20.9314 111.749 23.3606 112.526 26.0882 113.437C28.8104 114.343 31.0798 115.089 31.1224 115.089C31.165 115.089 31.2982 114.924 31.4101 114.727C33.4291 111.253 37.2167 107.21 41.3879 104.077C41.8354 103.742 42.203 103.454 42.203 103.438C42.203 103.38 38.5485 94.8881 38.3621 94.5151C37.1102 92.0167 38.117 88.5966 40.6048 86.9079C41.0363 86.6149 49.3521 82.7793 49.9008 82.6195C50.7638 82.3638 51.2273 82.3052 52.2714 82.3052C53.0918 82.3052 53.3528 82.3265 53.8163 82.4277C54.8711 82.6515 55.862 83.0989 56.677 83.7062C57.2044 84.0951 57.9822 84.9049 58.3018 85.3896C58.467 85.6453 59.1222 87.1156 60.3688 90.0243C61.3703 92.3683 62.2067 94.3021 62.228 94.318C62.244 94.3393 62.537 94.318 62.8726 94.2807C68.855 93.5776 72.8025 93.471 75.9242 93.9185C76.4996 93.9984 77.9699 94.2861 78.119 94.3393C78.183 94.366 78.5612 93.471 80.1008 89.6141C81.2301 86.796 82.1038 84.6811 82.2476 84.4307C83.2385 82.6994 85.0125 81.5114 87.0528 81.2131C87.4843 81.1492 88.6243 81.1438 89.0292 81.2078Z" fill="url(#paint3_radial)"/>
<path d="M69.9844 112.143C67.8215 112.313 66.4791 112.521 64.7371 112.958C62.8619 113.427 61.2797 113.997 59.1702 114.966C55.3133 116.74 52.5697 118.621 49.7943 121.396C47.983 123.208 46.6299 124.918 45.362 126.995C42.9861 130.884 41.6117 134.997 41.1269 139.647C41.031 140.548 41.0363 144.037 41.1269 144.895C41.5797 149.039 42.5226 152.129 44.5683 156.215C48.244 163.54 54.5888 169.027 62.2599 171.52C65.435 172.553 68.4768 173.001 71.769 172.926C74.1343 172.868 75.9455 172.633 78.1137 172.09C80.1594 171.579 81.6776 171.019 84.1281 169.885C88.4432 167.882 92.039 165.133 95.0223 161.569C97.4781 158.628 99.332 155.293 100.563 151.607C101.351 149.242 101.799 147.041 102.033 144.362C102.113 143.462 102.113 140.894 102.033 139.94C101.719 136.19 100.733 132.504 99.2627 129.579C96.173 123.442 91.0961 118.338 85.0764 115.323C81.4805 113.523 77.8633 112.5 73.9745 112.186C73.1008 112.116 70.6556 112.09 69.9844 112.143ZM74.5658 112.393C77.3999 112.702 80.0528 113.357 82.6365 114.396C83.6913 114.817 85.9128 115.915 86.845 116.474C91.8739 119.494 95.9173 123.73 98.7034 128.87C99.2414 129.872 99.6037 130.644 99.9766 131.593C103.311 140.175 102.379 149.876 97.4462 157.904C96.1144 160.066 94.6441 161.899 92.7529 163.753C90.0733 166.374 87.3298 168.233 83.6753 169.911C81.1023 171.088 79.0833 171.765 76.6967 172.244C73.8093 172.825 70.6237 172.937 67.6671 172.564C62.0628 171.861 56.7569 169.522 52.3034 165.788C51.5309 165.138 49.9008 163.55 49.1816 162.741C47.429 160.764 45.9214 158.532 44.7334 156.162C42.741 152.177 41.7981 149.194 41.3453 145.385C41.2015 144.207 41.1482 141.581 41.2388 140.329C41.9473 130.644 47.3544 121.972 55.8673 116.863C57.6093 115.819 60.486 114.482 62.4198 113.81C64.7318 113.017 67.4273 112.473 69.9045 112.297C70.6183 112.249 73.8573 112.313 74.5658 112.393Z" fill="url(#paint4_radial)"/>
<path d="M70.4372 124.15C61.4236 124.587 54.3703 131.06 53.2037 139.962C52.7562 143.366 53.2356 146.956 54.5355 150.009C56.8209 155.363 61.5035 159.219 67.2409 160.471C68.7964 160.812 70.075 160.924 71.8862 160.887C74.2089 160.839 75.9562 160.519 78.0818 159.758C78.9501 159.449 80.6015 158.639 81.4379 158.117C83.393 156.886 85.135 155.245 86.4615 153.376C87.8465 151.42 88.8534 149.146 89.3701 146.796C89.7377 145.129 89.8283 144.165 89.8283 141.789C89.8283 140.297 89.8176 140.02 89.7537 140.02C89.7111 140.02 87.7826 140.835 85.4653 141.826L81.2461 143.632L81.1769 143.467C81.1342 143.371 80.202 141.368 79.0993 139.008C77.9965 136.653 77.0962 134.693 77.0962 134.661C77.0962 134.629 78.9927 133.793 81.3154 132.796C83.6327 131.806 85.5398 130.964 85.5505 130.932C85.5771 130.847 84.9059 129.994 84.3572 129.414C82.6205 127.586 80.5323 126.233 77.9752 125.28C76.3664 124.683 74.3527 124.257 72.7545 124.172C71.5559 124.113 71.2416 124.108 70.4372 124.15ZM73.1807 124.364C75.0719 124.523 77.1282 125.056 78.9448 125.85C81.2994 126.883 83.4835 128.519 84.9219 130.325C85.3694 130.879 85.3694 130.879 85.2362 130.937C85.1616 130.964 83.2545 131.779 80.9957 132.749C78.1617 133.958 76.8831 134.533 76.8831 134.586C76.8831 134.709 81.1289 143.771 81.1982 143.792C81.2301 143.803 83.132 143.009 85.4333 142.023C87.7293 141.038 89.6205 140.233 89.6418 140.233C89.6631 140.233 89.6684 141.15 89.6525 142.268C89.6258 144.458 89.5885 144.895 89.2955 146.36C88.7948 148.858 87.724 151.33 86.2697 153.36C84.1548 156.305 81.0597 158.575 77.549 159.768C76.2172 160.221 74.8854 160.503 73.3512 160.668C72.3177 160.775 69.9365 160.748 68.9722 160.615C66.0742 160.21 63.5971 159.31 61.3064 157.829C59.4259 156.609 57.6466 154.872 56.3627 152.992C53.518 148.837 52.5271 143.467 53.6565 138.337C55.0256 132.115 59.4845 127.171 65.4989 125.216C67.9814 124.411 70.4745 124.134 73.1807 124.364Z" fill="url(#paint5_radial)"/>
<path fill-rule="evenodd" clip-rule="evenodd" d="M89.0292 81.2078C89.221 81.2397 89.5459 81.2983 89.7484 81.3463C90.0946 81.4315 98.192 84.5053 98.9271 84.8356C100.259 85.4323 101.404 86.7268 101.948 88.2397C102.315 89.2625 102.443 90.6103 102.273 91.6278C102.155 92.3363 102.203 92.1872 100.408 97.2107C99.5398 99.6399 98.8366 101.632 98.8419 101.638C99.0603 101.771 101.772 103.838 102.262 104.243C105.506 106.906 107.962 109.527 109.869 112.345C110.146 112.756 110.397 113.139 110.434 113.198C110.487 113.299 110.732 113.182 114.903 111.104C118.18 109.469 119.426 108.877 119.741 108.792C120.103 108.691 120.316 108.675 121.179 108.675C122.127 108.67 122.228 108.68 122.777 108.824C124.173 109.186 125.233 109.762 126.192 110.683C126.49 110.966 126.82 111.354 127.002 111.621C127.225 111.951 127.891 113.347 129.42 116.66C130.581 119.18 131.578 121.396 131.642 121.588C132.222 123.378 131.961 125.253 130.917 126.825C130.608 127.288 129.921 127.991 129.457 128.316C129.266 128.449 126.97 129.632 124.354 130.937L119.597 133.313L119.634 133.457C120.012 134.938 120.327 137 120.46 138.848C120.529 139.85 120.529 142.295 120.46 143.334C120.343 145.044 120.05 147.185 119.735 148.645C119.666 148.981 119.623 149.274 119.645 149.295C119.671 149.311 121.749 150.014 124.274 150.856C128.749 152.347 128.871 152.39 129.282 152.672C131.407 154.127 132.819 156.582 132.819 158.825C132.819 159.726 132.75 159.955 131.029 164.781C130.134 167.29 129.319 169.517 129.218 169.725C128.845 170.508 128.03 171.424 127.167 172.015C126.357 172.58 125.233 173.049 124.247 173.246C123.592 173.374 122.378 173.374 121.818 173.241C121.52 173.171 113.492 170.348 112.389 169.927C112.357 169.911 112.25 170.018 112.149 170.156C108.825 174.855 105.053 178.696 101.404 181.082C101.015 181.338 100.701 181.578 100.696 181.615C100.696 181.647 101.665 183.623 102.853 185.994C105.405 191.092 105.394 191.066 105.394 192.653C105.394 194.315 104.846 195.801 103.791 197.016C103.216 197.682 102.528 198.151 101.495 198.582C101.186 198.71 99.2201 199.605 97.1265 200.575C94.9903 201.565 93.1418 202.386 92.918 202.444C90.654 203.078 88.4325 202.716 86.861 201.47C86.1418 200.905 85.4386 199.941 85.1083 199.083C84.9911 198.774 80.788 190.863 80.6655 190.725C80.6495 190.703 80.2659 190.73 79.8131 190.789C78.6411 190.938 76.6487 191.145 75.4981 191.247C74.1716 191.359 70.4692 191.406 69.2865 191.327C67.8429 191.225 66.2713 191.018 65.0834 190.767C64.8809 190.725 64.6945 190.703 64.6732 190.725C64.6519 190.746 63.954 192.674 63.1176 195.013C62.212 197.554 61.5141 199.429 61.381 199.674C60.8802 200.612 59.9426 201.731 59.1275 202.37C58.2752 203.036 57.4441 203.457 56.4799 203.718C56.0324 203.84 55.8726 203.856 55.1215 203.856C54.4396 203.856 54.1892 203.835 53.8696 203.75C53.4274 203.632 44.7494 200.537 44.5043 200.409C44.2273 200.266 43.4922 199.696 43.0767 199.301C41.5904 197.89 40.706 196.078 40.6208 194.278C40.5995 193.814 40.6155 193.505 40.6794 193.159C40.7327 192.845 41.324 190.991 42.3894 187.805C43.2844 185.126 44.0142 182.899 44.0142 182.851C44.0142 182.803 43.8598 182.675 43.652 182.558C42.6505 181.972 40.9671 180.768 39.8857 179.868C38.4633 178.68 36.4123 176.671 35.1764 175.26C34.4839 174.466 33.3438 173.049 32.7845 172.287C32.5714 172.005 32.3796 171.77 32.353 171.77C32.2784 171.77 24.0212 175.313 23.4778 175.579C22.7374 175.942 22.162 176.091 21.3683 176.123C19.9779 176.187 18.6993 175.819 17.506 175.02C16.968 174.658 16.1316 173.827 15.8173 173.337C15.5137 172.862 11.71 164.637 11.5449 164.099C11.3105 163.321 11.2253 162.693 11.2253 161.782C11.2306 160.855 11.3105 160.312 11.5502 159.587C12.0989 157.952 13.2549 156.572 14.8478 155.666C15.0822 155.528 17.0479 154.601 19.2161 153.605C21.3842 152.603 23.1795 151.767 23.2115 151.74C23.2541 151.703 23.2275 151.298 23.1209 150.344C22.7107 146.615 22.5829 144.729 22.5829 142.338C22.5829 139.876 22.6894 138.624 23.089 136.627C23.1795 136.153 23.2488 135.753 23.2328 135.737C23.1955 135.7 14.7572 132.099 14.3683 131.949C12.1575 131.118 10.5594 129.217 10.1598 126.947C10.0107 126.074 10.0746 124.864 10.325 123.985C10.5008 123.362 13.5106 115.632 13.7131 115.275C14.4482 113.986 15.5829 112.873 16.7869 112.265C17.2344 112.042 17.9589 111.802 18.4809 111.701C19.0882 111.589 20.0951 111.589 20.6811 111.701C20.9314 111.749 23.3606 112.526 26.0882 113.437C28.8104 114.343 31.0798 115.089 31.1224 115.089C31.165 115.089 31.2982 114.924 31.4101 114.727C33.4291 111.253 37.2167 107.21 41.3879 104.077C41.8354 103.742 42.203 103.454 42.203 103.438C42.203 103.38 38.5485 94.8881 38.3621 94.5151C37.1102 92.0167 38.117 88.5966 40.6048 86.9079C41.0363 86.6149 49.3521 82.7793 49.9008 82.6195C50.7638 82.3638 51.2273 82.3052 52.2714 82.3052C53.0918 82.3052 53.3528 82.3265 53.8163 82.4277C54.8711 82.6515 55.862 83.0989 56.677 83.7062C57.2044 84.0951 57.9822 84.9049 58.3018 85.3896C58.467 85.6453 59.1222 87.1156 60.3688 90.0243C61.3703 92.3683 62.2067 94.3021 62.228 94.318C62.244 94.3393 62.537 94.318 62.8726 94.2807C68.855 93.5776 72.8025 93.471 75.9242 93.9185C76.4996 93.9984 77.9699 94.2861 78.119 94.3393C78.183 94.366 78.5612 93.471 80.1008 89.6141C81.2301 86.796 82.1038 84.6811 82.2476 84.4307C83.2385 82.6994 85.0125 81.5114 87.0528 81.2131C87.4843 81.1492 88.6243 81.1438 89.0292 81.2078ZM64.7371 112.958C66.4791 112.521 67.8215 112.313 69.9844 112.143C70.6556 112.09 73.1008 112.116 73.9745 112.186C77.8633 112.5 81.4805 113.523 85.0764 115.323C91.0961 118.338 96.173 123.442 99.2627 129.579C100.733 132.504 101.719 136.19 102.033 139.94C102.113 140.894 102.113 143.462 102.033 144.362C101.799 147.041 101.351 149.242 100.563 151.607C99.332 155.293 97.4781 158.628 95.0223 161.569C92.039 165.133 88.4432 167.882 84.1281 169.885C81.6776 171.019 80.1594 171.579 78.1137 172.09C75.9455 172.633 74.1343 172.868 71.769 172.926C68.4768 173.001 65.435 172.553 62.2599 171.52C54.5888 169.027 48.244 163.54 44.5683 156.215C42.5226 152.129 41.5797 149.039 41.1269 144.895C41.0363 144.037 41.031 140.548 41.1269 139.647C41.6117 134.997 42.9861 130.884 45.362 126.995C46.6299 124.918 47.983 123.208 49.7943 121.396C52.5697 118.621 55.3133 116.74 59.1702 114.966C61.2797 113.997 62.8619 113.427 64.7371 112.958Z" fill="url(#paint6_radial)"/>
<path d="M73.1807 124.364C75.0719 124.523 77.1282 125.056 78.9448 125.85C81.2994 126.883 83.4835 128.519 84.9219 130.325C85.3694 130.879 85.3694 130.879 85.2362 130.937C85.1616 130.964 83.2545 131.779 80.9957 132.749C78.1617 133.958 76.8831 134.533 76.8831 134.586C76.8831 134.709 81.1289 143.771 81.1982 143.792C81.2301 143.803 83.132 143.009 85.4333 142.023C87.7293 141.038 89.6205 140.233 89.6418 140.233C89.6631 140.233 89.6684 141.15 89.6525 142.268C89.6258 144.458 89.5885 144.895 89.2955 146.36C88.7948 148.858 87.724 151.33 86.2697 153.36C84.1548 156.305 81.0597 158.575 77.549 159.768C76.2172 160.221 74.8854 160.503 73.3512 160.668C72.3177 160.775 69.9365 160.748 68.9722 160.615C66.0742 160.21 63.5971 159.31 61.3064 157.829C59.4259 156.609 57.6466 154.872 56.3627 152.992C53.518 148.837 52.5271 143.467 53.6565 138.337C55.0256 132.115 59.4845 127.171 65.4989 125.216C67.9814 124.411 70.4745 124.134 73.1807 124.364Z" fill="url(#paint7_radial)"/>
<path d="M147.442 52.3769C149.711 52.7285 151.603 53.4637 153.462 54.7049C156.584 56.7932 158.704 59.9415 159.476 63.6173C159.908 65.6789 159.908 67.8684 159.476 69.7809C159.034 71.7413 158.049 73.7763 156.754 75.3745C156.264 75.9818 155.145 77.0898 154.554 77.5586C152.881 78.8904 150.729 79.9239 148.667 80.3927C145.05 81.2131 141.215 80.6964 138.066 78.965C133.101 76.2322 130.294 71.1234 130.736 65.6257C130.97 62.733 131.913 60.1972 133.575 57.9651C134.135 57.2193 135.477 55.8449 136.18 55.3015C138.333 53.6448 140.975 52.59 143.74 52.2863C144.501 52.2011 146.643 52.2544 147.442 52.3769Z" fill="url(#paint8_radial)"/>
<path fill-rule="evenodd" clip-rule="evenodd" d="M148.907 16.365C150.553 16.9403 151.832 18.2721 152.364 19.9715C152.434 20.2006 152.45 20.7972 152.476 23.9935L152.503 27.7439L153.062 27.8984C155.518 28.559 157.036 29.0277 158.682 29.6404C161.911 30.8443 164.713 32.2933 167.073 33.9767C167.408 34.2164 167.717 34.4349 167.755 34.4562C167.808 34.4881 168.596 33.737 170.472 31.8671C172.006 30.3436 173.242 29.1556 173.412 29.0437C174.249 28.5057 174.845 28.3086 175.762 28.2713C177.019 28.218 177.695 28.4737 178.526 29.3207C178.803 29.6084 179.816 30.4874 180.769 31.2812C182.65 32.8474 182.895 33.1031 183.268 33.8755C183.624 34.6107 183.715 35.0368 183.72 35.9265C183.72 36.5125 183.694 36.7895 183.619 37.0718C183.497 37.5406 183.188 38.2119 182.905 38.6327C182.783 38.8085 181.531 40.1137 180.098 41.5627C178.675 42.9957 177.514 44.189 177.514 44.205C177.514 44.2263 177.759 44.6418 178.052 45.1319C181.249 50.4005 182.959 54.6783 183.513 58.8175L183.608 59.5207L187.604 59.542C191.514 59.558 191.615 59.5633 192.052 59.6752C192.782 59.867 193.288 60.16 193.842 60.7193C194.396 61.2734 194.726 61.8434 194.955 62.6265C195.185 63.4149 195.211 63.9103 195.19 67.064L195.169 69.994L195.025 70.4734C194.593 71.8585 193.661 72.8014 192.244 73.2756L191.871 73.4034L183.619 73.4567L183.502 74.2558C182.841 78.8745 180.972 83.589 178.089 87.9041C177.775 88.3835 177.514 88.7884 177.514 88.8097C177.514 88.831 178.686 90.0243 180.114 91.4627C182.847 94.2062 183.044 94.4299 183.379 95.2237C183.848 96.3211 183.859 97.7328 183.406 98.8355C183.076 99.6453 182.895 99.8637 180.609 102.149C178.228 104.536 178.287 104.488 177.328 104.765C176.955 104.871 176.784 104.887 175.969 104.887C175.128 104.887 174.978 104.871 174.451 104.738C174.099 104.653 173.652 104.488 173.332 104.333L172.8 104.072L170.349 101.302C169.001 99.7784 167.867 98.5265 167.829 98.5265C167.792 98.5212 167.584 98.6544 167.371 98.8142C167.153 98.974 166.593 99.3522 166.13 99.6612C162.646 101.952 158.357 103.742 153.158 105.074L152.482 105.249L152.45 112.771L152.274 113.278C151.794 114.657 150.761 115.797 149.418 116.421C148.545 116.831 148.662 116.82 145.231 116.82H142.168L141.742 116.671C141.508 116.586 141.151 116.421 140.943 116.303C140.543 116.069 139.819 115.382 139.547 114.982C139.323 114.652 139.02 114.039 138.887 113.666C138.641 112.947 138.626 112.686 138.626 108.856V105.244L138.109 105.127C132.089 103.769 127.151 101.707 123.347 98.9687C123.033 98.7396 122.74 98.5532 122.686 98.5532C122.639 98.5479 121.605 99.6719 120.167 101.291C117.807 103.955 117.722 104.04 117.327 104.264C116.475 104.733 115.516 104.946 114.477 104.898C113.699 104.861 113.044 104.695 112.368 104.37C111.915 104.158 111.872 104.115 109.902 102.155L109.896 102.149C108.788 101.046 107.776 100.002 107.648 99.8264C106.7 98.4999 106.492 96.71 107.115 95.2556C107.477 94.4139 107.52 94.3607 110.338 91.5266C112.426 89.4277 113.012 88.8044 112.975 88.7458C111.771 86.9931 111.02 85.7412 110.21 84.1377C108.548 80.8508 107.483 77.6012 107.009 74.3623C106.966 74.0373 106.913 73.6964 106.897 73.6005L106.87 73.43H102.891C99.0816 73.43 98.8898 73.4247 98.4583 73.3235C96.8335 72.9346 95.6349 71.6348 95.3686 69.9674C95.3259 69.6797 95.31 68.6888 95.3259 66.4514L95.3472 63.335L95.4911 62.8076C95.9386 61.1455 96.9348 60.0907 98.437 59.6752C98.8511 59.5584 98.9266 59.558 102.822 59.5369L102.864 59.5367L106.875 59.5207L106.897 59.4035C106.907 59.3396 106.993 58.8122 107.083 58.2315C107.706 54.316 109.299 50.3792 112.272 45.4196L113.018 44.173L110.381 41.5307C108.798 39.9379 107.669 38.7606 107.547 38.5794C107.291 38.1746 107.056 37.6791 106.923 37.2263C106.763 36.6936 106.726 35.5536 106.849 34.9889C107.019 34.2005 107.403 33.4227 107.893 32.8687C108.053 32.6822 111.254 29.9653 112.272 29.1449C113.018 28.5483 113.833 28.2553 114.738 28.2553C115.612 28.2553 116.326 28.4897 117.077 29.0277C117.253 29.1556 118.569 30.4341 120.007 31.8725C121.44 33.3108 122.639 34.4881 122.665 34.4881C122.692 34.4881 122.91 34.3496 123.145 34.1792C127.034 31.3664 131.876 29.3048 137.731 27.9623L138.62 27.7545L138.636 23.9456C138.652 20.2272 138.657 20.1206 138.769 19.7264C139.27 17.9471 140.49 16.642 142.008 16.2637C142.344 16.1785 142.68 16.1679 145.391 16.1785L148.401 16.1892L148.907 16.365ZM133.868 47.4439C136.82 45.6593 140.032 44.6258 143.5 44.3435C144.326 44.2796 146.611 44.3222 147.469 44.4234C152.599 45.0094 157.26 47.2148 160.915 50.7894C162.166 52.0147 163.04 53.0641 163.978 54.4652C165.043 56.058 165.613 57.2034 166.21 58.94C166.737 60.4849 167.062 61.8913 167.291 63.6013C167.403 64.3951 167.414 64.7307 167.419 66.3449C167.419 68.3159 167.366 68.9552 167.094 70.4468C165.81 77.4201 161.421 83.2374 155.033 86.4338C152.684 87.6058 150.361 88.2876 147.549 88.6233C146.643 88.7298 143.857 88.7138 142.887 88.5966C138.705 88.0799 135.03 86.6202 131.839 84.2017C130.267 83.0084 128.642 81.3516 127.508 79.7694C125.803 77.4095 124.391 74.1705 123.763 71.1979C123.374 69.3707 123.262 68.0656 123.299 65.9879C123.331 64.3205 123.416 63.4628 123.715 62.0032C124.935 55.9142 128.637 50.6083 133.868 47.4439Z" fill="url(#paint9_radial)"/>
<path d="M102.864 59.5367L106.875 59.5207L106.897 59.4035C106.907 59.3396 106.993 58.8122 107.083 58.2315C107.706 54.316 109.299 50.3792 112.272 45.4196L113.018 44.173L110.381 41.5307C108.798 39.9379 107.669 38.7606 107.547 38.5794C107.291 38.1746 107.056 37.6791 106.923 37.2263C106.763 36.6936 106.726 35.5536 106.849 34.9889C107.019 34.2005 107.403 33.4227 107.893 32.8687C108.053 32.6822 111.254 29.9653 112.272 29.1449C113.018 28.5483 113.833 28.2553 114.738 28.2553C115.612 28.2553 116.326 28.4897 117.077 29.0277C117.253 29.1556 118.569 30.4341 120.007 31.8725C121.44 33.3108 122.639 34.4881 122.665 34.4881C122.692 34.4881 122.91 34.3496 123.145 34.1792C127.034 31.3664 131.876 29.3048 137.731 27.9623L138.62 27.7545L138.636 23.9456C138.652 20.2272 138.657 20.1206 138.769 19.7264C139.27 17.9471 140.49 16.642 142.008 16.2637C142.344 16.1785 142.68 16.1679 145.391 16.1785L148.401 16.1892L148.907 16.365C150.553 16.9403 151.832 18.2721 152.364 19.9715C152.434 20.2006 152.45 20.7972 152.476 23.9935L152.503 27.7439L153.062 27.8984C155.518 28.559 157.036 29.0277 158.682 29.6404C161.911 30.8443 164.713 32.2933 167.073 33.9767C167.408 34.2164 167.717 34.4349 167.755 34.4562C167.808 34.4881 168.596 33.737 170.472 31.8671C172.006 30.3436 173.242 29.1556 173.412 29.0437C174.249 28.5057 174.845 28.3086 175.762 28.2713C177.019 28.218 177.695 28.4737 178.526 29.3207C178.803 29.6084 179.816 30.4874 180.769 31.2812C182.65 32.8474 182.895 33.1031 183.268 33.8755C183.624 34.6107 183.715 35.0368 183.72 35.9265C183.72 36.5125 183.694 36.7895 183.619 37.0718C183.497 37.5406 183.188 38.2119 182.905 38.6327C182.783 38.8085 181.531 40.1137 180.098 41.5627C178.675 42.9957 177.514 44.189 177.514 44.205C177.514 44.2263 177.759 44.6418 178.052 45.1319C181.249 50.4005 182.959 54.6783 183.513 58.8175L183.608 59.5207L187.604 59.542C191.514 59.558 191.615 59.5633 192.052 59.6752C192.782 59.867 193.288 60.16 193.842 60.7193C194.396 61.2734 194.726 61.8434 194.955 62.6265C195.185 63.4149 195.211 63.9103 195.19 67.064L195.169 69.994L195.025 70.4734C194.593 71.8585 193.661 72.8014 192.244 73.2756L191.871 73.4034L183.619 73.4567L183.502 74.2558C182.841 78.8745 180.972 83.589 178.089 87.9041C177.775 88.3835 177.514 88.7884 177.514 88.8097C177.514 88.831 178.686 90.0243 180.114 91.4627C182.847 94.2062 183.044 94.4299 183.379 95.2237C183.848 96.3211 183.859 97.7328 183.406 98.8355C183.076 99.6453 182.895 99.8637 180.609 102.149C178.228 104.536 178.287 104.488 177.328 104.765C176.955 104.871 176.784 104.887 175.969 104.887C175.128 104.887 174.978 104.871 174.451 104.738C174.099 104.653 173.652 104.488 173.332 104.333L172.8 104.072L170.349 101.302C169.001 99.7784 167.867 98.5265 167.829 98.5265C167.792 98.5212 167.584 98.6544 167.371 98.8142C167.153 98.974 166.593 99.3523 166.13 99.6612C162.646 101.952 158.357 103.742 153.158 105.074L152.482 105.249L152.45 112.771L152.274 113.278C151.794 114.657 150.761 115.797 149.418 116.421C148.545 116.831 148.662 116.82 145.231 116.82H142.168L141.742 116.671C141.508 116.586 141.151 116.421 140.943 116.303C140.543 116.069 139.819 115.382 139.547 114.982C139.323 114.652 139.02 114.039 138.887 113.666C138.641 112.947 138.626 112.686 138.626 108.856V105.244L138.109 105.127C132.089 103.769 127.151 101.707 123.347 98.9687C123.033 98.7396 122.74 98.5532 122.686 98.5532C122.639 98.5479 121.605 99.6719 120.167 101.291C117.807 103.955 117.722 104.04 117.327 104.264C116.475 104.733 115.516 104.946 114.477 104.898C113.699 104.861 113.044 104.695 112.368 104.37C111.915 104.158 111.872 104.115 109.902 102.155L109.896 102.149C108.788 101.046 107.776 100.002 107.648 99.8264C106.7 98.4999 106.492 96.71 107.115 95.2556C107.477 94.4139 107.52 94.3607 110.338 91.5266C112.426 89.4277 113.012 88.8044 112.975 88.7458C111.771 86.9931 111.02 85.7412 110.21 84.1377C108.548 80.8508 107.483 77.6013 107.009 74.3623C106.966 74.0373 106.913 73.6964 106.897 73.6005L106.87 73.43H102.891C99.0816 73.43 98.8898 73.4247 98.4583 73.3235C96.8335 72.9346 95.6349 71.6348 95.3686 69.9674C95.3259 69.6797 95.31 68.6888 95.3259 66.4514L95.3472 63.335L95.4911 62.8076C95.9386 61.1455 96.9348 60.0907 98.437 59.6752C98.8511 59.5584 98.9266 59.558 102.822 59.5369M102.864 59.5367L102.822 59.5369M102.864 59.5367C102.85 59.5368 102.836 59.5368 102.822 59.5369M142.062 16.0826C140.272 16.4822 138.849 18.1176 138.524 20.1579C138.487 20.371 138.466 21.8573 138.466 24.0575V27.616L138.322 27.648C137.113 27.9303 134.833 28.5323 133.938 28.804C129.633 30.1145 125.877 31.9364 122.868 34.1685L122.697 34.2964L120.071 31.6807C118.425 30.0399 117.322 28.9851 117.109 28.8413C116.326 28.3192 115.623 28.0955 114.749 28.0955C113.822 28.0955 113.012 28.3672 112.272 28.9372C111.419 29.5871 107.786 32.7035 107.616 32.9273C106.929 33.8329 106.609 34.7865 106.609 35.9478C106.609 36.9866 106.87 37.8709 107.424 38.6966C107.509 38.8298 108.756 40.1137 110.184 41.552C111.617 42.985 112.789 44.1783 112.789 44.1996C112.789 44.221 112.602 44.5406 112.373 44.9188C110.631 47.7635 109.209 50.5816 108.351 52.8936C107.589 54.9446 106.982 57.3365 106.79 59.0306L106.758 59.3609L102.805 59.3822C98.9911 59.3982 98.8419 59.4035 98.4264 59.5154C97.574 59.7391 96.9667 60.096 96.402 60.714C95.8693 61.2947 95.4911 62.0458 95.2833 62.9354C95.2034 63.287 95.1874 63.7132 95.1715 66.4727C95.1555 68.5823 95.1661 69.7276 95.2087 69.9833C95.3472 70.8677 95.7148 71.6295 96.3168 72.2687C96.8655 72.8494 97.4142 73.185 98.2293 73.446C98.5862 73.5579 98.6661 73.5632 102.667 73.5792L106.742 73.5952L106.865 74.4582C107.488 78.9064 109.56 84.0578 112.4 88.2077L112.794 88.7884L110.269 91.3242C108.852 92.7465 107.637 94.0144 107.499 94.2168C107.19 94.6483 106.865 95.3355 106.737 95.831C106.657 96.1186 106.636 96.3956 106.636 97.0562C106.636 98.0844 106.705 98.3934 107.115 99.2404C107.483 99.9915 107.738 100.279 109.997 102.522C111.691 104.2 111.766 104.264 112.203 104.477C113.06 104.893 113.843 105.074 114.76 105.074C115.692 105.074 116.534 104.866 117.37 104.429L117.807 104.205L120.097 101.616C121.36 100.194 122.457 98.958 122.543 98.8728L122.692 98.713L122.974 98.9154C125.995 101.068 128.983 102.559 132.792 103.822C134.236 104.301 135.893 104.77 137.454 105.143L138.439 105.372L138.471 109.154C138.498 112.83 138.503 112.942 138.615 113.336C139.068 114.929 140.112 116.197 141.385 116.714C142.062 116.991 142.296 117.007 145.269 117.007C148.417 117.007 148.614 116.985 149.461 116.586C150.894 115.92 151.928 114.785 152.434 113.331L152.609 112.825L152.663 105.377L153.249 105.223C159.029 103.71 163.509 101.765 167.089 99.2191C167.467 98.9527 167.787 98.7343 167.808 98.7343C167.829 98.7343 168.927 99.9596 170.242 101.451L172.64 104.163L173.093 104.397C174.03 104.887 175.026 105.1 176.209 105.058C177.045 105.026 177.562 104.914 178.143 104.642C178.468 104.488 178.686 104.285 180.716 102.256C182.085 100.886 183.007 99.9169 183.134 99.7252C183.592 99.0166 183.843 98.2069 183.891 97.296C183.923 96.5661 183.838 96.0014 183.587 95.3142C183.262 94.4193 183.044 94.1582 180.242 91.3668L177.69 88.815L178.313 87.8774C181.217 83.4932 183.134 78.5229 183.72 73.8669L183.758 73.5899H187.662C190.875 73.5899 191.637 73.5739 191.94 73.51C193.581 73.169 194.796 72.013 195.2 70.4095C195.307 69.994 195.312 69.8608 195.296 66.5526C195.275 62.6318 195.291 62.7969 194.774 61.7368C194.21 60.5755 193.347 59.8616 192.084 59.5154C191.669 59.4035 191.573 59.3982 187.705 59.3769C185.526 59.3662 183.747 59.3396 183.747 59.3236C183.747 59.3023 183.699 58.9507 183.635 58.5405C183.156 55.2589 181.904 51.727 179.911 48.0299C179.32 46.9325 178.26 45.0946 177.866 44.4873L177.685 44.2103L180.279 41.6C181.712 40.1616 182.953 38.8778 183.044 38.7446C184.12 37.1411 184.189 35.0581 183.225 33.428C182.879 32.8527 182.602 32.5863 180.71 31.0148C179.73 30.1944 178.83 29.4113 178.707 29.2621C178.074 28.4844 177.163 28.0955 175.975 28.0955C175.016 28.0955 174.11 28.3672 173.322 28.8946C173.183 28.9905 171.883 30.2477 170.445 31.6807L167.824 34.2964L167.568 34.1152C165.933 32.9486 164.649 32.1761 162.891 31.2918C160.947 30.3116 159.38 29.667 157.138 28.9212C156.061 28.5643 154.042 27.9783 153.062 27.7332L152.663 27.6373L152.609 20.1846L152.428 19.6572C151.81 17.8726 150.18 16.4129 148.438 16.0773C147.884 15.9708 142.541 15.9761 142.062 16.0826ZM143.5 44.3435C140.032 44.6258 136.82 45.6593 133.868 47.4439C128.637 50.6083 124.935 55.9142 123.715 62.0032C123.416 63.4628 123.331 64.3205 123.299 65.9879C123.262 68.0656 123.374 69.3707 123.763 71.1979C124.391 74.1705 125.803 77.4095 127.508 79.7694C128.642 81.3516 130.267 83.0084 131.839 84.2017C135.03 86.6202 138.705 88.0799 142.887 88.5966C143.857 88.7138 146.643 88.7298 147.549 88.6233C150.361 88.2876 152.684 87.6058 155.033 86.4338C161.421 83.2374 165.81 77.4201 167.094 70.4468C167.366 68.9552 167.419 68.3159 167.419 66.3449C167.414 64.7307 167.403 64.3951 167.291 63.6013C167.062 61.8913 166.737 60.4849 166.21 58.94C165.613 57.2034 165.043 56.058 163.978 54.4652C163.04 53.0641 162.166 52.0147 160.915 50.7894C157.26 47.2148 152.599 45.0094 147.469 44.4234C146.611 44.3222 144.326 44.2796 143.5 44.3435ZM147.469 44.5779C151.304 45.0254 155.028 46.4531 158.118 48.6638C160.877 50.6402 163.179 53.208 164.814 56.1433C165.917 58.125 166.758 60.8152 167.131 63.5747C167.291 64.7733 167.329 67.1546 167.211 68.4225C166.471 76.1736 161.916 82.8059 154.948 86.2899C152.695 87.414 150.431 88.0905 147.762 88.4368C146.702 88.57 143.979 88.57 142.887 88.4368C139.227 87.984 135.957 86.7907 133.059 84.8569C129.83 82.6994 127.492 80.0198 125.808 76.5465C124.572 74.0001 123.922 71.8372 123.565 69.0884C123.427 68.0123 123.427 64.9385 123.565 63.8677C123.922 61.1402 124.631 58.7962 125.798 56.4629C127.902 52.2491 131.322 48.8237 135.509 46.7301C137.858 45.5528 140.495 44.791 142.994 44.5566C143.329 44.5299 143.702 44.4926 143.82 44.482C144.299 44.434 146.792 44.5033 147.469 44.5779ZM144.059 52.1052C142.413 52.2597 141.108 52.5634 139.718 53.1067C135.11 54.902 131.769 58.9134 130.826 63.7771C130.608 64.9118 130.555 65.4978 130.555 66.8243C130.56 68.1508 130.619 68.7421 130.874 69.8608C131.642 73.2915 133.767 76.344 136.825 78.4003C140.783 81.0693 145.972 81.6766 150.537 80.0091C151.326 79.7215 152.902 78.9224 153.595 78.4589C155.971 76.8767 157.814 74.6819 158.864 72.2048C159.625 70.3989 159.95 68.7527 159.95 66.7444C159.945 64.2779 159.455 62.147 158.411 60.0587C156.189 55.6158 151.906 52.6912 146.829 52.1478C146.195 52.0786 144.581 52.0519 144.059 52.1052ZM147.442 52.3769C149.711 52.7285 151.603 53.4637 153.462 54.7049C156.584 56.7932 158.704 59.9415 159.476 63.6173C159.908 65.6789 159.908 67.8684 159.476 69.7809C159.034 71.7413 158.049 73.7763 156.754 75.3745C156.264 75.9818 155.145 77.0898 154.554 77.5586C152.881 78.8904 150.729 79.9239 148.667 80.3927C145.05 81.2131 141.215 80.6964 138.066 78.965C133.101 76.2322 130.294 71.1234 130.736 65.6257C130.97 62.733 131.913 60.1972 133.575 57.9651C134.135 57.2193 135.477 55.8449 136.18 55.3015C138.333 53.6448 140.975 52.59 143.74 52.2863C144.501 52.2011 146.643 52.2544 147.442 52.3769ZM87.0315 81.0533C84.9219 81.3623 83.0734 82.5982 82.0931 84.3508C81.9866 84.5426 81.0597 86.8067 80.0262 89.385C78.998 91.9634 78.135 94.089 78.1137 94.1103C78.0924 94.1316 77.7408 94.0836 77.3306 93.9984C75.6099 93.6415 73.9532 93.4976 71.6092 93.503C69.2812 93.503 68.0613 93.5776 64.247 93.9771C63.1975 94.0836 62.3345 94.1635 62.3239 94.1476C62.3132 94.1369 61.4928 92.2298 60.5073 89.9178C58.4936 85.2032 58.4829 85.1819 57.572 84.2656C56.5332 83.2215 55.3612 82.5982 53.8163 82.2679C53.3475 82.1667 53.0918 82.1454 52.2714 82.1454C51.222 82.1454 50.7052 82.2146 49.8635 82.4597C49.2775 82.6248 40.9777 86.4551 40.477 86.7854C39.9709 87.121 39.1984 87.8987 38.8468 88.4261C37.5044 90.4345 37.286 92.7518 38.2609 94.6856C38.3567 94.8774 39.2411 96.9124 40.2266 99.2137L42.0219 103.396L41.5477 103.742C38.9747 105.617 36.098 108.307 34.031 110.774C33.1148 111.866 31.9215 113.523 31.3088 114.556C31.197 114.748 31.1011 114.908 31.0958 114.913C31.0904 114.924 28.9329 114.21 26.2959 113.331C23.6643 112.452 21.3257 111.685 21.1019 111.626C20.2176 111.397 19.0509 111.397 18.0974 111.621C16.3021 112.052 14.6613 113.315 13.6332 115.073C13.3615 115.531 10.3409 123.303 10.1225 124.102C10.0107 124.507 10 124.651 10 125.876C10 127.182 10.0053 127.219 10.1492 127.688C10.7778 129.728 12.2268 131.278 14.2724 132.088C14.6453 132.232 23.0304 135.812 23.0676 135.838C23.0783 135.849 23.009 136.201 22.9238 136.627C22.5616 138.374 22.4177 139.972 22.4231 142.364C22.4231 144.74 22.503 145.981 22.8972 149.732C23.009 150.808 23.073 151.607 23.0463 151.634C23.0197 151.66 21.1605 152.528 18.9178 153.562C14.2511 155.719 14.1179 155.789 13.1111 156.796C12.0403 157.866 11.4863 158.905 11.1613 160.429C11.0974 160.754 11.0708 161.121 11.0708 161.782C11.0708 162.751 11.14 163.273 11.3797 164.099C11.5555 164.701 15.3752 172.985 15.7108 173.496C15.8493 173.704 16.1796 174.093 16.4459 174.354C18.1879 176.101 20.8409 176.757 22.9877 175.979C23.2221 175.894 23.4992 175.771 23.6057 175.707C23.7122 175.643 25.7153 174.77 28.0539 173.768L32.3104 171.941L32.891 172.719C35.8902 176.709 39.6566 180.283 43.1353 182.435C43.5188 182.675 43.8331 182.872 43.8384 182.878C43.8491 182.883 43.1193 185.078 42.2296 187.757C41.1695 190.927 40.5729 192.792 40.5196 193.106C40.4184 193.671 40.445 194.699 40.5729 195.29C41.0097 197.272 42.2936 199.12 44.0675 200.314C44.499 200.607 44.7174 200.692 49.0325 202.231C51.5096 203.116 53.6938 203.877 53.8802 203.92C54.104 203.973 54.5035 204 55.1002 204C56.0964 204 56.6078 203.904 57.4495 203.563C58.9837 202.935 60.4647 201.592 61.4023 199.973C61.7379 199.392 61.7432 199.381 63.3573 194.848L64.7637 190.89L64.9235 190.911C65.0141 190.922 65.5042 191.007 66.0156 191.097C67.8748 191.422 69.3078 191.534 71.6891 191.534C74.1077 191.534 75.8976 191.412 79.1046 191.034L80.5589 190.863L82.6791 194.811C83.8511 196.979 84.826 198.817 84.8473 198.886C84.9432 199.19 85.3161 199.93 85.5505 200.287C85.8915 200.804 86.552 201.48 87.0368 201.816C88.619 202.908 90.6486 203.196 92.8381 202.631C93.2643 202.519 94.1912 202.114 97.4462 200.617C99.6889 199.589 101.607 198.71 101.708 198.673C102.997 198.183 104.174 197.091 104.846 195.753C105.085 195.279 105.362 194.422 105.464 193.852C105.634 192.882 105.554 191.513 105.272 190.602C105.208 190.4 104.19 188.301 103.013 185.935L100.861 181.642L101.255 181.391C104.728 179.191 108.404 175.553 111.755 170.982C112.096 170.524 112.389 170.14 112.405 170.135C112.426 170.124 114.456 170.838 116.912 171.717C119.373 172.596 121.552 173.353 121.765 173.395C123.613 173.773 125.819 173.235 127.492 171.994C128.291 171.403 129.09 170.449 129.415 169.714C129.649 169.187 132.755 160.423 132.845 160.045C133.384 157.723 132.244 154.867 130.054 153.051C129.111 152.267 129.361 152.369 124.402 150.723C121.925 149.897 119.879 149.204 119.852 149.178C119.826 149.156 119.879 148.762 119.975 148.267C120.518 145.427 120.705 143.27 120.657 140.42C120.614 137.943 120.433 136.344 119.943 134.07C119.863 133.707 119.81 133.404 119.826 133.393C119.836 133.382 121.967 132.312 124.562 131.017C127.619 129.488 129.393 128.577 129.623 128.407C130.065 128.077 130.768 127.357 131.045 126.942C131.354 126.484 131.668 125.839 131.823 125.344C132.222 124.055 132.185 122.568 131.705 121.279C131.562 120.896 127.854 112.825 127.465 112.047C126.767 110.662 125.238 109.447 123.448 108.856C122.564 108.563 121.909 108.467 120.976 108.494C119.629 108.536 119.815 108.462 114.909 110.912C112.538 112.095 110.594 113.064 110.578 113.064C110.562 113.064 110.338 112.745 110.082 112.356C108.074 109.362 105.4 106.539 101.953 103.779C101.319 103.268 99.5877 101.952 99.1562 101.654L99.0284 101.563L100.6 97.1521C101.468 94.7282 102.214 92.608 102.262 92.4482C102.507 91.6278 102.576 90.3919 102.427 89.4916C102.097 87.4513 101.026 85.8211 99.4066 84.8942C98.9484 84.6385 90.6167 81.4102 89.9348 81.2291C89.6844 81.1652 89.2902 81.0852 89.0611 81.0533C88.5817 80.984 87.4949 80.984 87.0315 81.0533ZM89.0292 81.2078C89.221 81.2397 89.5459 81.2983 89.7483 81.3463C90.0946 81.4315 98.192 84.5053 98.9271 84.8356C100.259 85.4323 101.404 86.7268 101.948 88.2397C102.315 89.2625 102.443 90.6103 102.273 91.6278C102.155 92.3363 102.203 92.1872 100.408 97.2107C99.5398 99.6399 98.8366 101.632 98.8419 101.638C99.0603 101.771 101.772 103.838 102.262 104.243C105.506 106.906 107.962 109.527 109.869 112.345C110.146 112.756 110.397 113.139 110.434 113.198C110.487 113.299 110.732 113.182 114.903 111.104C118.18 109.469 119.426 108.877 119.741 108.792C120.103 108.691 120.316 108.675 121.179 108.675C122.127 108.67 122.228 108.68 122.777 108.824C124.173 109.186 125.233 109.762 126.192 110.683C126.49 110.966 126.82 111.354 127.002 111.621C127.225 111.951 127.891 113.347 129.42 116.66C130.581 119.18 131.578 121.396 131.642 121.588C132.222 123.378 131.961 125.253 130.917 126.825C130.608 127.288 129.921 127.991 129.457 128.316C129.266 128.449 126.97 129.632 124.354 130.937L119.597 133.313L119.634 133.457C120.012 134.938 120.327 137 120.46 138.848C120.529 139.85 120.529 142.295 120.46 143.334C120.343 145.044 120.05 147.185 119.735 148.645C119.666 148.981 119.623 149.274 119.645 149.295C119.671 149.311 121.749 150.014 124.274 150.856C128.749 152.347 128.871 152.39 129.282 152.672C131.407 154.127 132.819 156.582 132.819 158.825C132.819 159.726 132.75 159.955 131.029 164.781C130.134 167.29 129.319 169.517 129.218 169.725C128.845 170.508 128.03 171.424 127.167 172.015C126.357 172.58 125.233 173.049 124.247 173.246C123.592 173.374 122.378 173.374 121.818 173.241C121.52 173.171 113.492 170.348 112.389 169.927C112.357 169.911 112.25 170.018 112.149 170.156C108.825 174.855 105.053 178.696 101.404 181.082C101.015 181.338 100.701 181.578 100.696 181.615C100.696 181.647 101.665 183.623 102.853 185.994C105.405 191.092 105.394 191.066 105.394 192.653C105.394 194.315 104.846 195.801 103.791 197.016C103.216 197.682 102.528 198.151 101.495 198.582C101.186 198.71 99.2201 199.605 97.1265 200.575C94.9903 201.565 93.1418 202.386 92.918 202.444C90.654 203.078 88.4325 202.716 86.861 201.47C86.1418 200.905 85.4386 199.941 85.1083 199.083C84.9911 198.774 80.788 190.863 80.6655 190.725C80.6495 190.703 80.2659 190.73 79.8131 190.789C78.6411 190.938 76.6487 191.145 75.4981 191.247C74.1716 191.359 70.4692 191.406 69.2865 191.327C67.8429 191.225 66.2713 191.018 65.0834 190.767C64.8809 190.725 64.6945 190.703 64.6732 190.725C64.6519 190.746 63.954 192.674 63.1176 195.013C62.212 197.554 61.5141 199.429 61.3809 199.674C60.8802 200.612 59.9426 201.731 59.1275 202.37C58.2752 203.036 57.4441 203.457 56.4799 203.718C56.0324 203.84 55.8726 203.856 55.1215 203.856C54.4396 203.856 54.1892 203.835 53.8696 203.75C53.4274 203.632 44.7494 200.537 44.5043 200.409C44.2273 200.266 43.4922 199.696 43.0767 199.301C41.5904 197.89 40.706 196.078 40.6208 194.278C40.5995 193.814 40.6155 193.505 40.6794 193.159C40.7327 192.845 41.324 190.991 42.3894 187.805C43.2844 185.126 44.0142 182.899 44.0142 182.851C44.0142 182.803 43.8598 182.675 43.652 182.558C42.6505 181.972 40.9671 180.768 39.8857 179.868C38.4633 178.68 36.4123 176.671 35.1764 175.26C34.4839 174.466 33.3438 173.049 32.7845 172.287C32.5714 172.005 32.3796 171.77 32.353 171.77C32.2784 171.77 24.0212 175.313 23.4778 175.579C22.7374 175.942 22.162 176.091 21.3683 176.123C19.9779 176.187 18.6993 175.819 17.506 175.02C16.968 174.658 16.1316 173.827 15.8173 173.337C15.5137 172.862 11.71 164.637 11.5449 164.099C11.3105 163.321 11.2253 162.693 11.2253 161.782C11.2306 160.855 11.3105 160.312 11.5502 159.587C12.0989 157.952 13.2549 156.572 14.8478 155.666C15.0822 155.528 17.0479 154.601 19.2161 153.605C21.3842 152.603 23.1795 151.767 23.2115 151.74C23.2541 151.703 23.2275 151.298 23.1209 150.344C22.7107 146.615 22.5829 144.729 22.5829 142.338C22.5829 139.876 22.6894 138.624 23.089 136.627C23.1795 136.153 23.2488 135.753 23.2328 135.737C23.1955 135.7 14.7572 132.099 14.3683 131.949C12.1575 131.118 10.5594 129.217 10.1598 126.947C10.0107 126.074 10.0746 124.864 10.325 123.985C10.5008 123.362 13.5106 115.632 13.7131 115.275C14.4482 113.986 15.5829 112.873 16.7869 112.265C17.2344 112.042 17.9589 111.802 18.4809 111.701C19.0882 111.589 20.0951 111.589 20.6811 111.701C20.9314 111.749 23.3606 112.526 26.0882 113.437C28.8104 114.343 31.0798 115.089 31.1224 115.089C31.165 115.089 31.2982 114.924 31.4101 114.727C33.4291 111.253 37.2167 107.21 41.3879 104.077C41.8354 103.742 42.203 103.454 42.203 103.438C42.203 103.38 38.5485 94.8881 38.3621 94.5151C37.1102 92.0167 38.117 88.5966 40.6048 86.9079C41.0363 86.6149 49.3521 82.7793 49.9008 82.6195C50.7638 82.3638 51.2273 82.3052 52.2714 82.3052C53.0918 82.3052 53.3528 82.3265 53.8163 82.4277C54.8711 82.6514 55.862 83.0989 56.677 83.7062C57.2044 84.0951 57.9822 84.9049 58.3018 85.3896C58.467 85.6453 59.1222 87.1156 60.3688 90.0243C61.3703 92.3683 62.2067 94.3021 62.228 94.318C62.244 94.3393 62.537 94.318 62.8726 94.2807C68.855 93.5776 72.8025 93.471 75.9242 93.9185C76.4996 93.9984 77.9699 94.2861 78.1191 94.3393C78.183 94.366 78.5612 93.471 80.1008 89.6141C81.2301 86.796 82.1038 84.6811 82.2476 84.4307C83.2385 82.6994 85.0125 81.5114 87.0528 81.2131C87.4843 81.1492 88.6243 81.1438 89.0292 81.2078ZM69.9844 112.143C67.8215 112.313 66.4791 112.521 64.7371 112.958C62.8619 113.427 61.2797 113.997 59.1702 114.966C55.3133 116.74 52.5697 118.621 49.7943 121.396C47.983 123.208 46.6299 124.918 45.362 126.995C42.9861 130.884 41.6117 134.997 41.1269 139.647C41.031 140.548 41.0363 144.037 41.1269 144.895C41.5797 149.039 42.5226 152.129 44.5683 156.215C48.244 163.54 54.5888 169.027 62.2599 171.52C65.435 172.553 68.4768 173.001 71.769 172.926C74.1343 172.868 75.9455 172.633 78.1137 172.09C80.1594 171.579 81.6776 171.019 84.1281 169.885C88.4432 167.881 92.039 165.133 95.0223 161.569C97.4781 158.628 99.332 155.293 100.563 151.607C101.351 149.242 101.799 147.041 102.033 144.362C102.113 143.462 102.113 140.894 102.033 139.94C101.719 136.19 100.733 132.503 99.2627 129.579C96.173 123.442 91.0961 118.338 85.0764 115.323C81.4805 113.523 77.8633 112.5 73.9745 112.186C73.1008 112.116 70.6556 112.09 69.9844 112.143ZM74.5658 112.393C77.3999 112.702 80.0528 113.357 82.6365 114.396C83.6913 114.817 85.9128 115.915 86.845 116.474C91.8739 119.494 95.9173 123.73 98.7034 128.87C99.2414 129.872 99.6037 130.644 99.9766 131.593C103.311 140.175 102.379 149.876 97.4462 157.904C96.1144 160.066 94.6441 161.899 92.7529 163.753C90.0733 166.374 87.3298 168.233 83.6753 169.911C81.1023 171.088 79.0833 171.765 76.6967 172.244C73.8093 172.825 70.6237 172.937 67.6671 172.564C62.0628 171.861 56.7569 169.522 52.3034 165.788C51.5309 165.138 49.9008 163.55 49.1816 162.741C47.429 160.764 45.9214 158.532 44.7334 156.162C42.741 152.177 41.7981 149.194 41.3453 145.385C41.2015 144.207 41.1482 141.581 41.2388 140.329C41.9473 130.644 47.3544 121.972 55.8673 116.863C57.6093 115.819 60.486 114.482 62.4198 113.81C64.7318 113.017 67.4273 112.473 69.9045 112.297C70.6183 112.249 73.8573 112.313 74.5658 112.393ZM70.4372 124.15C61.4236 124.587 54.3703 131.06 53.2037 139.962C52.7562 143.366 53.2356 146.956 54.5355 150.009C56.8209 155.363 61.5035 159.219 67.2409 160.471C68.7964 160.812 70.075 160.924 71.8862 160.887C74.2089 160.839 75.9562 160.519 78.0818 159.758C78.9501 159.449 80.6015 158.639 81.4379 158.117C83.393 156.886 85.135 155.245 86.4615 153.376C87.8465 151.42 88.8534 149.146 89.3701 146.796C89.7377 145.129 89.8283 144.165 89.8283 141.789C89.8283 140.297 89.8176 140.02 89.7537 140.02C89.7111 140.02 87.7826 140.835 85.4653 141.826L81.2461 143.632L81.1769 143.467C81.1342 143.371 80.202 141.368 79.0993 139.008C77.9965 136.653 77.0962 134.693 77.0962 134.661C77.0962 134.629 78.9927 133.793 81.3154 132.796C83.6327 131.806 85.5398 130.964 85.5505 130.932C85.5771 130.847 84.9059 129.994 84.3572 129.414C82.6205 127.586 80.5323 126.233 77.9752 125.28C76.3664 124.683 74.3527 124.257 72.7545 124.172C71.5559 124.113 71.2416 124.108 70.4372 124.15ZM73.1807 124.364C75.0719 124.523 77.1282 125.056 78.9448 125.85C81.2994 126.883 83.4835 128.519 84.9219 130.325C85.3694 130.879 85.3694 130.879 85.2362 130.937C85.1616 130.964 83.2545 131.779 80.9957 132.749C78.1617 133.958 76.8831 134.533 76.8831 134.586C76.8831 134.709 81.1289 143.771 81.1982 143.792C81.2301 143.803 83.132 143.009 85.4333 142.023C87.7293 141.038 89.6205 140.233 89.6418 140.233C89.6631 140.233 89.6684 141.15 89.6525 142.268C89.6258 144.458 89.5885 144.895 89.2955 146.36C88.7948 148.858 87.724 151.33 86.2697 153.36C84.1548 156.305 81.0597 158.575 77.549 159.768C76.2172 160.221 74.8854 160.503 73.3512 160.668C72.3177 160.775 69.9365 160.748 68.9722 160.615C66.0742 160.21 63.5971 159.31 61.3064 157.829C59.4259 156.609 57.6466 154.872 56.3627 152.992C53.518 148.837 52.5271 143.467 53.6565 138.337C55.0256 132.115 59.4845 127.171 65.4989 125.216C67.9814 124.411 70.4745 124.134 73.1807 124.364Z" stroke="#595959" stroke-width="0.5"/>
</g>
<defs>
<filter id="filter0_di" x="0.75" y="0.75" width="229.803" height="232.5" filterUnits="userSpaceOnUse" color-interpolation-filters="sRGB">
<feFlood flood-opacity="0" result="BackgroundImageFix"/>
<feColorMatrix in="SourceAlpha" type="matrix" values="0 0 0 0 0 0 0 0 0 0 0 0 0 0 0 0 0 0 127 0"/>
<feOffset dx="13" dy="7"/>
<feGaussianBlur stdDeviation="11"/>
<feColorMatrix type="matrix" values="0 0 0 0 0 0 0 0 0 0 0 0 0 0 0 0 0 0 0.25 0"/>
<feBlend mode="normal" in2="BackgroundImageFix" result="effect1_dropShadow"/>
<feBlend mode="normal" in="SourceGraphic" in2="effect1_dropShadow" result="shape"/>
<feColorMatrix in="SourceAlpha" type="matrix" values="0 0 0 0 0 0 0 0 0 0 0 0 0 0 0 0 0 0 127 0" result="hardAlpha"/>
<feOffset dy="4"/>
<feGaussianBlur stdDeviation="2"/>
<feComposite in2="hardAlpha" operator="arithmetic" k2="-1" k3="1"/>
<feColorMatrix type="matrix" values="0 0 0 0 1 0 0 0 0 1 0 0 0 0 1 0 0 0 0.25 0"/>
<feBlend mode="normal" in2="shape" result="effect2_innerShadow"/>
</filter>
<radialGradient id="paint0_radial" cx="0" cy="0" r="1" gradientUnits="userSpaceOnUse" gradientTransform="translate(102.652 110) scale(92.6516 94)">
<stop stop-color="white"/>
<stop offset="0.5" stop-color="#DFE4EC"/>
<stop offset="1" stop-color="#BFC9D8"/>
</radialGradient>
<radialGradient id="paint1_radial" cx="0" cy="0" r="1" gradientUnits="userSpaceOnUse" gradientTransform="translate(102.652 110) scale(92.6516 94)">
<stop stop-color="white"/>
<stop offset="0.5" stop-color="#DFE4EC"/>
<stop offset="1" stop-color="#BFC9D8"/>
</radialGradient>
<radialGradient id="paint2_radial" cx="0" cy="0" r="1" gradientUnits="userSpaceOnUse" gradientTransform="translate(102.652 110) scale(92.6516 94)">
<stop stop-color="white"/>
<stop offset="0.5" stop-color="#DFE4EC"/>
<stop offset="1" stop-color="#BFC9D8"/>
</radialGradient>
<radialGradient id="paint3_radial" cx="0" cy="0" r="1" gradientUnits="userSpaceOnUse" gradientTransform="translate(102.652 110) scale(92.6516 94)">
<stop stop-color="white"/>
<stop offset="0.5" stop-color="#DFE4EC"/>
<stop offset="1" stop-color="#BFC9D8"/>
</radialGradient>
<radialGradient id="paint4_radial" cx="0" cy="0" r="1" gradientUnits="userSpaceOnUse" gradientTransform="translate(102.652 110) scale(92.6516 94)">
<stop stop-color="white"/>
<stop offset="0.5" stop-color="#DFE4EC"/>
<stop offset="1" stop-color="#BFC9D8"/>
</radialGradient>
<radialGradient id="paint5_radial" cx="0" cy="0" r="1" gradientUnits="userSpaceOnUse" gradientTransform="translate(102.652 110) scale(92.6516 94)">
<stop stop-color="white"/>
<stop offset="0.5" stop-color="#DFE4EC"/>
<stop offset="1" stop-color="#BFC9D8"/>
</radialGradient>
<radialGradient id="paint6_radial" cx="0" cy="0" r="1" gradientUnits="userSpaceOnUse" gradientTransform="translate(102.652 110) scale(92.6516 94)">
<stop stop-color="white"/>
<stop offset="0.5" stop-color="#DFE4EC"/>
<stop offset="1" stop-color="#BFC9D8"/>
</radialGradient>
<radialGradient id="paint7_radial" cx="0" cy="0" r="1" gradientUnits="userSpaceOnUse" gradientTransform="translate(102.652 110) scale(92.6516 94)">
<stop stop-color="white"/>
<stop offset="0.5" stop-color="#DFE4EC"/>
<stop offset="1" stop-color="#BFC9D8"/>
</radialGradient>
<radialGradient id="paint8_radial" cx="0" cy="0" r="1" gradientUnits="userSpaceOnUse" gradientTransform="translate(102.652 110) scale(92.6516 94)">
<stop stop-color="white"/>
<stop offset="0.5" stop-color="#DFE4EC"/>
<stop offset="1" stop-color="#BFC9D8"/>
</radialGradient>
<radialGradient id="paint9_radial" cx="0" cy="0" r="1" gradientUnits="userSpaceOnUse" gradientTransform="translate(102.652 110) scale(92.6516 94)">
<stop stop-color="white"/>
<stop offset="0.5" stop-color="#DFE4EC"/>
<stop offset="1" stop-color="#BFC9D8"/>
</radialGradient>
</defs>
</svg>
