<svg width="20" height="20" viewBox="0 0 20 20" fill="none" xmlns="http://www.w3.org/2000/svg">
<path d="M8.88889 2.77783H11.1111V4.4445H8.88889V2.77783Z" fill="#292F33"/>
<path d="M12.2222 0.555664H7.77777C7.16666 0.555664 6.66666 1.05566 6.66666 1.66678C6.66666 2.27789 7.16666 2.77789 7.77777 2.77789H12.2222C12.8333 2.77789 13.3333 2.27789 13.3333 1.66678C13.3333 1.05566 12.8333 0.555664 12.2222 0.555664ZM15.6578 6.39289L14.8222 5.66067C14.6014 5.46597 14.4666 5.19182 14.4473 4.89808C14.4279 4.60435 14.5255 4.31488 14.7189 4.09289C14.9136 3.87209 15.1877 3.7373 15.4815 3.71794C15.7752 3.69858 16.0647 3.79623 16.2867 3.98955L17.1222 4.72178C17.5817 5.12455 17.6283 5.83011 17.2255 6.28955C17.0308 6.51035 16.7567 6.64514 16.463 6.6645C16.1692 6.68386 15.8798 6.58622 15.6578 6.39289Z" fill="#8899A6"/>
<path d="M10 17.7779C13.3751 17.7779 16.1111 15.0418 16.1111 11.6668C16.1111 8.2917 13.3751 5.55566 10 5.55566C6.62492 5.55566 3.88889 8.2917 3.88889 11.6668C3.88889 15.0418 6.62492 17.7779 10 17.7779Z" fill="#F5F8FA"/>
<path d="M10 3.88867C5.70445 3.88867 2.22223 7.37089 2.22223 11.6664C2.22223 15.962 5.70445 19.4442 10 19.4442C14.2956 19.4442 17.7778 15.962 17.7778 11.6664C17.7778 7.37089 14.2956 3.88867 10 3.88867ZM10 17.7776C6.63056 17.7776 3.8889 15.0359 3.8889 11.6664C3.8889 8.297 6.63056 5.55534 10 5.55534C13.3695 5.55534 16.1111 8.297 16.1111 11.6664C16.1111 15.0359 13.3695 17.7776 10 17.7776Z" fill="#66757F"/>
<path d="M15 12.2224H9.44444C9.2971 12.2224 9.15579 12.1639 9.0516 12.0597C8.94742 11.9555 8.88889 11.8142 8.88889 11.6669C8.88889 11.5195 8.94742 11.3782 9.0516 11.274C9.15579 11.1699 9.2971 11.1113 9.44444 11.1113H15C15.1473 11.1113 15.2886 11.1699 15.3928 11.274C15.497 11.3782 15.5556 11.5195 15.5556 11.6669C15.5556 11.8142 15.497 11.9555 15.3928 12.0597C15.2886 12.1639 15.1473 12.2224 15 12.2224Z" fill="#292F33"/>
<path d="M10 7.22244C10.3068 7.22244 10.5556 6.97371 10.5556 6.66688C10.5556 6.36006 10.3068 6.11133 10 6.11133C9.69319 6.11133 9.44446 6.36006 9.44446 6.66688C9.44446 6.97371 9.69319 7.22244 10 7.22244Z" fill="#292F33"/>
<path d="M10 17.2224C10.3068 17.2224 10.5556 16.9737 10.5556 16.6669C10.5556 16.3601 10.3068 16.1113 10 16.1113C9.69319 16.1113 9.44446 16.3601 9.44446 16.6669C9.44446 16.9737 9.69319 17.2224 10 17.2224Z" fill="#292F33"/>
<path d="M6.66667 8.88894C6.97349 8.88894 7.22223 8.64021 7.22223 8.33339C7.22223 8.02656 6.97349 7.77783 6.66667 7.77783C6.35985 7.77783 6.11111 8.02656 6.11111 8.33339C6.11111 8.64021 6.35985 8.88894 6.66667 8.88894Z" fill="#292F33"/>
<path d="M13.3333 15.5554C13.6402 15.5554 13.8889 15.3067 13.8889 14.9999C13.8889 14.6931 13.6402 14.4443 13.3333 14.4443C13.0265 14.4443 12.7778 14.6931 12.7778 14.9999C12.7778 15.3067 13.0265 15.5554 13.3333 15.5554Z" fill="#292F33"/>
<path d="M5.00001 12.2224C5.30684 12.2224 5.55557 11.9737 5.55557 11.6669C5.55557 11.3601 5.30684 11.1113 5.00001 11.1113C4.69319 11.1113 4.44446 11.3601 4.44446 11.6669C4.44446 11.9737 4.69319 12.2224 5.00001 12.2224Z" fill="#292F33"/>
<path d="M13.3333 8.88894C13.6402 8.88894 13.8889 8.64021 13.8889 8.33339C13.8889 8.02656 13.6402 7.77783 13.3333 7.77783C13.0265 7.77783 12.7778 8.02656 12.7778 8.33339C12.7778 8.64021 13.0265 8.88894 13.3333 8.88894Z" fill="#292F33"/>
<path d="M6.66667 15.5556C6.55669 15.5558 6.44912 15.5234 6.3576 15.4624C6.26609 15.4014 6.19477 15.3146 6.15268 15.213C6.1106 15.1113 6.09965 14.9995 6.12123 14.8917C6.14281 14.7838 6.19595 14.6848 6.27389 14.6072L10.1628 10.7184C10.2144 10.6668 10.2756 10.6259 10.343 10.5979C10.4104 10.57 10.4826 10.5557 10.5556 10.5557C10.6285 10.5557 10.7007 10.57 10.7681 10.5979C10.8355 10.6259 10.8968 10.6668 10.9483 10.7184C10.9999 10.7699 11.0408 10.8312 11.0687 10.8986C11.0967 10.966 11.111 11.0382 11.111 11.1111C11.111 11.1841 11.0967 11.2563 11.0687 11.3237C11.0408 11.3911 10.9999 11.4523 10.9483 11.5039L7.05945 15.3928C7.00793 15.4445 6.9467 15.4854 6.8793 15.5134C6.81189 15.5413 6.73963 15.5557 6.66667 15.5556Z" fill="#FFD700"/>
</svg>
